<svg width="22" height="22" viewBox="0 0 22 22" fill="none" xmlns="http://www.w3.org/2000/svg">
<g clip-path="url(#clip0_49_3273)">
<mask id="mask0_49_3273" style="mask-type:luminance" maskUnits="userSpaceOnUse" x="0" y="0" width="22" height="22">
<path d="M21.2826 0.908203H0.589844V21.601H21.2826V0.908203Z" fill="white"/>
</mask>
<g mask="url(#mask0_49_3273)">
<path d="M10.9388 0.908203H10.9336C5.22891 0.908203 0.589844 5.54856 0.589844 11.2546C0.589844 13.5179 1.31926 15.6156 2.55954 17.3188L1.27012 21.1626L5.24701 19.8912C6.88303 20.975 8.83462 21.601 10.9388 21.601C16.6435 21.601 21.2826 16.9594 21.2826 11.2546C21.2826 5.54985 16.6435 0.908203 10.9388 0.908203Z" fill="#4CAF50"/>
<path d="M16.9606 15.5182C16.711 16.2231 15.7203 16.8077 14.93 16.9784C14.3894 17.0935 13.6832 17.1853 11.306 16.1998C8.26534 14.9401 6.30721 11.8502 6.15459 11.6498C6.00844 11.4493 4.9259 10.0137 4.9259 8.52891C4.9259 7.04414 5.67993 6.32115 5.98387 6.01075C6.23348 5.75596 6.64606 5.63956 7.04183 5.63956C7.16987 5.63956 7.28498 5.64602 7.38845 5.6512C7.69239 5.66413 7.845 5.68224 8.04547 6.16207C8.29509 6.76348 8.90297 8.24825 8.97539 8.40087C9.04912 8.55348 9.12284 8.76042 9.01937 8.96089C8.92237 9.16783 8.83701 9.25965 8.68439 9.43555C8.53177 9.61145 8.38692 9.74596 8.2343 9.93478C8.09462 10.099 7.93683 10.2749 8.11273 10.5789C8.28862 10.8763 8.8965 11.8683 9.7915 12.665C10.9465 13.6933 11.8829 14.0218 12.2179 14.1615C12.4674 14.265 12.7649 14.2403 12.9473 14.0463C13.1788 13.7968 13.4647 13.3829 13.7556 12.9754C13.9626 12.6831 14.2238 12.6469 14.498 12.7504C14.7774 12.8474 16.2557 13.5781 16.5596 13.7295C16.8636 13.8821 17.064 13.9545 17.1378 14.0825C17.2102 14.2106 17.2102 14.812 16.9606 15.5182Z" fill="#FAFAFA"/>
</g>
</g>
<defs>
<clipPath id="clip0_49_3273">
<rect width="20.6928" height="20.6928" fill="white" transform="translate(0.59375 0.905975)"/>
</clipPath>
</defs>
</svg>
