<svg width="50" height="49" viewBox="0 0 50 49" fill="none" xmlns="http://www.w3.org/2000/svg">
<path d="M2.49414 2.83716H47.0558V46.1836H2.49414V2.83716Z" fill="url(#paint0_radial_49_3259)"/>
<path d="M2.4923 2.83702H47.054V46.1834H2.4923V2.83702ZM0.466797 48.209H49.0795V0.811523H0.466797V48.209ZM34.8603 23.6595C35.8932 23.6595 36.2579 23.6595 36.3591 23.619C36.3591 23.4773 36.3996 23.3759 36.3996 23.2746C36.3996 22.1808 35.873 20.1553 33.7665 20.1553C31.8219 20.1553 30.9915 21.8567 30.7889 23.6595H34.8603ZM30.7485 26.4345C30.789 29.169 32.0853 31.0122 35.1641 31.0122C36.3592 31.0122 37.3922 30.8503 38.4658 30.3844C38.6076 30.3236 38.7089 30.3439 38.7089 30.5261V33.058C38.7089 33.2606 38.6481 33.3619 38.5064 33.4632C37.4328 33.9897 36.0959 34.2328 34.435 34.2328C29.0877 34.2328 27.0824 30.2831 27.0824 25.8877C27.0824 21.1075 29.5536 17.1982 33.9085 17.1982C38.3241 17.1982 39.8635 20.9049 39.8635 23.923C39.8635 24.8953 39.8028 25.6852 39.7015 26.0701C39.661 26.2321 39.6003 26.2929 39.4382 26.3334C39.033 26.3942 37.838 26.4751 36.0555 26.4751H30.7485V26.4345ZM19.8917 24.3685C19.3246 22.1201 17.9471 17.2183 17.4408 14.8484H17.4002C16.9749 17.2183 15.8608 21.2288 15.0304 24.3685H19.8917ZM14.1998 27.6499L12.5997 33.7062C12.5592 33.8681 12.4985 33.929 12.2959 33.929H9.31832C9.11579 33.929 9.07521 33.8682 9.1158 33.6252L14.8683 13.5116C14.9695 13.1471 15.0303 12.8634 15.0708 11.8507C15.0708 11.709 15.1315 11.6482 15.2328 11.6482H19.4864C19.6282 11.6482 19.689 11.6887 19.7295 11.8507L26.1707 33.6657C26.2112 33.8276 26.1707 33.929 26.0087 33.929H22.6666C22.5045 33.929 22.4032 33.8682 22.3627 33.7265L20.7017 27.6499H14.1998V27.6499Z" fill="#D8A1FF"/>
<defs>
<radialGradient id="paint0_radial_49_3259" cx="0" cy="0" r="1" gradientUnits="userSpaceOnUse" gradientTransform="translate(17.1706 12.5511) scale(33.8669 32.7893)">
<stop stop-color="#442F55" stop-opacity="0.98"/>
<stop offset="1" stop-color="#12002C"/>
</radialGradient>
</defs>
</svg>
