<svg width="60" height="60" viewBox="0 0 60 60" fill="none" xmlns="http://www.w3.org/2000/svg">
<circle cx="29.98" cy="29.98" r="29.98" fill="#052233"/>
<g clip-path="url(#clip0_1_9)">
<path d="M23.3984 51.2921C27.2345 51.2921 30.3478 48.1788 30.3478 44.3427V37.3933H23.3984C19.5623 37.3933 16.449 40.5066 16.449 44.3427C16.449 48.1788 19.5623 51.2921 23.3984 51.2921Z" fill="#0ACF83"/>
<path d="M16.449 30.4438C16.449 26.6077 19.5623 23.4944 23.3984 23.4944H30.3478V37.3932H23.3984C19.5623 37.3932 16.449 34.2798 16.449 30.4438Z" fill="#A259FF"/>
<path d="M16.4492 16.5451C16.4492 12.709 19.5625 9.5957 23.3986 9.5957H30.348V23.4945H23.3986C19.5625 23.4945 16.4492 20.3812 16.4492 16.5451Z" fill="#F24E1E"/>
<path d="M30.3495 9.5957H37.299C41.135 9.5957 44.2484 12.709 44.2484 16.5451C44.2484 20.3812 41.135 23.4945 37.299 23.4945H30.3495V9.5957Z" fill="#FF7262"/>
<path d="M44.2484 30.4438C44.2484 34.2798 41.135 37.3932 37.299 37.3932C33.4629 37.3932 30.3495 34.2798 30.3495 30.4438C30.3495 26.6077 33.4629 23.4944 37.299 23.4944C41.135 23.4944 44.2484 26.6077 44.2484 30.4438Z" fill="#1ABCFE"/>
</g>
<defs>
<clipPath id="clip0_1_9">
<rect width="29" height="43" fill="white" transform="translate(16 9)"/>
</clipPath>
</defs>
</svg>
