<svg width="50" height="48" viewBox="0 0 50 48" fill="none" xmlns="http://www.w3.org/2000/svg">
<path d="M0.234375 0.0012207H49.263V47.9448H0.234375V0.0012207Z" fill="url(#paint0_linear_49_3239)"/>
<path d="M4.13477 3.81421H45.3652V44.1327H4.13477V3.81421Z" fill="url(#paint1_linear_49_3239)"/>
<path d="M12.0822 13.5142C12.0822 13.5142 15.1821 13.4331 17.7339 13.4331C20.3125 13.4331 22.151 14.0364 23.3854 15.0965C24.5652 16.0983 25.3608 17.8061 25.3608 19.7501C25.3608 21.6942 24.7571 23.285 23.6595 24.4034C22.2329 25.8468 20.5705 26.7011 17.7339 26.8193C16.9502 26.852 16.2249 26.8598 16.2249 26.8598V33.1792H12.082L12.0822 13.5142ZM16.2248 23.3586C16.6749 23.4021 16.9569 23.3812 17.6241 23.3732C19.8464 23.3467 21.2177 22.0028 21.2177 19.9705C21.2177 18.1447 20.0869 16.6457 17.9535 16.568C17.1032 16.5371 16.2248 16.568 16.2248 16.568V23.3586Z" fill="url(#paint2_linear_49_3239)"/>
<path d="M26.9432 28.7768C27.7781 29.2863 29.7484 30.0493 31.0915 30.0493C32.4636 30.0493 33.0302 29.5684 33.0302 28.8187C33.0302 28.0681 32.5828 27.2795 30.882 26.7094C27.8685 25.6889 26.7047 24.4674 26.7349 22.7577C26.7349 19.9963 29.0618 17.9258 32.672 17.9258C34.3726 17.9258 35.7312 18.4787 36.6255 18.9285V22.2427C35.9685 21.8822 34.0742 21.0774 32.8214 21.0774C31.7167 21.0774 31.0907 21.5276 31.0907 22.2771C31.0907 22.9675 31.6579 23.3276 33.4479 23.9582C36.2221 24.9184 37.3859 26.3284 37.4153 28.4891C37.4153 31.2203 35.2983 33.3921 31.0907 33.2603C29.6466 33.2151 28.0468 32.6474 26.9428 32.048L26.9432 28.7768Z" fill="url(#paint3_linear_49_3239)"/>
<defs>
<linearGradient id="paint0_linear_49_3239" x1="12.1491" y1="-2.50257" x2="30.7729" y2="37.0704" gradientUnits="userSpaceOnUse">
<stop stop-color="#A0CBFF"/>
<stop offset="0.394" stop-color="#A0CBFE"/>
<stop offset="0.583" stop-color="#8EC2FC"/>
<stop offset="0.784" stop-color="#83BCFB"/>
<stop offset="1" stop-color="#7FBAFB"/>
</linearGradient>
<linearGradient id="paint1_linear_49_3239" x1="18.8214" y1="4.38238" x2="29.3363" y2="39.5195" gradientUnits="userSpaceOnUse">
<stop stop-color="#090058"/>
<stop offset="1" stop-color="#070033"/>
</linearGradient>
<linearGradient id="paint2_linear_49_3239" x1="6.30319" y1="-0.400829" x2="24.9269" y2="39.1716" gradientUnits="userSpaceOnUse">
<stop stop-color="#A0CBFF"/>
<stop offset="0.394" stop-color="#A0CBFE"/>
<stop offset="0.583" stop-color="#8EC2FC"/>
<stop offset="0.784" stop-color="#83BCFB"/>
<stop offset="1" stop-color="#7FBAFB"/>
</linearGradient>
<linearGradient id="paint3_linear_49_3239" x1="17.0098" y1="-5.55734" x2="35.7073" y2="34.1719" gradientUnits="userSpaceOnUse">
<stop stop-color="#A0CBFF"/>
<stop offset="0.394" stop-color="#A0CBFE"/>
<stop offset="0.583" stop-color="#8EC2FC"/>
<stop offset="0.784" stop-color="#83BCFB"/>
<stop offset="1" stop-color="#7FBAFB"/>
</linearGradient>
</defs>
</svg>
