<svg width="54" height="58" viewBox="0 0 54 58" fill="none" xmlns="http://www.w3.org/2000/svg">
<path d="M27.0932 33.3912C29.671 33.3912 31.7607 31.3131 31.7607 28.7497C31.7607 26.1862 29.671 24.1082 27.0932 24.1082C24.5155 24.1082 22.4258 26.1862 22.4258 28.7497C22.4258 31.3131 24.5155 33.3912 27.0932 33.3912Z" fill="#61DAFB"/>
<path fill-rule="evenodd" clip-rule="evenodd" d="M5.15014 26.3073C4.09169 27.2575 3.74378 28.0859 3.74378 28.7495C3.74378 29.4131 4.09169 30.2416 5.15014 31.1917C6.20787 32.1413 7.83394 33.0739 9.98768 33.8917C14.2833 35.5227 20.3316 36.5667 27.0963 36.5667C33.861 36.5667 39.9094 35.5227 44.205 33.8917C46.3587 33.0739 47.9848 32.1413 49.0425 31.1917C50.101 30.2416 50.4489 29.4131 50.4489 28.7495C50.4489 28.0859 50.101 27.2575 49.0425 26.3073C47.9848 25.3577 46.3587 24.4251 44.205 23.6074C39.9094 21.9763 33.861 20.9323 27.0963 20.9323C20.3316 20.9323 14.2833 21.9763 9.98768 23.6074C7.83394 24.4251 6.20787 25.3577 5.15014 26.3073ZM8.7863 20.4433C13.5551 18.6326 20.0292 17.5479 27.0963 17.5479C34.1635 17.5479 40.6375 18.6326 45.4063 20.4433C47.7848 21.3464 49.8265 22.4629 51.3034 23.7887C52.7796 25.114 53.8333 26.7872 53.8333 28.7495C53.8333 30.7119 52.7796 32.3851 51.3034 33.7103C49.8265 35.0361 47.7848 36.1526 45.4063 37.0557C40.6375 38.8664 34.1635 39.9512 27.0963 39.9512C20.0292 39.9512 13.5551 38.8664 8.7863 37.0557C6.40783 36.1526 4.36618 35.0361 2.88924 33.7103C1.41302 32.3851 0.359314 30.7119 0.359314 28.7495C0.359314 26.7872 1.41302 25.114 2.88924 23.7887C4.36618 22.4629 6.40783 21.3464 8.7863 20.4433Z" fill="#61DAFB"/>
<path fill-rule="evenodd" clip-rule="evenodd" d="M18.2612 8.63144C16.9062 8.19553 16.0062 8.30793 15.421 8.64386C14.8359 8.9798 14.288 9.69874 13.9902 11.0836C13.6923 12.4686 13.6931 14.334 14.0576 16.5963C14.7846 21.1087 16.8986 26.8374 20.2799 32.6614C23.6612 38.4855 27.5931 43.1705 31.1593 46.0528C32.9472 47.4978 34.5713 48.4312 35.9264 48.8672C37.2814 49.3031 38.1814 49.1907 38.7665 48.8548C39.3516 48.5188 39.8995 47.7999 40.1974 46.415C40.4953 45.03 40.4944 43.1646 40.13 40.9023C39.403 36.3899 37.289 30.6613 33.9076 24.8372C30.5263 19.0131 26.5944 14.3282 23.0282 11.4459C21.2403 10.0008 19.6163 9.06738 18.2612 8.63144ZM25.1617 8.82552C29.125 12.0288 33.3081 17.0639 36.8427 23.152C40.3774 29.2401 42.6707 35.3603 43.4786 40.3752C43.8816 42.8765 43.9301 45.1944 43.5138 47.13C43.0975 49.0657 42.1676 50.8047 40.4658 51.7817C38.7641 52.7587 36.7847 52.6901 34.8908 52.0808C32.997 51.4715 31.0027 50.2708 29.0259 48.6731C25.0626 45.4699 20.8794 40.4347 17.3448 34.3466C13.8102 28.2585 11.5169 22.1383 10.7089 17.1235C10.3059 14.6221 10.2575 12.3043 10.6738 10.3686C11.0901 8.43295 12.02 6.69397 13.7217 5.71693C15.4235 4.73988 17.4028 4.80854 19.2967 5.41784C21.1905 6.02709 23.1848 7.22778 25.1617 8.82552Z" fill="#61DAFB"/>
<path fill-rule="evenodd" clip-rule="evenodd" d="M40.2014 11.0839C39.9035 9.69897 39.3556 8.98003 38.7705 8.64409C38.1854 8.30816 37.2853 8.19576 35.9303 8.63167C34.5753 9.06762 32.9512 10.0011 31.1633 11.4461C27.5971 14.3284 23.6652 19.0133 20.2839 24.8374C16.9026 30.6615 14.7886 36.3902 14.0616 40.9026C13.6971 43.1648 13.6962 45.0302 13.9941 46.4152C14.292 47.8001 14.8399 48.5191 15.425 48.855C16.0101 49.1909 16.9102 49.3033 18.2651 48.8674C19.6202 48.4315 21.2443 47.498 23.0322 46.053C26.5984 43.1707 30.5303 38.4858 33.9116 32.6617C37.2929 26.8376 39.4069 21.1089 40.1339 16.5965C40.4984 14.3342 40.4993 12.4688 40.2014 11.0839ZM43.4826 17.1237C42.6746 22.1386 40.3813 28.2587 36.8467 34.3468C33.3121 40.4349 29.1289 45.4701 25.1656 48.6733C23.1888 50.2711 21.1945 51.4718 19.3007 52.081C17.4068 52.6903 15.4274 52.759 13.7257 51.7819C12.024 50.8049 11.0941 49.0659 10.6777 47.1302C10.2614 45.1946 10.3099 42.8768 10.7129 40.3754C11.5208 35.3605 13.8142 29.2403 17.3488 23.1522C20.8834 17.0641 25.0666 12.029 29.0299 8.82576C31.0067 7.22801 33.001 6.02733 34.8948 5.41807C36.7887 4.80878 38.768 4.74011 40.4698 5.71716C42.1715 6.6942 43.1014 8.43318 43.5178 10.3689C43.9341 12.3045 43.8856 14.6223 43.4826 17.1237Z" fill="#61DAFB"/>
</svg>
