<svg width="58" height="57" viewBox="0 0 58 57" fill="none" xmlns="http://www.w3.org/2000/svg">
<path d="M0.898562 20.2702C0.898562 20.2702 -0.481288 19.2755 1.17453 17.9474L5.03236 14.4978C5.03236 14.4978 6.13624 13.3364 7.30336 14.3483L42.9035 41.3014V54.226C42.9035 54.226 42.8862 56.2555 40.2818 56.0313L0.898562 20.2702Z" fill="#2489CA"/>
<path d="M10.0756 28.6011L0.899596 36.9434C0.899596 36.9434 -0.0433026 37.6448 0.899596 38.8982L5.15989 42.7733C5.15989 42.7733 6.17178 43.8599 7.66662 42.6238L17.3946 35.2473L10.0756 28.6011Z" fill="#1070B3"/>
<path d="M26.1835 28.6701L43.012 15.8202L42.9027 2.96457C42.9027 2.96457 42.184 0.158866 39.7866 1.61921L17.3927 22.0008L26.1835 28.6701Z" fill="#0877B9"/>
<path d="M40.2817 56.0486C41.2591 57.049 42.4434 56.7213 42.4434 56.7213L55.5578 50.259C57.2366 49.1149 57.0009 47.6948 57.0009 47.6948V9.10489C57.0009 7.40882 55.2645 6.82239 55.2645 6.82239L43.898 1.34322C41.4143 -0.191863 39.7872 1.61919 39.7872 1.61919C39.7872 1.61919 41.88 0.112855 42.9034 2.96455V53.9903C42.9034 54.3411 42.8286 54.686 42.6792 54.9965C42.3802 55.6002 41.7305 56.1636 40.1724 55.9279L40.2817 56.0486Z" fill="#3C99D4"/>
</svg>
