<svg width="35" height="34" viewBox="0 0 35 34" fill="none" xmlns="http://www.w3.org/2000/svg">
<path fill-rule="evenodd" clip-rule="evenodd" d="M17.5293 0.19165C26.7008 0.19165 34.1386 7.62952 34.1386 16.801C34.1386 25.9725 26.7008 33.4104 17.5293 33.4104C8.35779 33.4104 0.919922 25.9725 0.919922 16.801C0.919922 7.62952 8.35779 0.19165 17.5293 0.19165ZM14.0801 22.1958L10.0138 18.1261C9.32099 17.4329 9.32085 16.3025 10.0138 15.6095C10.7068 14.9166 11.8422 14.9209 12.5302 15.6095L15.397 18.4785L22.5286 11.347C23.2216 10.6539 24.3521 10.6539 25.045 11.347C25.7381 12.0399 25.7371 13.1714 25.045 13.8634L16.6532 22.2553C15.9612 22.9473 14.8296 22.9483 14.1367 22.2553C14.1173 22.2358 14.0985 22.216 14.0801 22.1958Z" fill="#00BA00"/>
</svg>
