<svg width="35" height="34" viewBox="0 0 35 34" fill="none" xmlns="http://www.w3.org/2000/svg">
<path fill-rule="evenodd" clip-rule="evenodd" d="M17.5293 0.346924C26.7008 0.346924 34.1386 7.7848 34.1386 16.9563C34.1386 26.1278 26.7008 33.5656 17.5293 33.5656C8.35779 33.5656 0.919922 26.1278 0.919922 16.9563C0.919922 7.7848 8.35779 0.346924 17.5293 0.346924ZM14.0801 22.3511L10.0138 18.2814C9.32099 17.5882 9.32085 16.4578 10.0138 15.7648C10.7068 15.0719 11.8422 15.0762 12.5302 15.7648L15.397 18.6338L22.5286 11.5022C23.2216 10.8092 24.3521 10.8092 25.045 11.5022C25.7381 12.1951 25.7371 13.3266 25.045 14.0187L16.6532 22.4105C15.9612 23.1026 14.8296 23.1036 14.1367 22.4105C14.1173 22.3911 14.0985 22.3713 14.0801 22.3511Z" fill="#00BA00"/>
</svg>
