<svg width="35" height="34" viewBox="0 0 35 34" fill="none" xmlns="http://www.w3.org/2000/svg">
<path fill-rule="evenodd" clip-rule="evenodd" d="M17.5293 0.769287C26.7008 0.769287 34.1386 8.20716 34.1386 17.3786C34.1386 26.5501 26.7008 33.988 17.5293 33.988C8.35779 33.988 0.919922 26.5501 0.919922 17.3786C0.919922 8.20716 8.35779 0.769287 17.5293 0.769287ZM14.0801 22.7735L10.0138 18.7037C9.32099 18.0106 9.32085 16.8802 10.0138 16.1871C10.7068 15.4942 11.8422 15.4986 12.5302 16.1871L15.397 19.0562L22.5286 11.9246C23.2216 11.2315 24.3521 11.2315 25.045 11.9246C25.7381 12.6175 25.7371 13.749 25.045 14.4411L16.6532 22.8329C15.9612 23.525 14.8296 23.526 14.1367 22.8329C14.1173 22.8134 14.0985 22.7937 14.0801 22.7735Z" fill="#00BA00"/>
</svg>
