<svg width="35" height="34" viewBox="0 0 35 34" fill="none" xmlns="http://www.w3.org/2000/svg">
<path fill-rule="evenodd" clip-rule="evenodd" d="M17.5293 0.557861C26.7008 0.557861 34.1386 7.99574 34.1386 17.1672C34.1386 26.3387 26.7008 33.7766 17.5293 33.7766C8.35779 33.7766 0.919922 26.3387 0.919922 17.1672C0.919922 7.99574 8.35779 0.557861 17.5293 0.557861ZM14.0801 22.5621L10.0138 18.4923C9.32099 17.7991 9.32085 16.6688 10.0138 15.9757C10.7068 15.2828 11.8422 15.2871 12.5302 15.9757L15.397 18.8447L22.5286 11.7132C23.2216 11.0201 24.3521 11.0201 25.045 11.7132C25.7381 12.4061 25.7371 13.5376 25.045 14.2296L16.6532 22.6215C15.9612 23.3135 14.8296 23.3145 14.1367 22.6215C14.1173 22.602 14.0985 22.5822 14.0801 22.5621Z" fill="#00BA00"/>
</svg>
