<svg width="35" height="34" viewBox="0 0 35 34" fill="none" xmlns="http://www.w3.org/2000/svg">
<path fill-rule="evenodd" clip-rule="evenodd" d="M17.5293 0.402344C26.7008 0.402344 34.1386 7.84022 34.1386 17.0117C34.1386 26.1832 26.7008 33.6211 17.5293 33.6211C8.35779 33.6211 0.919922 26.1832 0.919922 17.0117C0.919922 7.84022 8.35779 0.402344 17.5293 0.402344ZM14.0801 22.4065L10.0138 18.3368C9.32099 17.6436 9.32085 16.5132 10.0138 15.8202C10.7068 15.1273 11.8422 15.1316 12.5302 15.8202L15.397 18.6892L22.5286 11.5577C23.2216 10.8646 24.3521 10.8646 25.045 11.5577C25.7381 12.2506 25.7371 13.3821 25.045 14.0741L16.6532 22.466C15.9612 23.158 14.8296 23.159 14.1367 22.466C14.1173 22.4465 14.0985 22.4267 14.0801 22.4065Z" fill="#00BA00"/>
</svg>
