<svg width="35" height="35" viewBox="0 0 35 35" fill="none" xmlns="http://www.w3.org/2000/svg">
<path fill-rule="evenodd" clip-rule="evenodd" d="M17.5293 0.980225C26.7008 0.980225 34.1386 8.4181 34.1386 17.5896C34.1386 26.7611 26.7008 34.1989 17.5293 34.1989C8.35779 34.1989 0.919922 26.7611 0.919922 17.5896C0.919922 8.4181 8.35779 0.980225 17.5293 0.980225ZM14.0801 22.9844L10.0138 18.9147C9.32099 18.2215 9.32085 17.0911 10.0138 16.3981C10.7068 15.7052 11.8422 15.7095 12.5302 16.3981L15.397 19.2671L22.5286 12.1355C23.2216 11.4425 24.3521 11.4425 25.045 12.1355C25.7381 12.8284 25.7371 13.9599 25.045 14.652L16.6532 23.0438C15.9612 23.7359 14.8296 23.7369 14.1367 23.0438C14.1173 23.0244 14.0985 23.0046 14.0801 22.9844Z" fill="#00BA00"/>
</svg>
