<svg width="35" height="34" viewBox="0 0 35 34" fill="none" xmlns="http://www.w3.org/2000/svg">
<path fill-rule="evenodd" clip-rule="evenodd" d="M17.5293 0.61377C26.7008 0.61377 34.1386 8.05164 34.1386 17.2231C34.1386 26.3946 26.7008 33.8325 17.5293 33.8325C8.35779 33.8325 0.919922 26.3946 0.919922 17.2231C0.919922 8.05164 8.35779 0.61377 17.5293 0.61377ZM14.0801 22.618L10.0138 18.5482C9.32099 17.855 9.32085 16.7247 10.0138 16.0316C10.7068 15.3387 11.8422 15.343 12.5302 16.0316L15.397 18.9006L22.5286 11.7691C23.2216 11.076 24.3521 11.076 25.045 11.7691C25.7381 12.462 25.7371 13.5935 25.045 14.2856L16.6532 22.6774C15.9612 23.3695 14.8296 23.3704 14.1367 22.6774C14.1173 22.6579 14.0985 22.6381 14.0801 22.618Z" fill="#00BA00"/>
</svg>
