<svg width="21" height="21" viewBox="0 0 21 21" fill="none" xmlns="http://www.w3.org/2000/svg">
<path d="M3.75345 14.5806C2.80613 12.9823 2.47477 11.0932 2.82157 9.26794C3.16838 7.44266 4.16951 5.80673 5.63701 4.66727C7.10452 3.52781 8.93747 2.96319 10.7918 3.0794C12.6461 3.19561 14.3942 3.98466 15.708 5.29842C17.0217 6.61218 17.8108 8.3603 17.927 10.2146C18.0432 12.0689 17.4786 13.9019 16.3391 15.3694C15.1996 16.8369 13.5637 17.838 11.7384 18.1848C9.91315 18.5316 8.02404 18.2002 6.42576 17.2529V17.2529L3.78527 18.0005C3.67708 18.0322 3.56238 18.0341 3.45318 18.0062C3.34399 17.9783 3.24431 17.9215 3.16461 17.8418C3.08491 17.7621 3.02812 17.6624 3.00018 17.5532C2.97225 17.444 2.97421 17.3293 3.00585 17.2211L3.75345 14.5806Z" stroke="#797596" stroke-width="1.27252" stroke-linecap="round" stroke-linejoin="round"/>
</svg>
