<svg width="27" height="27" viewBox="0 0 27 27" fill="none" xmlns="http://www.w3.org/2000/svg">
<g filter="url(#filter0_d_4_4140)">
<path d="M22.7092 7.32439L10.6394 19.3942C10.5693 19.4644 10.4861 19.52 10.3945 19.558C10.3029 19.5959 10.2048 19.6155 10.1057 19.6155C10.0065 19.6155 9.90835 19.5959 9.81677 19.558C9.7252 19.52 9.642 19.4644 9.57194 19.3942L4.29138 14.1137C4.14983 13.9721 4.07031 13.7801 4.07031 13.58C4.07031 13.3798 4.14983 13.1878 4.29138 13.0462C4.43293 12.9047 4.62492 12.8252 4.8251 12.8252C5.02528 12.8252 5.21726 12.9047 5.35881 13.0462L10.1057 17.794L21.6418 6.25696C21.7833 6.11541 21.9753 6.03589 22.1755 6.03589C22.3757 6.03589 22.5677 6.11541 22.7092 6.25696C22.8508 6.39851 22.9303 6.59049 22.9303 6.79067C22.9303 6.99085 22.8508 7.18284 22.7092 7.32439Z" fill="#E2AA8B"/>
</g>
<defs>
<filter id="filter0_d_4_4140" x="0.478515" y="6.03589" width="26.043" height="20.7632" filterUnits="userSpaceOnUse" color-interpolation-filters="sRGB">
<feFlood flood-opacity="0" result="BackgroundImageFix"/>
<feColorMatrix in="SourceAlpha" type="matrix" values="0 0 0 0 0 0 0 0 0 0 0 0 0 0 0 0 0 0 127 0" result="hardAlpha"/>
<feOffset dy="3.5918"/>
<feGaussianBlur stdDeviation="1.7959"/>
<feComposite in2="hardAlpha" operator="out"/>
<feColorMatrix type="matrix" values="0 0 0 0 0.273708 0 0 0 0 0.0892953 0 0 0 0 0.508415 0 0 0 1 0"/>
<feBlend mode="normal" in2="BackgroundImageFix" result="effect1_dropShadow_4_4140"/>
<feBlend mode="normal" in="SourceGraphic" in2="effect1_dropShadow_4_4140" result="shape"/>
</filter>
</defs>
</svg>
