<svg width="27" height="27" viewBox="0 0 27 27" fill="none" xmlns="http://www.w3.org/2000/svg">
<g filter="url(#filter0_d_4_4161)">
<path d="M22.2834 7.32439L10.2136 19.3942C10.1435 19.4644 10.0603 19.52 9.96875 19.558C9.87717 19.5959 9.77901 19.6155 9.67987 19.6155C9.58074 19.6155 9.48257 19.5959 9.39099 19.558C9.29942 19.52 9.21622 19.4644 9.14616 19.3942L3.8656 14.1137C3.72405 13.9721 3.64453 13.7801 3.64453 13.58C3.64453 13.3798 3.72405 13.1878 3.8656 13.0462C4.00715 12.9047 4.19913 12.8252 4.39932 12.8252C4.5995 12.8252 4.79148 12.9047 4.93303 13.0462L9.67987 17.794L21.216 6.25696C21.3575 6.11541 21.5495 6.03589 21.7497 6.03589C21.9499 6.03589 22.1419 6.11541 22.2834 6.25696C22.425 6.39851 22.5045 6.59049 22.5045 6.79067C22.5045 6.99085 22.425 7.18284 22.2834 7.32439Z" fill="#FCE1AE"/>
</g>
<defs>
<filter id="filter0_d_4_4161" x="0.0527337" y="6.03589" width="26.043" height="20.7632" filterUnits="userSpaceOnUse" color-interpolation-filters="sRGB">
<feFlood flood-opacity="0" result="BackgroundImageFix"/>
<feColorMatrix in="SourceAlpha" type="matrix" values="0 0 0 0 0 0 0 0 0 0 0 0 0 0 0 0 0 0 127 0" result="hardAlpha"/>
<feOffset dy="3.5918"/>
<feGaussianBlur stdDeviation="1.7959"/>
<feComposite in2="hardAlpha" operator="out"/>
<feColorMatrix type="matrix" values="0 0 0 0 0.0821283 0 0 0 0 0.384696 0 0 0 0 0.869694 0 0 0 0.73 0"/>
<feBlend mode="normal" in2="BackgroundImageFix" result="effect1_dropShadow_4_4161"/>
<feBlend mode="normal" in="SourceGraphic" in2="effect1_dropShadow_4_4161" result="shape"/>
</filter>
</defs>
</svg>
