<svg width="33" height="34" viewBox="0 0 33 34" fill="none" xmlns="http://www.w3.org/2000/svg">
<g filter="url(#filter0_d_1442_10350)">
<path d="M27.9815 9.42626L13.0844 24.3234C12.9979 24.41 12.8952 24.4786 12.7822 24.5255C12.6692 24.5723 12.548 24.5965 12.4256 24.5965C12.3033 24.5965 12.1821 24.5723 12.0691 24.5255C11.9561 24.4786 11.8534 24.41 11.7669 24.3234L5.24942 17.8059C5.07471 17.6312 4.97656 17.3942 4.97656 17.1472C4.97656 16.9001 5.07471 16.6631 5.24942 16.4884C5.42413 16.3137 5.66108 16.2156 5.90815 16.2156C6.15522 16.2156 6.39218 16.3137 6.56688 16.4884L12.4256 22.3484L26.664 8.10879C26.8387 7.93409 27.0757 7.83594 27.3228 7.83594C27.5698 7.83594 27.8068 7.93409 27.9815 8.10879C28.1562 8.2835 28.2544 8.52045 28.2544 8.76753C28.2544 9.0146 28.1562 9.25155 27.9815 9.42626Z" fill="#4A8EFB"/>
</g>
<defs>
<filter id="filter0_d_1442_10350" x="0.543407" y="7.83594" width="32.1437" height="25.628" filterUnits="userSpaceOnUse" color-interpolation-filters="sRGB">
<feFlood flood-opacity="0" result="BackgroundImageFix"/>
<feColorMatrix in="SourceAlpha" type="matrix" values="0 0 0 0 0 0 0 0 0 0 0 0 0 0 0 0 0 0 127 0" result="hardAlpha"/>
<feOffset dy="4.43316"/>
<feGaussianBlur stdDeviation="2.21658"/>
<feComposite in2="hardAlpha" operator="out"/>
<feColorMatrix type="matrix" values="0 0 0 0 0.0821283 0 0 0 0 0.384696 0 0 0 0 0.869694 0 0 0 0.73 0"/>
<feBlend mode="normal" in2="BackgroundImageFix" result="effect1_dropShadow_1442_10350"/>
<feBlend mode="normal" in="SourceGraphic" in2="effect1_dropShadow_1442_10350" result="shape"/>
</filter>
</defs>
</svg>
