<svg width="114" height="33" viewBox="0 0 114 33" fill="none" xmlns="http://www.w3.org/2000/svg">
<g clip-path="url(#clip0_4_4516)">
<g clip-path="url(#clip1_4_4516)">
<g clip-path="url(#clip2_4_4516)">
<path d="M33.1195 0.368172L28.4082 0.368164L28.4082 29.8137L33.1194 29.8137L33.1195 0.368172Z" fill="white"/>
<path d="M49.6123 20.4214C49.6123 24.9277 45.8232 25.2869 44.696 25.2869C41.8799 25.2869 41.3675 22.651 41.3675 21.0609L41.3675 9.79151L36.6562 9.7915L36.6562 21.0373C36.6562 23.8288 37.5325 26.1326 39.0684 27.6685C40.4252 29.0265 42.4582 29.7686 44.6607 29.7686C46.2225 29.7686 48.4344 29.2821 49.6123 28.2068L49.6123 29.8145L54.3236 29.8145L54.3236 9.79153L49.6123 9.79153L49.6123 20.4214Z" fill="white"/>
<path d="M63.7428 2.72462L59.0315 2.72462L59.0315 9.79155L55.498 9.79154L55.498 14.5028L59.0315 14.5028L59.0315 29.8145L63.7428 29.8145L63.7428 14.5028L67.2762 14.5029L67.2763 9.79156L63.7428 9.79156L63.7428 2.72462Z" fill="white"/>
<path d="M82.1138 23.827C81.0879 24.7492 79.7334 25.2604 78.247 25.2604C74.9703 25.2604 72.564 22.8541 72.564 19.5503C72.564 16.2465 74.8938 13.9415 78.247 13.9415C79.7075 13.9415 81.0879 14.428 82.1397 15.3502L82.8547 15.965L86.0313 12.7896L85.2362 12.0723C83.367 10.3845 80.8854 9.43752 78.2459 9.43752C72.3568 9.43751 68.0801 13.6871 68.0801 19.5255C68.0801 25.3393 72.4592 29.7408 78.2458 29.7408C80.9348 29.7408 83.4424 28.7939 85.288 27.0789L86.056 26.3617L82.8299 23.1886L82.1138 23.827Z" fill="white"/>
<path d="M102.848 11.5368C101.491 10.1799 99.901 9.4379 97.6985 9.4379C96.1367 9.4379 94.3676 9.92433 93.1898 10.9985L93.1898 0.368661L88.4785 0.368652L88.4785 29.8142L93.1898 29.8142L93.1898 18.7839C93.1898 14.2776 96.3911 13.9195 97.5183 13.9195C100.334 13.9195 100.257 16.5567 100.257 18.1444L100.257 29.8142L104.968 29.8142L104.968 18.1691C104.968 15.3777 104.385 13.0738 102.848 11.5368Z" fill="white"/>
<path d="M78.0906 16.1948C79.9728 16.1948 81.4981 17.7178 81.4981 19.6011C81.4981 21.4821 79.9728 23.0074 78.0906 23.0074C76.2096 23.0074 74.6855 21.4821 74.6855 19.6011C74.6867 17.7189 76.2108 16.1948 78.0906 16.1948Z" fill="#FF3D2E"/>
<path d="M21.8128 22.418C20.0213 24.2612 17.5879 25.26 15.0273 25.26C9.77896 25.26 5.96282 21.1376 5.96283 15.4794C5.96284 9.79521 9.77899 5.67284 15.0274 5.67285C17.5632 5.67285 19.9695 6.67047 21.7881 8.48903L22.5042 9.20633L25.6537 6.05683L24.9623 5.33954C22.3511 2.65057 18.8176 1.19241 15.0274 1.19241C7.29497 1.19239 1.48241 7.33708 1.4824 15.5041C1.48238 23.6464 7.32084 29.7664 15.0273 29.7664C18.8435 29.7664 22.3769 28.2823 24.9882 25.5934L25.6796 24.8761L22.556 21.6759L21.8128 22.418Z" fill="white"/>
</g>
</g>
</g>
<defs>
<clipPath id="clip0_4_4516">
<rect width="112.97" height="31.8012" fill="white" transform="translate(0.207031 0.368164)"/>
</clipPath>
<clipPath id="clip1_4_4516">
<rect width="103.648" height="31.8012" fill="white" transform="translate(1.48242 0.368164)"/>
</clipPath>
<clipPath id="clip2_4_4516">
<rect width="103.648" height="31.8012" fill="white" transform="translate(1.48242 0.368164)"/>
</clipPath>
</defs>
</svg>
