<svg width="27" height="27" viewBox="0 0 27 27" fill="none" xmlns="http://www.w3.org/2000/svg">
<path d="M25.4916 7.37206H23.9879V5.11661C23.9879 3.87611 22.973 2.86116 21.7325 2.86116H16.4698V1.35753C16.4698 0.94403 16.1315 0.605713 15.718 0.605713H11.2071C10.7936 0.605713 10.4553 0.94403 10.4553 1.35753V2.86116H5.19254C3.95204 2.86116 2.93709 3.87611 2.93709 5.11661V7.37206H1.43346C1.01996 7.37206 0.681641 7.71038 0.681641 8.12388V12.6348C0.681641 13.0483 1.01996 13.3866 1.43346 13.3866H5.94436C6.35785 13.3866 6.69617 13.0483 6.69617 12.6348V8.12388C6.69617 7.71038 6.35785 7.37206 5.94436 7.37206H4.44072V5.11661C4.44072 4.70311 4.77904 4.36479 5.19254 4.36479H10.4553V5.86843C10.4553 6.28193 10.7936 6.62024 11.2071 6.62024H15.718C16.1315 6.62024 16.4698 6.28193 16.4698 5.86843V4.36479H21.7325C22.146 4.36479 22.4843 4.70311 22.4843 5.11661V7.37206H20.9807C20.5672 7.37206 20.2289 7.71038 20.2289 8.12388V12.6348C20.2289 13.0483 20.5672 13.3866 20.9807 13.3866H25.4916C25.9051 13.3866 26.2434 13.0483 26.2434 12.6348V8.12388C26.2434 7.71038 25.9051 7.37206 25.4916 7.37206ZM5.19254 11.883H2.18527V8.87569H5.19254V11.883ZM14.9662 5.11661H11.9589V2.10935H14.9662V5.11661ZM24.7398 11.883H21.7325V8.87569H24.7398V11.883ZM14.0189 9.87561C14.0189 9.87561 13.9888 9.85305 13.9738 9.83802C13.9437 9.80794 13.9136 9.78539 13.8835 9.76284C13.8535 9.74028 13.8234 9.72524 13.7858 9.71021C13.7632 9.70269 13.7482 9.68765 13.7332 9.68014C13.7181 9.68014 13.7031 9.68014 13.6881 9.67262C13.6505 9.65758 13.6129 9.65758 13.5753 9.65006C13.5377 9.65006 13.5001 9.64255 13.47 9.64255C13.4324 9.64255 13.3949 9.64254 13.3573 9.65006C13.3197 9.65006 13.2821 9.6651 13.252 9.67262C13.237 9.67262 13.2219 9.67262 13.1994 9.68014C13.1768 9.68765 13.1618 9.70269 13.1468 9.71021C13.1167 9.72524 13.0791 9.74028 13.049 9.76284C13.0189 9.78539 12.9889 9.80794 12.9588 9.83802C12.9438 9.85305 12.9287 9.86057 12.9137 9.87561L6.14735 17.3938C5.97443 17.5892 5.91428 17.8599 5.98946 18.1155L8.24491 25.6337C8.34265 25.9494 8.63586 26.1675 8.96666 26.1675H17.9885C18.3193 26.1675 18.6125 25.9494 18.7102 25.6337L20.9656 18.1155C21.0408 17.8674 20.9807 17.5892 20.8078 17.3938L14.0414 9.87561H14.0189ZM13.4625 18.6493C13.876 18.6493 14.2143 18.9876 14.2143 19.4011C14.2143 19.8146 13.876 20.1529 13.4625 20.1529C13.049 20.1529 12.7107 19.8146 12.7107 19.4011C12.7107 18.9876 13.049 18.6493 13.4625 18.6493ZM17.4171 24.6638H9.51548L7.54572 18.0854L12.7182 12.334V17.281C11.8461 17.5892 11.2146 18.4162 11.2146 19.4011C11.2146 20.6416 12.2295 21.6566 13.47 21.6566C14.7105 21.6566 15.7255 20.6416 15.7255 19.4011C15.7255 18.4238 15.094 17.5968 14.2219 17.281V12.334L19.3943 18.0854L17.4246 24.6638H17.4171Z" fill="url(#paint0_linear_4_4095)"/>
<defs>
<linearGradient id="paint0_linear_4_4095" x1="0.681641" y1="13.3866" x2="24.8679" y2="13.3866" gradientUnits="userSpaceOnUse">
<stop offset="0.201063" stop-color="#FCE1AE"/>
<stop offset="1" stop-color="#A77610"/>
</linearGradient>
</defs>
</svg>
