<svg width="116" height="110" viewBox="0 0 116 110" fill="none" xmlns="http://www.w3.org/2000/svg">
<rect x="0.572266" y="0.192871" width="115.05" height="108.949" rx="5.67149" fill="white"/>
<path d="M58.0932 59.3912C60.671 59.3912 62.7607 57.3131 62.7607 54.7497C62.7607 52.1862 60.671 50.1082 58.0932 50.1082C55.5155 50.1082 53.4258 52.1862 53.4258 54.7497C53.4258 57.3131 55.5155 59.3912 58.0932 59.3912Z" fill="#61DAFB"/>
<path fill-rule="evenodd" clip-rule="evenodd" d="M36.1502 52.3072C35.0917 53.2574 34.7438 54.0858 34.7438 54.7494C34.7438 55.4131 35.0917 56.2415 36.1502 57.1917C37.2079 58.1412 38.834 59.0738 40.9877 59.8916C45.2833 61.5226 51.3317 62.5666 58.0964 62.5666C64.8611 62.5666 70.9094 61.5226 75.205 59.8916C77.3588 59.0738 78.9848 58.1412 80.0426 57.1917C81.101 56.2415 81.4489 55.4131 81.4489 54.7494C81.4489 54.0858 81.101 53.2574 80.0426 52.3072C78.9848 51.3577 77.3588 50.4251 75.205 49.6073C70.9094 47.9763 64.8611 46.9323 58.0964 46.9323C51.3317 46.9323 45.2833 47.9763 40.9877 49.6073C38.834 50.4251 37.2079 51.3577 36.1502 52.3072ZM39.7864 46.4432C44.5552 44.6325 51.0292 43.5478 58.0964 43.5478C65.1636 43.5478 71.6376 44.6325 76.4064 46.4432C78.7849 47.3463 80.8265 48.4628 82.3035 49.7887C83.7797 51.1139 84.8334 52.7871 84.8334 54.7494C84.8334 56.7118 83.7797 58.385 82.3035 59.7102C80.8265 61.0361 78.7849 62.1526 76.4064 63.0557C71.6376 64.8664 65.1636 65.9511 58.0964 65.9511C51.0292 65.9511 44.5552 64.8664 39.7864 63.0557C37.4079 62.1526 35.3662 61.0361 33.8893 59.7102C32.4131 58.385 31.3594 56.7118 31.3594 54.7494C31.3594 52.7871 32.4131 51.1139 33.8893 49.7887C35.3662 48.4628 37.4079 47.3463 39.7864 46.4432Z" fill="#61DAFB"/>
<path fill-rule="evenodd" clip-rule="evenodd" d="M49.2612 34.6315C47.9062 34.1956 47.0062 34.308 46.421 34.6439C45.8359 34.9799 45.288 35.6988 44.9902 37.0837C44.6923 38.4687 44.6931 40.3341 45.0576 42.5963C45.7846 47.1088 47.8986 52.8374 51.2799 58.6615C54.6612 64.4856 58.5931 69.1705 62.1593 72.0528C63.9472 73.4978 65.5713 74.4313 66.9264 74.8672C68.2814 75.3032 69.1814 75.1908 69.7665 74.8548C70.3516 74.5189 70.8995 73.7999 71.1974 72.4151C71.4953 71.0301 71.4944 69.1647 71.13 66.9024C70.403 62.39 68.289 56.6613 64.9076 50.8372C61.5263 45.0132 57.5944 40.3282 54.0282 37.4459C52.2403 36.0009 50.6163 35.0674 49.2612 34.6315ZM56.1617 34.8256C60.125 38.0288 64.3081 43.064 67.8427 49.1521C71.3774 55.2402 73.6707 61.3604 74.4786 66.3752C74.8816 68.8766 74.9301 71.1944 74.5138 73.13C74.0975 75.0657 73.1676 76.8047 71.4658 77.7818C69.7641 78.7588 67.7847 78.6901 65.8908 78.0809C63.997 77.4716 62.0027 76.2709 60.0259 74.6732C56.0626 71.4699 51.8794 66.4348 48.3448 60.3467C44.8102 54.2586 42.5169 48.1384 41.7089 43.1235C41.3059 40.6222 41.2575 38.3043 41.6738 36.3687C42.0901 34.433 43.02 32.694 44.7217 31.717C46.4235 30.7399 48.4028 30.8086 50.2967 31.4179C52.1905 32.0272 54.1848 33.2278 56.1617 34.8256Z" fill="#61DAFB"/>
<path fill-rule="evenodd" clip-rule="evenodd" d="M71.2014 37.0839C70.9035 35.699 70.3556 34.9801 69.7705 34.6442C69.1854 34.3082 68.2853 34.1958 66.9303 34.6317C65.5753 35.0677 63.9512 36.0011 62.1633 37.4462C58.5971 40.3285 54.6652 45.0134 51.2839 50.8375C47.9026 56.6616 45.7886 62.3902 45.0616 66.9026C44.6971 69.1649 44.6962 71.0303 44.9941 72.4153C45.292 73.8002 45.8399 74.5191 46.425 74.8551C47.0101 75.191 47.9102 75.3034 49.2651 74.8675C50.6202 74.4315 52.2443 73.4981 54.0322 72.053C57.5984 69.1707 61.5303 64.4858 64.9116 58.6617C68.2929 52.8376 70.4069 47.109 71.1339 42.5966C71.4984 40.3343 71.4993 38.4689 71.2014 37.0839ZM74.4826 43.1238C73.6746 48.1386 71.3813 54.2588 67.8467 60.3469C64.3121 66.435 60.1289 71.4701 56.1656 74.6734C54.1888 76.2711 52.1945 77.4718 50.3007 78.0811C48.4068 78.6904 46.4274 78.759 44.7257 77.782C43.024 76.8049 42.0941 75.066 41.6777 73.1303C41.2614 71.1947 41.3099 68.8768 41.7129 66.3755C42.5208 61.3606 44.8142 55.2404 48.3488 49.1523C51.8834 43.0642 56.0666 38.0291 60.0299 34.8258C62.0067 33.2281 64.001 32.0274 65.8948 31.4181C67.7887 30.8088 69.768 30.7402 71.4698 31.7172C73.1715 32.6943 74.1014 34.4332 74.5178 36.3689C74.9341 38.3045 74.8856 40.6224 74.4826 43.1238Z" fill="#61DAFB"/>
</svg>
