<svg width="116" height="110" viewBox="0 0 116 110" fill="none" xmlns="http://www.w3.org/2000/svg">
<rect x="0.804688" y="0.192871" width="115.05" height="108.949" rx="5.67149" fill="white"/>
<path d="M83.4328 30.1707H34.0234V79.3056H83.4328V30.1707Z" fill="#F7DF1E"/>
<path d="M67.2122 68.5574C68.2075 70.1734 69.5023 71.3612 71.7924 71.3612C73.7162 71.3612 74.9452 70.405 74.9452 69.0838C74.9452 67.5006 73.6825 66.9398 71.565 66.0187L70.4042 65.5235C67.0538 64.104 64.828 62.3258 64.828 58.5666C64.828 55.1038 67.4812 52.4677 71.6277 52.4677C74.5797 52.4677 76.702 53.4893 78.2313 56.1645L74.6158 58.473C73.8198 57.0536 72.961 56.4944 71.6277 56.4944C70.2678 56.4944 69.4059 57.3523 69.4059 58.473C69.4059 59.8582 70.2686 60.4189 72.2606 61.2768L73.4213 61.7713C77.3663 63.4536 79.5936 65.1686 79.5936 69.0245C79.5936 73.1815 76.3098 75.4589 71.8999 75.4589C67.5879 75.4589 64.8022 73.4155 63.4391 70.7373L67.2122 68.5574ZM50.8107 68.9575C51.5401 70.2443 52.2035 71.3323 53.7988 71.3323C55.3242 71.3323 56.2865 70.7388 56.2865 68.431V52.7313H60.9294V68.4934C60.9294 73.2743 58.1107 75.4503 53.9964 75.4503C50.2789 75.4503 48.1261 73.5372 47.0312 71.2329L50.8107 68.9575Z" fill="black"/>
</svg>
