<svg width="116" height="109" viewBox="0 0 116 109" fill="none" xmlns="http://www.w3.org/2000/svg">
<rect x="0.248047" y="0.0233154" width="115.05" height="108.949" rx="5.67149" fill="white"/>
<path d="M35.4941 32.837H80.0558V76.1835H35.4941V32.837Z" fill="url(#paint0_radial_4_4401)"/>
<path d="M35.4923 32.8368H80.054V76.1832H35.4923V32.8368ZM33.4668 78.2088H82.0795V30.8113H33.4668V78.2088ZM67.8603 53.6593C68.8932 53.6593 69.2579 53.6593 69.3591 53.6188C69.3591 53.4771 69.3996 53.3757 69.3996 53.2745C69.3996 52.1807 68.873 50.1552 66.7665 50.1552C64.8219 50.1552 63.9915 51.8565 63.7889 53.6593H67.8603ZM63.7485 56.4343C63.789 59.1688 65.0853 61.012 68.1641 61.012C69.3592 61.012 70.3922 60.8501 71.4658 60.3842C71.6076 60.3234 71.7089 60.3437 71.7089 60.5259V63.0578C71.7089 63.2604 71.6481 63.3617 71.5064 63.463C70.4328 63.9895 69.0959 64.2327 67.435 64.2327C62.0877 64.2327 60.0824 60.2829 60.0824 55.8875C60.0824 51.1073 62.5536 47.198 66.9085 47.198C71.3241 47.198 72.8635 50.9047 72.8635 53.9228C72.8635 54.8951 72.8028 55.685 72.7015 56.0699C72.661 56.2319 72.6003 56.2927 72.4382 56.3333C72.033 56.394 70.838 56.4749 69.0555 56.4749H63.7485V56.4343ZM52.8917 54.3683C52.3246 52.1199 50.9471 47.2181 50.4408 44.8483H50.4002C49.9749 47.2181 48.8608 51.2286 48.0304 54.3683H52.8917ZM47.1998 57.6497L45.5997 63.706C45.5592 63.8679 45.4985 63.9288 45.2959 63.9288H42.3183C42.1158 63.9288 42.0752 63.868 42.1158 63.625L47.8683 43.5114C47.9695 43.1469 48.0303 42.8633 48.0708 41.8505C48.0708 41.7088 48.1315 41.648 48.2328 41.648H52.4864C52.6282 41.648 52.689 41.6885 52.7295 41.8505L59.1707 63.6655C59.2112 63.8274 59.1707 63.9288 59.0087 63.9288H55.6666C55.5045 63.9288 55.4032 63.868 55.3627 63.7263L53.7017 57.6498H47.1998V57.6497Z" fill="#D8A1FF"/>
<defs>
<radialGradient id="paint0_radial_4_4401" cx="0" cy="0" r="1" gradientUnits="userSpaceOnUse" gradientTransform="translate(50.1706 42.551) scale(33.8669 32.7893)">
<stop stop-color="#442F55" stop-opacity="0.98"/>
<stop offset="1" stop-color="#12002C"/>
</radialGradient>
</defs>
</svg>
