<svg width="116" height="110" viewBox="0 0 116 110" fill="none" xmlns="http://www.w3.org/2000/svg">
<rect x="0.339844" y="0.192871" width="115.05" height="108.949" rx="5.67149" fill="white"/>
<path d="M27.8984 43.2702C27.8984 43.2702 26.5185 42.2756 28.1743 40.9475L32.0322 37.4979C32.0322 37.4979 33.1361 36.3365 34.3032 37.3484L69.9033 64.3015V77.2261C69.9033 77.2261 69.8861 79.2556 67.2816 79.0314L27.8984 43.2702Z" fill="#2489CA"/>
<path d="M37.0755 51.6013L27.8995 59.9436C27.8995 59.9436 26.9566 60.645 27.8995 61.8984L32.1598 65.7735C32.1598 65.7735 33.1717 66.8601 34.6666 65.624L44.3945 58.2475L37.0755 51.6013Z" fill="#1070B3"/>
<path d="M53.1834 51.6702L70.0118 38.8203L69.9026 25.9646C69.9026 25.9646 69.1839 23.1589 66.7864 24.6193L44.3926 45.0009L53.1834 51.6702Z" fill="#0877B9"/>
<path d="M67.2816 79.0487C68.2589 80.0491 69.4433 79.7214 69.4433 79.7214L82.5576 73.2591C84.2365 72.1149 84.0007 70.6948 84.0007 70.6948V32.105C84.0007 30.4089 82.2644 29.8224 82.2644 29.8224L70.8979 24.3433C68.4142 22.8082 66.7871 24.6193 66.7871 24.6193C66.7871 24.6193 68.8799 23.1129 69.9033 25.9646V76.9904C69.9033 77.3411 69.8285 77.6861 69.679 77.9965C69.3801 78.6002 68.7304 79.1637 67.1723 78.9279L67.2816 79.0487Z" fill="#3C99D4"/>
</svg>
