<svg width="116" height="110" viewBox="0 0 116 110" fill="none" xmlns="http://www.w3.org/2000/svg">
<rect x="0.0371094" y="0.192871" width="115.05" height="108.949" rx="5.67149" fill="white"/>
<path d="M39.6519 73.858L35.6875 29.3605H79.272L75.3076 73.8339L57.4437 78.7834" fill="#E44D26"/>
<path d="M57.4805 74.9994V33.0128H75.2963L71.8965 70.975" fill="#F16529"/>
<path d="M43.7852 38.4546H57.4804V43.9087H49.7678L50.2724 49.4949H57.4804V54.9369H45.2748L43.7852 38.4546ZM45.5151 57.676H50.9932L51.3776 62.0368L57.4804 63.6706V69.365L46.2839 66.2415" fill="#EBEBEB"/>
<path d="M71.1282 38.4546H57.457V43.9087H70.6237L71.1282 38.4546ZM70.1311 49.4949H57.457V54.9489H64.1845L63.5478 62.0368L57.457 63.6706V69.3409L68.6295 66.2415" fill="white"/>
</svg>
