<svg width="116" height="109" viewBox="0 0 116 109" fill="none" xmlns="http://www.w3.org/2000/svg">
<rect x="0.550781" y="0.0233154" width="115.05" height="108.949" rx="5.67149" fill="white"/>
<path d="M88.0534 54.3075C88.0534 37.7512 74.6318 24.3297 58.0755 24.3297C41.5192 24.3297 28.0977 37.7512 28.0977 54.3075C28.0977 70.8638 41.5192 84.2854 58.0755 84.2854C74.6318 84.2854 88.0534 70.8638 88.0534 54.3075Z" fill="#052233"/>
<path d="M51.3986 75.2919C55.2347 75.2919 58.348 72.1785 58.348 68.3425V61.3931H51.3986C47.5626 61.3931 44.4492 64.5064 44.4492 68.3425C44.4492 72.1785 47.5626 75.2919 51.3986 75.2919Z" fill="#0ACF83"/>
<path d="M44.4492 54.4436C44.4492 50.6075 47.5626 47.4942 51.3986 47.4942H58.348V61.393H51.3986C47.5626 61.393 44.4492 58.2797 44.4492 54.4436Z" fill="#A259FF"/>
<path d="M44.4492 40.5449C44.4492 36.7089 47.5626 33.5955 51.3986 33.5955H58.348V47.4943H51.3986C47.5626 47.4943 44.4492 44.381 44.4492 40.5449Z" fill="#F24E1E"/>
<path d="M58.3496 33.5954H65.299C69.1351 33.5954 72.2485 36.7087 72.2485 40.5448C72.2485 44.3809 69.1351 47.4942 65.299 47.4942H58.3496V33.5954Z" fill="#FF7262"/>
<path d="M72.2485 54.4436C72.2485 58.2797 69.1351 61.393 65.299 61.393C61.4629 61.393 58.3496 58.2797 58.3496 54.4436C58.3496 50.6075 61.4629 47.4942 65.299 47.4942C69.1351 47.4942 72.2485 50.6075 72.2485 54.4436Z" fill="#1ABCFE"/>
</svg>
