<svg width="28" height="28" viewBox="0 0 28 28" fill="none" xmlns="http://www.w3.org/2000/svg">
<path d="M6.43871 4.40009C6.36524 4.31727 6.27607 4.24986 6.17636 4.20176C6.07664 4.15367 5.96838 4.12584 5.85783 4.11989C5.74728 4.11394 5.63666 4.13 5.53236 4.16712C5.42807 4.20424 5.33217 4.2617 5.25025 4.33615C5.16832 4.41061 5.10198 4.50058 5.05508 4.60086C5.00818 4.70114 4.98165 4.80974 4.97703 4.92035C4.97241 5.03096 4.98979 5.14138 5.02816 5.24523C5.06653 5.34907 5.12513 5.44427 5.20056 5.5253L7.21255 7.73911C3.41445 10.07 1.78102 13.6632 1.70886 13.8263C1.6613 13.9333 1.63672 14.0491 1.63672 14.1662C1.63672 14.2833 1.6613 14.399 1.70886 14.506C1.74546 14.5887 2.6312 16.5525 4.60031 18.5216C7.22405 21.1443 10.538 22.531 14.1855 22.531C16.0601 22.5417 17.9157 22.1557 19.6306 21.3985L21.9312 23.9302C22.0047 24.013 22.0939 24.0804 22.1936 24.1285C22.2933 24.1766 22.4016 24.2044 22.5121 24.2104C22.6226 24.2163 22.7333 24.2003 22.8376 24.1631C22.9419 24.126 23.0378 24.0686 23.1197 23.9941C23.2016 23.9197 23.268 23.8297 23.3148 23.7294C23.3617 23.6291 23.3883 23.5205 23.3929 23.4099C23.3975 23.2993 23.3801 23.1889 23.3418 23.085C23.3034 22.9812 23.2448 22.886 23.1694 22.805L6.43871 4.40009ZM11.3882 12.3309L15.7457 17.1256C15.0895 17.4708 14.3372 17.5883 13.607 17.4596C12.8768 17.331 12.21 16.9634 11.7113 16.4147C11.2126 15.866 10.9103 15.1672 10.8518 14.428C10.7933 13.6889 10.982 12.9512 11.3882 12.3309ZM14.1855 20.8578C10.9667 20.8578 8.15475 19.6876 5.82696 17.3808C4.87149 16.4312 4.05885 15.3481 3.41445 14.1651C3.9049 13.2459 5.47036 10.6734 8.36599 9.00131L10.2483 11.0666C9.51958 11.9999 9.14426 13.1608 9.1887 14.3441C9.23314 15.5274 9.69448 16.6569 10.4912 17.5329C11.2879 18.4089 12.3686 18.9751 13.5424 19.1314C14.7161 19.2876 15.9073 19.0239 16.9054 18.3867L18.4458 20.0808C17.0863 20.6024 15.6415 20.8659 14.1855 20.8578ZM14.8129 10.8784C14.5949 10.8368 14.4024 10.7103 14.2777 10.5267C14.1529 10.3432 14.1062 10.1176 14.1478 9.89959C14.1894 9.6816 14.3159 9.48906 14.4995 9.36433C14.6831 9.2396 14.9087 9.1929 15.1266 9.23451C16.1929 9.44121 17.1637 9.98707 17.8944 10.7906C18.625 11.5942 19.0763 12.6125 19.181 13.6935C19.2016 13.9144 19.1337 14.1345 18.9921 14.3053C18.8505 14.4761 18.6468 14.5837 18.4259 14.6043C18.3998 14.6059 18.3736 14.6059 18.3475 14.6043C18.1384 14.6052 17.9366 14.5278 17.7817 14.3873C17.6269 14.2468 17.5303 14.0533 17.5109 13.8451C17.4405 13.1261 17.1399 12.449 16.6538 11.9144C16.1677 11.3799 15.5221 11.0166 14.8129 10.8784ZM26.659 14.506C26.6151 14.6043 25.5557 16.9499 23.1704 19.0863C23.0889 19.1617 22.9932 19.22 22.889 19.258C22.7847 19.296 22.6739 19.3129 22.563 19.3076C22.4522 19.3024 22.3435 19.2751 22.2432 19.2274C22.143 19.1798 22.0533 19.1126 21.9793 19.0299C21.9053 18.9472 21.8484 18.8506 21.8121 18.7458C21.7758 18.6409 21.7607 18.5299 21.7677 18.4191C21.7747 18.3083 21.8037 18.2001 21.8529 18.1006C21.9022 18.0012 21.9708 17.9125 22.0546 17.8398C23.2248 16.7885 24.2079 15.5459 24.9618 14.1651C24.3159 12.9811 23.5015 11.8972 22.544 10.9474C20.2162 8.64262 17.4043 7.47245 14.1855 7.47245C13.5073 7.47162 12.8302 7.52653 12.161 7.63663C12.0521 7.65587 11.9406 7.65337 11.8327 7.62925C11.7249 7.60513 11.6229 7.55989 11.5326 7.49613C11.4423 7.43236 11.3656 7.35135 11.3068 7.25776C11.248 7.16417 11.2084 7.05987 11.1901 6.95087C11.1719 6.84187 11.1755 6.73033 11.2006 6.62271C11.2257 6.51509 11.2719 6.41351 11.3365 6.32384C11.4011 6.23417 11.4828 6.15818 11.5769 6.10028C11.671 6.04237 11.7757 6.00369 11.8849 5.98646C12.6453 5.86091 13.4148 5.7983 14.1855 5.79928C17.833 5.79928 21.1469 7.18592 23.7707 9.80966C25.7398 11.7788 26.6255 13.7437 26.6621 13.8263C26.7097 13.9333 26.7343 14.0491 26.7343 14.1662C26.7343 14.2833 26.7097 14.399 26.6621 14.506H26.659Z" fill="black"/>
<path d="M6.43871 4.40009C6.36524 4.31727 6.27607 4.24986 6.17636 4.20176C6.07664 4.15367 5.96838 4.12584 5.85783 4.11989C5.74728 4.11394 5.63666 4.13 5.53236 4.16712C5.42807 4.20424 5.33217 4.2617 5.25025 4.33615C5.16832 4.41061 5.10198 4.50058 5.05508 4.60086C5.00818 4.70114 4.98165 4.80974 4.97703 4.92035C4.97241 5.03096 4.98979 5.14138 5.02816 5.24523C5.06653 5.34907 5.12513 5.44427 5.20056 5.5253L7.21255 7.73911C3.41445 10.07 1.78102 13.6632 1.70886 13.8263C1.6613 13.9333 1.63672 14.0491 1.63672 14.1662C1.63672 14.2833 1.6613 14.399 1.70886 14.506C1.74546 14.5887 2.6312 16.5525 4.60031 18.5216C7.22405 21.1443 10.538 22.531 14.1855 22.531C16.0601 22.5417 17.9157 22.1557 19.6306 21.3985L21.9312 23.9302C22.0047 24.013 22.0939 24.0804 22.1936 24.1285C22.2933 24.1766 22.4016 24.2044 22.5121 24.2104C22.6226 24.2163 22.7333 24.2003 22.8376 24.1631C22.9419 24.126 23.0378 24.0686 23.1197 23.9941C23.2016 23.9197 23.268 23.8297 23.3148 23.7294C23.3617 23.6291 23.3883 23.5205 23.3929 23.4099C23.3975 23.2993 23.3801 23.1889 23.3418 23.085C23.3034 22.9812 23.2448 22.886 23.1694 22.805L6.43871 4.40009ZM11.3882 12.3309L15.7457 17.1256C15.0895 17.4708 14.3372 17.5883 13.607 17.4596C12.8768 17.331 12.21 16.9634 11.7113 16.4147C11.2126 15.866 10.9103 15.1672 10.8518 14.428C10.7933 13.6889 10.982 12.9512 11.3882 12.3309ZM14.1855 20.8578C10.9667 20.8578 8.15475 19.6876 5.82696 17.3808C4.87149 16.4312 4.05885 15.3481 3.41445 14.1651C3.9049 13.2459 5.47036 10.6734 8.36599 9.00131L10.2483 11.0666C9.51958 11.9999 9.14426 13.1608 9.1887 14.3441C9.23314 15.5274 9.69448 16.6569 10.4912 17.5329C11.2879 18.4089 12.3686 18.9751 13.5424 19.1314C14.7161 19.2876 15.9073 19.0239 16.9054 18.3867L18.4458 20.0808C17.0863 20.6024 15.6415 20.8659 14.1855 20.8578ZM14.8129 10.8784C14.5949 10.8368 14.4024 10.7103 14.2777 10.5267C14.1529 10.3432 14.1062 10.1176 14.1478 9.89959C14.1894 9.6816 14.3159 9.48906 14.4995 9.36433C14.6831 9.2396 14.9087 9.1929 15.1266 9.23451C16.1929 9.44121 17.1637 9.98707 17.8944 10.7906C18.625 11.5942 19.0763 12.6125 19.181 13.6935C19.2016 13.9144 19.1337 14.1345 18.9921 14.3053C18.8505 14.4761 18.6468 14.5837 18.4259 14.6043C18.3998 14.6059 18.3736 14.6059 18.3475 14.6043C18.1384 14.6052 17.9366 14.5278 17.7817 14.3873C17.6269 14.2468 17.5303 14.0533 17.5109 13.8451C17.4405 13.1261 17.1399 12.449 16.6538 11.9144C16.1677 11.3799 15.5221 11.0166 14.8129 10.8784ZM26.659 14.506C26.6151 14.6043 25.5557 16.9499 23.1704 19.0863C23.0889 19.1617 22.9932 19.22 22.889 19.258C22.7847 19.296 22.6739 19.3129 22.563 19.3076C22.4522 19.3024 22.3435 19.2751 22.2432 19.2274C22.143 19.1798 22.0533 19.1126 21.9793 19.0299C21.9053 18.9472 21.8484 18.8506 21.8121 18.7458C21.7758 18.6409 21.7607 18.5299 21.7677 18.4191C21.7747 18.3083 21.8037 18.2001 21.8529 18.1006C21.9022 18.0012 21.9708 17.9125 22.0546 17.8398C23.2248 16.7885 24.2079 15.5459 24.9618 14.1651C24.3159 12.9811 23.5015 11.8972 22.544 10.9474C20.2162 8.64262 17.4043 7.47245 14.1855 7.47245C13.5073 7.47162 12.8302 7.52653 12.161 7.63663C12.0521 7.65587 11.9406 7.65337 11.8327 7.62925C11.7249 7.60513 11.6229 7.55989 11.5326 7.49613C11.4423 7.43236 11.3656 7.35135 11.3068 7.25776C11.248 7.16417 11.2084 7.05987 11.1901 6.95087C11.1719 6.84187 11.1755 6.73033 11.2006 6.62271C11.2257 6.51509 11.2719 6.41351 11.3365 6.32384C11.4011 6.23417 11.4828 6.15818 11.5769 6.10028C11.671 6.04237 11.7757 6.00369 11.8849 5.98646C12.6453 5.86091 13.4148 5.7983 14.1855 5.79928C17.833 5.79928 21.1469 7.18592 23.7707 9.80966C25.7398 11.7788 26.6255 13.7437 26.6621 13.8263C26.7097 13.9333 26.7343 14.0491 26.7343 14.1662C26.7343 14.2833 26.7097 14.399 26.6621 14.506H26.659Z" fill="#FBFEFF"/>
</svg>
