<svg width="30" height="31" viewBox="0 0 30 31" fill="none" xmlns="http://www.w3.org/2000/svg">
<g clip-path="url(#clip0_726_21174)">
<path d="M6.22126 4.68914C6.14084 4.59849 6.04322 4.5247 5.93408 4.47205C5.82493 4.4194 5.70642 4.38894 5.58541 4.38243C5.4644 4.37592 5.34331 4.39349 5.22914 4.43412C5.11497 4.47476 5.01001 4.53765 4.92033 4.61915C4.83064 4.70065 4.75803 4.79914 4.70669 4.90891C4.65536 5.01868 4.62632 5.13755 4.62126 5.25863C4.6162 5.37971 4.63522 5.50058 4.67722 5.61425C4.71923 5.72792 4.78337 5.83213 4.86594 5.92083L7.06833 8.34414C2.91081 10.8957 1.1228 14.8288 1.04382 15.0074C0.991748 15.1245 0.964844 15.2512 0.964844 15.3794C0.964844 15.5076 0.991748 15.6343 1.04382 15.7514C1.08388 15.8419 2.05343 17.9916 4.20889 20.1471C7.08092 23.0179 10.7084 24.5358 14.7011 24.5358C16.7531 24.5475 18.7844 24.125 20.6615 23.2961L23.1799 26.0674C23.2603 26.158 23.3579 26.2318 23.467 26.2845C23.5762 26.3371 23.6947 26.3676 23.8157 26.3741C23.9367 26.3806 24.0578 26.363 24.172 26.3224C24.2861 26.2818 24.3911 26.2189 24.4808 26.1374C24.5705 26.0559 24.6431 25.9574 24.6944 25.8476C24.7458 25.7378 24.7748 25.619 24.7799 25.4979C24.7849 25.3768 24.7659 25.256 24.7239 25.1423C24.6819 25.0286 24.6177 24.9244 24.5352 24.8357L6.22126 4.68914ZM11.6391 13.3705L16.409 18.6189C15.6907 18.9968 14.8672 19.1254 14.0679 18.9845C13.2686 18.8437 12.5387 18.4414 11.9928 17.8407C11.4469 17.2401 11.116 16.4752 11.052 15.6661C10.9879 14.857 11.1945 14.0495 11.6391 13.3705ZM14.7011 22.7043C11.1778 22.7043 8.09969 21.4234 5.55161 18.8982C4.50572 17.8588 3.61619 16.6731 2.91081 15.3783C3.44767 14.3721 5.16127 11.5561 8.33092 9.72578L10.3914 11.9865C9.59367 13.0082 9.18284 14.2789 9.23149 15.5742C9.28013 16.8695 9.78513 18.1058 10.6572 19.0648C11.5293 20.0237 12.7123 20.6434 13.9971 20.8145C15.282 20.9855 16.5859 20.6968 17.6785 19.9994L19.3646 21.8538C17.8765 22.4247 16.295 22.7131 14.7011 22.7043ZM15.3879 11.7805C15.1493 11.735 14.9386 11.5965 14.802 11.3956C14.6655 11.1946 14.6144 10.9477 14.6599 10.7091C14.7055 10.4704 14.8439 10.2597 15.0449 10.1232C15.2458 9.98663 15.4927 9.93551 15.7314 9.98105C16.8985 10.2073 17.9612 10.8048 18.761 11.6844C19.5608 12.5641 20.0548 13.6787 20.1693 14.862C20.1919 15.1038 20.1176 15.3447 19.9626 15.5317C19.8076 15.7187 19.5847 15.8364 19.3429 15.859C19.3143 15.8607 19.2856 15.8607 19.257 15.859C19.0281 15.86 18.8072 15.7752 18.6377 15.6214C18.4682 15.4676 18.3624 15.2559 18.3412 15.028C18.2642 14.2409 17.9351 13.4997 17.403 12.9146C16.8709 12.3295 16.1642 11.9318 15.3879 11.7805ZM28.355 15.7514C28.3069 15.859 27.1474 18.4266 24.5363 20.7652C24.4471 20.8476 24.3424 20.9115 24.2282 20.9531C24.1141 20.9947 23.9928 21.0131 23.8715 21.0074C23.7501 21.0016 23.6311 20.9718 23.5214 20.9196C23.4117 20.8674 23.3135 20.7939 23.2325 20.7034C23.1514 20.6129 23.0892 20.5072 23.0495 20.3924C23.0097 20.2776 22.9932 20.156 23.0009 20.0348C23.0085 19.9136 23.0403 19.7951 23.0942 19.6862C23.1481 19.5773 23.2231 19.4803 23.3149 19.4007C24.5959 18.2499 25.672 16.8897 26.4972 15.3783C25.7902 14.0822 24.8988 12.8958 23.8506 11.8561C21.3026 9.33315 18.2245 8.05224 14.7011 8.05224C13.9587 8.05134 13.2175 8.11144 12.485 8.23196C12.3659 8.25302 12.2438 8.25028 12.1257 8.22388C12.0076 8.19748 11.896 8.14796 11.7972 8.07816C11.6984 8.00836 11.6144 7.91968 11.55 7.81724C11.4857 7.71479 11.4423 7.60062 11.4223 7.4813C11.4024 7.36199 11.4063 7.2399 11.4337 7.12209C11.4612 7.00429 11.5118 6.89309 11.5825 6.79494C11.6532 6.69678 11.7427 6.61361 11.8457 6.55022C11.9487 6.48683 12.0633 6.44449 12.1828 6.42564C13.0152 6.2882 13.8575 6.21966 14.7011 6.22074C18.6938 6.22074 22.3213 7.7386 25.1934 10.6106C27.3488 12.7661 28.3184 14.917 28.3584 15.0074C28.4105 15.1245 28.4374 15.2512 28.4374 15.3794C28.4374 15.5076 28.4105 15.6343 28.3584 15.7514H28.355Z" fill="black"/>
<path d="M6.22126 4.68914C6.14084 4.59849 6.04322 4.5247 5.93408 4.47205C5.82493 4.4194 5.70642 4.38894 5.58541 4.38243C5.4644 4.37592 5.34331 4.39349 5.22914 4.43412C5.11497 4.47476 5.01001 4.53765 4.92033 4.61915C4.83064 4.70065 4.75803 4.79914 4.70669 4.90891C4.65536 5.01868 4.62632 5.13755 4.62126 5.25863C4.6162 5.37971 4.63522 5.50058 4.67722 5.61425C4.71923 5.72792 4.78337 5.83213 4.86594 5.92083L7.06833 8.34414C2.91081 10.8957 1.1228 14.8288 1.04382 15.0074C0.991748 15.1245 0.964844 15.2512 0.964844 15.3794C0.964844 15.5076 0.991748 15.6343 1.04382 15.7514C1.08388 15.8419 2.05343 17.9916 4.20889 20.1471C7.08092 23.0179 10.7084 24.5358 14.7011 24.5358C16.7531 24.5475 18.7844 24.125 20.6615 23.2961L23.1799 26.0674C23.2603 26.158 23.3579 26.2318 23.467 26.2845C23.5762 26.3371 23.6947 26.3676 23.8157 26.3741C23.9367 26.3806 24.0578 26.363 24.172 26.3224C24.2861 26.2818 24.3911 26.2189 24.4808 26.1374C24.5705 26.0559 24.6431 25.9574 24.6944 25.8476C24.7458 25.7378 24.7748 25.619 24.7799 25.4979C24.7849 25.3768 24.7659 25.256 24.7239 25.1423C24.6819 25.0286 24.6177 24.9244 24.5352 24.8357L6.22126 4.68914ZM11.6391 13.3705L16.409 18.6189C15.6907 18.9968 14.8672 19.1254 14.0679 18.9845C13.2686 18.8437 12.5387 18.4414 11.9928 17.8407C11.4469 17.2401 11.116 16.4752 11.052 15.6661C10.9879 14.857 11.1945 14.0495 11.6391 13.3705ZM14.7011 22.7043C11.1778 22.7043 8.09969 21.4234 5.55161 18.8982C4.50572 17.8588 3.61619 16.6731 2.91081 15.3783C3.44767 14.3721 5.16127 11.5561 8.33092 9.72578L10.3914 11.9865C9.59367 13.0082 9.18284 14.2789 9.23149 15.5742C9.28013 16.8695 9.78513 18.1058 10.6572 19.0648C11.5293 20.0237 12.7123 20.6434 13.9971 20.8145C15.282 20.9855 16.5859 20.6968 17.6785 19.9994L19.3646 21.8538C17.8765 22.4247 16.295 22.7131 14.7011 22.7043ZM15.3879 11.7805C15.1493 11.735 14.9386 11.5965 14.802 11.3956C14.6655 11.1946 14.6144 10.9477 14.6599 10.7091C14.7055 10.4704 14.8439 10.2597 15.0449 10.1232C15.2458 9.98663 15.4927 9.93551 15.7314 9.98105C16.8985 10.2073 17.9612 10.8048 18.761 11.6844C19.5608 12.5641 20.0548 13.6787 20.1693 14.862C20.1919 15.1038 20.1176 15.3447 19.9626 15.5317C19.8076 15.7187 19.5847 15.8364 19.3429 15.859C19.3143 15.8607 19.2856 15.8607 19.257 15.859C19.0281 15.86 18.8072 15.7752 18.6377 15.6214C18.4682 15.4676 18.3624 15.2559 18.3412 15.028C18.2642 14.2409 17.9351 13.4997 17.403 12.9146C16.8709 12.3295 16.1642 11.9318 15.3879 11.7805ZM28.355 15.7514C28.3069 15.859 27.1474 18.4266 24.5363 20.7652C24.4471 20.8476 24.3424 20.9115 24.2282 20.9531C24.1141 20.9947 23.9928 21.0131 23.8715 21.0074C23.7501 21.0016 23.6311 20.9718 23.5214 20.9196C23.4117 20.8674 23.3135 20.7939 23.2325 20.7034C23.1514 20.6129 23.0892 20.5072 23.0495 20.3924C23.0097 20.2776 22.9932 20.156 23.0009 20.0348C23.0085 19.9136 23.0403 19.7951 23.0942 19.6862C23.1481 19.5773 23.2231 19.4803 23.3149 19.4007C24.5959 18.2499 25.672 16.8897 26.4972 15.3783C25.7902 14.0822 24.8988 12.8958 23.8506 11.8561C21.3026 9.33315 18.2245 8.05224 14.7011 8.05224C13.9587 8.05134 13.2175 8.11144 12.485 8.23196C12.3659 8.25302 12.2438 8.25028 12.1257 8.22388C12.0076 8.19748 11.896 8.14796 11.7972 8.07816C11.6984 8.00836 11.6144 7.91968 11.55 7.81724C11.4857 7.71479 11.4423 7.60062 11.4223 7.4813C11.4024 7.36199 11.4063 7.2399 11.4337 7.12209C11.4612 7.00429 11.5118 6.89309 11.5825 6.79494C11.6532 6.69678 11.7427 6.61361 11.8457 6.55022C11.9487 6.48683 12.0633 6.44449 12.1828 6.42564C13.0152 6.2882 13.8575 6.21966 14.7011 6.22074C18.6938 6.22074 22.3213 7.7386 25.1934 10.6106C27.3488 12.7661 28.3184 14.917 28.3584 15.0074C28.4105 15.1245 28.4374 15.2512 28.4374 15.3794C28.4374 15.5076 28.4105 15.6343 28.3584 15.7514H28.355Z" fill="#FBFEFF"/>
</g>
<defs>
<clipPath id="clip0_726_21174">
<rect width="29.3041" height="29.3041" fill="white" transform="translate(0.0488281 0.72522)"/>
</clipPath>
</defs>
</svg>
