<svg width="22" height="29" viewBox="0 0 22 29" fill="none" xmlns="http://www.w3.org/2000/svg">
<rect x="1.42773" y="1.69971" width="14.6388" height="25.374" rx="1.95184" fill="url(#paint0_linear_4_4110)"/>
<path d="M3.12678 0.723877C1.59297 0.723877 0.341797 1.98247 0.341797 3.51856V25.255C0.341797 26.7911 1.59297 28.0497 3.12678 28.0497H14.257C15.7908 28.0497 17.042 26.7911 17.042 25.255V23.7121C17.0432 23.6298 17.028 23.5481 16.9973 23.4718C16.9666 23.3954 16.921 23.3259 16.8632 23.2673C16.8054 23.2087 16.7366 23.1621 16.6607 23.1304C16.5847 23.0986 16.5033 23.0822 16.4209 23.0822C16.3386 23.0822 16.2572 23.0986 16.1812 23.1304C16.1053 23.1621 16.0365 23.2087 15.9787 23.2673C15.9209 23.3259 15.8753 23.3954 15.8446 23.4718C15.814 23.5481 15.7987 23.6298 15.7999 23.7121V25.255C15.7999 26.1273 15.1213 26.8076 14.257 26.8076H3.12678C2.26244 26.8076 1.58388 26.1273 1.58388 25.255V3.51856C1.58388 2.64626 2.26244 1.96596 3.12678 1.96596H14.257C15.1213 1.96596 15.7999 2.64626 15.7999 3.51856V5.30406C15.7987 5.38635 15.814 5.46806 15.8446 5.54443C15.8753 5.6208 15.9209 5.6903 15.9787 5.74891C16.0365 5.80752 16.1053 5.85406 16.1812 5.88582C16.2572 5.91759 16.3386 5.93395 16.4209 5.93395C16.5033 5.93395 16.5847 5.91759 16.6607 5.88582C16.7366 5.85406 16.8054 5.80752 16.8632 5.74891C16.921 5.6903 16.9666 5.6208 16.9973 5.54443C17.028 5.46806 17.0432 5.38635 17.042 5.30406V3.51856C17.042 1.98247 15.7908 0.723877 14.257 0.723877H3.12678ZM6.66866 24.7116C6.58709 24.7154 6.50707 24.7353 6.43317 24.77C6.35927 24.8047 6.29294 24.8537 6.23796 24.9141C6.18298 24.9744 6.14043 25.045 6.11275 25.1219C6.08506 25.1987 6.07278 25.2802 6.0766 25.3618C6.08043 25.4433 6.10028 25.5233 6.13503 25.5972C6.16978 25.6711 6.21875 25.7375 6.27913 25.7924C6.33952 25.8474 6.41014 25.8899 6.48697 25.9176C6.56379 25.9453 6.64531 25.9575 6.72688 25.9537H10.6569C10.7392 25.9549 10.8209 25.9397 10.8973 25.909C10.9736 25.8783 11.0432 25.8327 11.1018 25.7749C11.1604 25.7171 11.2069 25.6483 11.2387 25.5724C11.2704 25.4964 11.2868 25.415 11.2868 25.3326C11.2868 25.2503 11.2704 25.1689 11.2387 25.0929C11.2069 25.017 11.1604 24.9482 11.1018 24.8904C11.0432 24.8326 10.9736 24.787 10.8973 24.7563C10.8209 24.7256 10.7392 24.7104 10.6569 24.7116H6.72688C6.70748 24.7107 6.68805 24.7107 6.66866 24.7116Z" fill="#2B8DFF"/>
<path d="M15.8432 8.53101C15.8272 8.5329 15.8114 8.53554 15.7957 8.53892C15.7179 8.54299 15.6421 8.56465 15.5741 8.60225L10.4683 11.5153C10.3886 11.5593 10.3223 11.6236 10.2763 11.7016C10.2304 11.7796 10.2065 11.8684 10.207 11.9586V17.7927C10.2079 17.8816 10.2325 17.9687 10.2784 18.0452C10.3242 18.1216 10.3898 18.1847 10.4683 18.228L15.5741 21.149C15.6521 21.1942 15.7409 21.218 15.8313 21.218C15.9217 21.218 16.0105 21.1942 16.0886 21.149L21.1944 18.228C21.2729 18.1847 21.3384 18.1216 21.3843 18.0452C21.4302 17.9687 21.4548 17.8816 21.4556 17.7927V11.9586C21.4562 11.8684 21.4322 11.7796 21.3863 11.7016C21.3403 11.6236 21.2741 11.5593 21.1944 11.5153L16.0886 8.60225C16.0142 8.55825 15.9298 8.53373 15.8432 8.53101ZM15.8274 9.62341L20.4344 12.2515V17.4998L15.8274 20.1279L11.2282 17.4998V12.8294L15.3207 15.1567V18.6001C15.3198 18.6672 15.3322 18.7339 15.3572 18.7962C15.3823 18.8585 15.4194 18.9152 15.4666 18.963C15.5137 19.0108 15.5699 19.0488 15.6318 19.0747C15.6938 19.1006 15.7602 19.1139 15.8274 19.1139C15.8945 19.1139 15.961 19.1006 16.0229 19.0747C16.0848 19.0488 16.141 19.0108 16.1882 18.963C16.2353 18.9152 16.2725 18.8585 16.2975 18.7962C16.3225 18.7339 16.3349 18.6672 16.334 18.6001V15.1725L19.3658 13.4389C19.4823 13.3717 19.5674 13.261 19.6023 13.1311C19.6371 13.0012 19.619 12.8628 19.5518 12.7462C19.4846 12.6297 19.3739 12.5447 19.244 12.5098C19.1141 12.4749 18.9757 12.493 18.8592 12.5602L15.8353 14.2859L11.7507 11.9507L15.8274 9.62341Z" fill="#2B8DFF"/>
<defs>
<linearGradient id="paint0_linear_4_4110" x1="8.74715" y1="1.69971" x2="8.74715" y2="27.0737" gradientUnits="userSpaceOnUse">
<stop stop-color="#444445"/>
<stop offset="1" stop-color="#050505"/>
</linearGradient>
</defs>
</svg>
