<svg width="36" height="43" viewBox="0 0 36 43" fill="none" xmlns="http://www.w3.org/2000/svg">
<path d="M34.1604 18.2742C34.1604 20.1095 35.9514 22.2041 35.4158 23.8587C34.8564 25.5712 32.1579 26.2125 31.1209 27.6385C31.0288 27.7716 30.9435 27.908 30.8684 28.0581C30.0974 29.5626 30.1623 31.9369 28.8489 32.8921C27.4229 33.9292 24.8711 32.875 23.1552 33.4311C22.7731 33.5539 22.4081 33.7757 22.0465 34.0383C20.8218 34.9321 19.6448 36.3376 18.2325 36.3376C16.8202 36.3376 15.6398 34.9287 14.4185 34.0383C14.0569 33.7757 13.6885 33.5539 13.3098 33.4311C11.5973 32.8716 9.04215 33.9292 7.61617 32.8921C6.30278 31.9403 6.36759 29.5626 5.59661 28.0581C5.52156 27.908 5.43628 27.7716 5.34417 27.6385C4.30709 26.2125 1.60525 25.5712 1.04919 23.8587C0.513595 22.2041 2.30459 20.1095 2.30459 18.2742C2.30459 16.4388 0.513595 14.3442 1.04919 12.6897C1.60866 10.9771 4.30709 10.3358 5.34417 8.90982C6.39488 7.46679 6.17314 4.70695 7.61617 3.65623C9.04215 2.61916 11.5939 3.67329 13.3098 3.11722C14.9576 2.58163 16.3938 0.210693 18.2291 0.210693C20.0644 0.210693 21.5007 2.58163 23.1552 3.12064C24.8677 3.68011 27.4229 2.62257 28.8489 3.65964C30.2919 4.70695 30.0736 7.46679 31.1209 8.91323C32.1579 10.3392 34.8598 10.9805 35.4158 12.6931C35.9514 14.3442 34.1604 16.4388 34.1604 18.2742Z" fill="url(#paint0_linear_4_4231)"/>
<path d="M18.2296 30.6675C25.0745 30.6675 30.6233 25.1187 30.6233 18.2738C30.6233 11.429 25.0745 5.88013 18.2296 5.88013C11.3848 5.88013 5.83594 11.429 5.83594 18.2738C5.83594 25.1187 11.3848 30.6675 18.2296 30.6675Z" fill="#0E1E3C"/>
<path d="M19.1936 11.4306L20.5957 14.2723C20.7526 14.5896 21.0562 14.8113 21.4042 14.8625L24.5427 15.3196C25.4262 15.4493 25.7776 16.5307 25.1397 17.155L22.8711 19.369C22.6186 19.6146 22.5026 19.9728 22.5606 20.3208L23.0962 23.4456C23.2463 24.3258 22.3252 24.9944 21.5338 24.5782L18.7296 23.1045C18.4158 22.9407 18.0405 22.9407 17.7301 23.1045L14.9259 24.5782C14.1378 24.9944 13.2133 24.3224 13.3634 23.4456L13.899 20.3208C13.9604 19.9728 13.8445 19.6146 13.5886 19.369L11.32 17.155C10.6821 16.5341 11.0334 15.4493 11.917 15.3196L15.0555 14.8625C15.4069 14.8113 15.7071 14.593 15.864 14.2723L17.2661 11.4306C17.6584 10.6289 18.7978 10.6289 19.1936 11.4306Z" fill="#FFFEEB"/>
<path d="M14.4146 34.0378L11.1772 42.3412L6.91293 38.9742L1.49219 38.5682L5.5893 28.0576C6.36029 29.5621 6.29547 31.9364 7.60886 32.8916C9.03484 33.9287 11.5866 32.8745 13.3025 33.4306C13.6846 33.5534 14.0496 33.7752 14.4146 34.0378Z" fill="#D8B46B"/>
<path d="M34.9615 38.5682L29.5408 38.9742L25.2765 42.3412L22.0391 34.0378C22.4007 33.7752 22.7691 33.5534 23.1478 33.4306C24.8603 32.8711 27.4155 33.9287 28.8414 32.8916C30.1548 31.9398 30.09 29.5621 30.861 28.0576L34.9615 38.5682Z" fill="#D8B46B"/>
<defs>
<linearGradient id="paint0_linear_4_4231" x1="0.949219" y1="18.2742" x2="33.6557" y2="18.2742" gradientUnits="userSpaceOnUse">
<stop offset="0.201063" stop-color="#FCE1AE"/>
<stop offset="1" stop-color="#A77610"/>
</linearGradient>
</defs>
</svg>
