<svg width="41" height="43" viewBox="0 0 41 43" fill="none" xmlns="http://www.w3.org/2000/svg">
<path d="M28.1815 15.2123C28.0251 15.2123 27.8688 15.1547 27.7454 15.0313C27.5067 14.7927 27.5067 14.3977 27.7454 14.1591L32.954 8.95045C33.1926 8.71183 33.5876 8.71183 33.8262 8.95045C34.0649 9.18908 34.0649 9.58405 33.8262 9.82268L28.6176 15.0313C28.4942 15.1547 28.3378 15.2123 28.1815 15.2123Z" fill="url(#paint0_linear_4_4238)"/>
<path d="M29.5067 21.1532C29.194 21.1532 28.9225 20.9146 28.8896 20.5937C28.8567 20.2563 29.1117 19.9601 29.4491 19.9272L33.7033 19.5651C34.0406 19.5322 34.3369 19.7873 34.3698 20.1247C34.4027 20.462 34.1476 20.7583 33.8102 20.7912L29.5561 21.1532C29.5479 21.1532 29.5232 21.1532 29.5067 21.1532Z" fill="url(#paint1_linear_4_4238)"/>
<path d="M34.0743 27.6042C34.0245 27.6042 33.9753 27.5929 33.9259 27.5869L26.0844 26.625C25.747 26.5839 25.5084 26.2794 25.5495 25.9421C25.5907 25.6047 25.8951 25.3661 26.2325 25.4072L34.1483 26.3782C34.4857 26.4193 34.7243 26.7238 34.6832 27.0611C34.6503 27.3738 34.3869 27.6042 34.0743 27.6042Z" fill="url(#paint2_linear_4_4238)"/>
<path d="M25.4666 34.4833C25.3102 34.4833 25.1539 34.4257 25.0304 34.3023L22.0188 31.2824C21.7802 31.0438 21.7802 30.6488 22.0188 30.4102C22.2574 30.1715 22.6524 30.1715 22.891 30.4102L25.9027 33.43C26.1413 33.6687 26.1413 34.0636 25.9027 34.3023C25.7875 34.4257 25.6311 34.4833 25.4666 34.4833Z" fill="url(#paint3_linear_4_4238)"/>
<path d="M22.3481 13.9945C22.3316 13.9945 22.3152 13.9945 22.2987 13.9945C21.9614 13.9616 21.7063 13.6654 21.7392 13.328L22.1012 9.07387C22.1342 8.7365 22.4304 8.48142 22.7678 8.51434C23.1051 8.54725 23.3602 8.84348 23.3273 9.18084L22.9652 13.435C22.9323 13.7477 22.6608 13.9945 22.3481 13.9945Z" fill="url(#paint4_linear_4_4238)"/>
<path d="M16.8775 17.3435C16.573 17.3435 16.3015 17.1131 16.2685 16.8004L15.2976 8.8846C15.2564 8.54723 15.4951 8.24278 15.8324 8.20163C16.1698 8.16049 16.4743 8.39912 16.5154 8.73649L17.4864 16.6523C17.5244 16.9646 17.3229 17.2486 17.0252 17.3218C16.9768 17.3337 16.9272 17.3435 16.8775 17.3435Z" fill="url(#paint5_linear_4_4238)"/>
<path d="M12.0373 21.0461C11.8809 21.0461 11.7246 20.9885 11.6012 20.8651L8.58131 17.8534C8.34269 17.6148 8.34269 17.2198 8.58131 16.9812C8.81994 16.7426 9.21491 16.7426 9.45354 16.9812L12.4734 19.9928C12.712 20.2315 12.712 20.6264 12.4734 20.8651C12.35 20.9803 12.1936 21.0461 12.0373 21.0461Z" fill="url(#paint6_linear_4_4238)"/>
<path d="M38.3681 4.44108L37.8415 5.98804C37.8272 6.04537 37.8757 6.09407 37.9111 6.14138L38.8371 7.37866C38.8865 7.43626 38.8371 7.52677 38.7631 7.52677L37.1338 7.50209C37.1009 7.50209 37.0762 7.51854 37.0598 7.54323L36.1217 8.87625C36.0806 8.94208 35.9818 8.92562 35.9572 8.85156L35.4717 7.29637C35.4635 7.26346 35.4388 7.247 35.4141 7.23878L33.8589 6.75329C33.7848 6.72861 33.7684 6.62987 33.8342 6.58872L35.1425 5.64245C35.1672 5.62599 35.1837 5.59307 35.1837 5.56839L35.159 3.93914C35.159 3.86509 35.2495 3.81572 35.3071 3.86509L36.6154 4.84428C36.6401 4.86074 36.673 4.86897 36.6977 4.86074L38.2447 4.33411C38.3187 4.3012 38.3928 4.36703 38.3681 4.44108Z" fill="url(#paint7_linear_4_4238)"/>
<path d="M39.6697 27.802L39.1431 29.349C39.1288 29.4063 39.1773 29.455 39.2127 29.5023L40.1388 30.7396C40.1881 30.7972 40.1388 30.8877 40.0647 30.8877L38.4355 30.863C38.4025 30.863 38.3779 30.8795 38.3614 30.9041L37.4069 32.2372C37.3657 32.303 37.267 32.2865 37.2423 32.2125L36.7568 30.6573C36.7486 30.6244 36.7239 30.6079 36.6992 30.5997L35.144 30.1142C35.07 30.0895 35.0535 29.9908 35.1194 29.9496L36.4524 29.0116C36.4771 28.9951 36.4935 28.9622 36.4935 28.9375L36.4688 27.3083C36.4688 27.2342 36.5594 27.1849 36.617 27.2342L37.9253 28.2134C37.95 28.2299 37.9829 28.2381 38.0076 28.2299L39.3652 27.7677C39.491 27.7249 39.7117 27.6759 39.6697 27.802Z" fill="url(#paint8_linear_4_4238)"/>
<path d="M13.6498 4.44108L13.1232 5.98804C13.1088 6.04537 13.1574 6.09407 13.1928 6.14138L14.1188 7.37866C14.1682 7.43626 14.1188 7.52677 14.0447 7.52677L12.4155 7.50209C12.3826 7.50209 12.3579 7.51854 12.3414 7.54323L11.4034 8.87625C11.3623 8.94208 11.2635 8.92562 11.2388 8.85156L10.7451 7.29637C10.7369 7.26346 10.7122 7.247 10.6875 7.23878L9.13233 6.75329C9.05827 6.72861 9.04182 6.62987 9.10764 6.58872L10.4324 5.64245C10.4571 5.62599 10.4736 5.59307 10.4736 5.56839L10.4489 3.93914C10.4489 3.86509 10.5394 3.81572 10.597 3.86509L11.9053 4.84428C11.93 4.86074 11.9629 4.86897 11.9876 4.86074L13.5346 4.33411C13.6086 4.3012 13.6745 4.37526 13.6498 4.44108Z" fill="url(#paint9_linear_4_4238)"/>
<path d="M40.4586 18.9975C39.3395 18.1418 38.8212 18.1418 37.6938 18.9975C37.5869 19.0798 37.4552 18.9482 37.5375 18.8412C38.3933 17.7221 38.3933 17.2037 37.5375 16.0764C37.4552 15.9694 37.5869 15.8378 37.6938 15.9201C38.8129 16.7758 39.3313 16.7758 40.4586 15.9201C40.5656 15.8378 40.6972 15.9694 40.615 16.0764C39.7592 17.1955 39.7592 17.7139 40.615 18.8412C40.689 18.9399 40.5574 19.0716 40.4586 18.9975Z" fill="url(#paint10_linear_4_4238)"/>
<path d="M24.775 3.31394C23.656 2.45817 23.1376 2.45817 22.0103 3.31394C21.9033 3.39622 21.7716 3.26457 21.8539 3.1576C22.7097 2.03852 22.7097 1.52013 21.8539 0.39282C21.7716 0.28585 21.9033 0.154194 22.0103 0.236479C23.1293 1.09224 23.6477 1.09224 24.775 0.236479C24.882 0.154194 25.0137 0.28585 24.9314 0.39282C24.0756 1.5119 24.0756 2.03029 24.9314 3.1576C25.0054 3.25634 24.8738 3.388 24.775 3.31394Z" fill="url(#paint11_linear_4_4238)"/>
<path d="M27.441 39.7168C26.322 38.861 25.8036 38.861 24.6763 39.7168C24.5693 39.7991 24.4376 39.6674 24.5199 39.5604C25.3757 38.4414 25.3757 37.923 24.5199 36.7957C24.4376 36.6887 24.5693 36.557 24.6763 36.6393C25.7953 37.4951 26.3137 37.4951 27.441 36.6393C27.548 36.557 27.6797 36.6887 27.5974 36.7957C26.7416 37.9147 26.7416 38.4331 27.5974 39.5604C27.6797 39.6674 27.5398 39.7991 27.441 39.7168Z" fill="url(#paint12_linear_4_4238)"/>
<path d="M4.76331 16.1338C3.64423 15.278 3.12584 15.278 1.99853 16.1338C1.89156 16.216 1.75991 16.0844 1.84219 15.9774C2.69796 14.8583 2.69796 14.3399 1.84219 13.2126C1.75991 13.1057 1.89156 12.974 1.99853 13.0563C3.11761 13.9121 3.63601 13.9121 4.76331 13.0563C4.87028 12.974 5.00194 13.1057 4.91965 13.2126C4.06389 14.3317 4.06389 14.8501 4.91965 15.9774C5.00194 16.0762 4.87028 16.2078 4.76331 16.1338Z" fill="url(#paint13_linear_4_4238)"/>
<path d="M1.16 42.3416C1.00366 42.3416 0.847319 42.284 0.723892 42.1606C0.485265 41.922 0.485265 41.527 0.723892 41.2884L10.1702 31.8421C10.4088 31.6034 10.8038 31.6034 11.0424 31.8421C11.2811 32.0807 11.2811 32.4757 11.0424 32.7143L1.59611 42.1606C1.47269 42.284 1.31634 42.3416 1.16 42.3416Z" fill="url(#paint14_linear_4_4238)"/>
<path d="M10.6057 32.278C9.77465 31.4469 9.77465 30.1057 10.6057 29.2746L22.2902 17.5901C23.1213 16.759 24.4625 16.759 25.2936 17.5901C26.1247 18.4212 26.1247 19.7624 25.2936 20.5935L13.6091 32.278C12.7781 33.1091 11.4286 33.1091 10.6057 32.278Z" fill="url(#paint15_linear_4_4238)"/>
<path d="M25.2939 17.59C25.2712 17.5672 25.2343 17.5672 25.2116 17.59L10.6021 32.1912C10.577 32.2164 10.5727 32.261 10.5978 32.2861C11.4289 33.1172 12.7701 33.1172 13.6012 32.2861L25.2857 20.6016C25.6971 20.1902 25.911 19.6471 25.911 19.0958C25.911 18.5527 25.7053 18.0096 25.2939 17.59Z" fill="url(#paint16_linear_4_4238)"/>
<defs>
<linearGradient id="paint0_linear_4_4238" x1="27.5664" y1="11.9919" x2="34.0052" y2="11.9919" gradientUnits="userSpaceOnUse">
<stop stop-color="#ECF105"/>
<stop offset="0.4688" stop-color="#DA76EB"/>
<stop offset="1" stop-color="#33E3F6"/>
</linearGradient>
<linearGradient id="paint1_linear_4_4238" x1="28.8867" y1="20.3577" x2="34.3726" y2="20.3577" gradientUnits="userSpaceOnUse">
<stop stop-color="#ECF105"/>
<stop offset="0.4688" stop-color="#DA76EB"/>
<stop offset="1" stop-color="#33E3F6"/>
</linearGradient>
<linearGradient id="paint2_linear_4_4238" x1="25.5449" y1="26.5034" x2="34.6878" y2="26.5034" gradientUnits="userSpaceOnUse">
<stop stop-color="#ECF105"/>
<stop offset="0.4688" stop-color="#DA76EB"/>
<stop offset="1" stop-color="#33E3F6"/>
</linearGradient>
<linearGradient id="paint3_linear_4_4238" x1="21.8398" y1="32.3572" x2="26.0816" y2="32.3572" gradientUnits="userSpaceOnUse">
<stop stop-color="#ECF105"/>
<stop offset="0.4688" stop-color="#DA76EB"/>
<stop offset="1" stop-color="#33E3F6"/>
</linearGradient>
<linearGradient id="paint4_linear_4_4238" x1="21.7363" y1="11.253" x2="23.3302" y2="11.253" gradientUnits="userSpaceOnUse">
<stop stop-color="#ECF105"/>
<stop offset="0.4688" stop-color="#DA76EB"/>
<stop offset="1" stop-color="#33E3F6"/>
</linearGradient>
<linearGradient id="paint5_linear_4_4238" x1="15.293" y1="12.7703" x2="17.491" y2="12.7703" gradientUnits="userSpaceOnUse">
<stop stop-color="#ECF105"/>
<stop offset="0.4688" stop-color="#DA76EB"/>
<stop offset="1" stop-color="#33E3F6"/>
</linearGradient>
<linearGradient id="paint6_linear_4_4238" x1="8.40234" y1="18.9242" x2="12.6524" y2="18.9242" gradientUnits="userSpaceOnUse">
<stop stop-color="#ECF105"/>
<stop offset="0.4688" stop-color="#DA76EB"/>
<stop offset="1" stop-color="#33E3F6"/>
</linearGradient>
<linearGradient id="paint7_linear_4_4238" x1="33.793" y1="6.38135" x2="38.857" y2="6.38135" gradientUnits="userSpaceOnUse">
<stop stop-color="#ECF105"/>
<stop offset="0.4688" stop-color="#DA76EB"/>
<stop offset="1" stop-color="#33E3F6"/>
</linearGradient>
<linearGradient id="paint8_linear_4_4238" x1="35.0781" y1="29.7464" x2="40.1586" y2="29.7464" gradientUnits="userSpaceOnUse">
<stop stop-color="#ECF105"/>
<stop offset="0.4688" stop-color="#DA76EB"/>
<stop offset="1" stop-color="#33E3F6"/>
</linearGradient>
<linearGradient id="paint9_linear_4_4238" x1="9.06641" y1="6.38135" x2="14.1387" y2="6.38135" gradientUnits="userSpaceOnUse">
<stop stop-color="#ECF105"/>
<stop offset="0.4688" stop-color="#DA76EB"/>
<stop offset="1" stop-color="#33E3F6"/>
</linearGradient>
<linearGradient id="paint10_linear_4_4238" x1="37.5117" y1="17.4588" x2="40.6407" y2="17.4588" gradientUnits="userSpaceOnUse">
<stop stop-color="#ECF105"/>
<stop offset="0.4688" stop-color="#DA76EB"/>
<stop offset="1" stop-color="#33E3F6"/>
</linearGradient>
<linearGradient id="paint11_linear_4_4238" x1="21.8281" y1="1.77521" x2="24.9572" y2="1.77521" gradientUnits="userSpaceOnUse">
<stop stop-color="#ECF105"/>
<stop offset="0.4688" stop-color="#DA76EB"/>
<stop offset="1" stop-color="#33E3F6"/>
</linearGradient>
<linearGradient id="paint12_linear_4_4238" x1="24.4941" y1="38.178" x2="27.6232" y2="38.178" gradientUnits="userSpaceOnUse">
<stop stop-color="#ECF105"/>
<stop offset="0.4688" stop-color="#DA76EB"/>
<stop offset="1" stop-color="#33E3F6"/>
</linearGradient>
<linearGradient id="paint13_linear_4_4238" x1="1.81641" y1="14.595" x2="4.94544" y2="14.595" gradientUnits="userSpaceOnUse">
<stop stop-color="#ECF105"/>
<stop offset="0.4688" stop-color="#DA76EB"/>
<stop offset="1" stop-color="#33E3F6"/>
</linearGradient>
<linearGradient id="paint14_linear_4_4238" x1="0.544922" y1="37.0024" x2="11.2214" y2="37.0024" gradientUnits="userSpaceOnUse">
<stop stop-color="#ECF105"/>
<stop offset="0.4688" stop-color="#DA76EB"/>
<stop offset="1" stop-color="#33E3F6"/>
</linearGradient>
<linearGradient id="paint15_linear_4_4238" x1="9.98242" y1="24.934" x2="25.9169" y2="24.934" gradientUnits="userSpaceOnUse">
<stop stop-color="#ECF105"/>
<stop offset="0.4688" stop-color="#DA76EB"/>
<stop offset="1" stop-color="#33E3F6"/>
</linearGradient>
<linearGradient id="paint16_linear_4_4238" x1="10.5566" y1="25.2291" x2="25.911" y2="25.2291" gradientUnits="userSpaceOnUse">
<stop stop-color="#ECF105"/>
<stop offset="0.4688" stop-color="#DA76EB"/>
<stop offset="1" stop-color="#33E3F6"/>
</linearGradient>
</defs>
</svg>
