<svg width="21" height="21" viewBox="0 0 21 21" fill="none" xmlns="http://www.w3.org/2000/svg">
<path d="M10.4943 17.6826C10.4943 17.6826 2.54102 13.2288 2.54102 7.82053C2.54102 6.86445 2.87227 5.93791 3.47841 5.19854C4.08455 4.45916 4.92813 3.95264 5.86564 3.76513C6.80315 3.57763 7.77667 3.72074 8.62055 4.17011C9.46444 4.61947 10.1266 5.34734 10.4943 6.22987V6.22987C10.862 5.34734 11.5241 4.61947 12.368 4.17011C13.2119 3.72074 14.1854 3.57763 15.1229 3.76513C16.0605 3.95264 16.904 4.45916 17.5102 5.19854C18.1163 5.93791 18.4476 6.86445 18.4476 7.82053C18.4476 13.2288 10.4943 17.6826 10.4943 17.6826Z" stroke="#797596" stroke-width="1.27252" stroke-linecap="round" stroke-linejoin="round"/>
</svg>
