<svg width="62" height="18" viewBox="0 0 62 18" fill="none" xmlns="http://www.w3.org/2000/svg">
<path d="M15.2297 8.60068C15.2159 8.10621 15.0651 7.62475 14.7934 7.21066C14.5224 6.79732 14.1412 6.46666 13.6927 6.25693C13.8634 5.79231 13.8994 5.28942 13.7999 4.80491C13.6996 4.31962 13.4654 3.87261 13.1247 3.51363C12.765 3.17301 12.3187 2.93955 11.8335 2.83852C11.3489 2.73901 10.8461 2.77498 10.3814 2.94568C10.1725 2.49637 9.84258 2.11442 9.42848 1.84346C9.01438 1.57249 8.53292 1.42094 8.03769 1.40869C7.54322 1.4217 7.0633 1.57173 6.64996 1.84346C6.23663 2.11518 5.90826 2.49713 5.70083 2.94568C5.23545 2.77498 4.73103 2.73748 4.24498 2.83852C3.75893 2.93802 3.31116 3.17224 2.9514 3.51363C2.61079 3.87338 2.3781 4.32115 2.27935 4.80567C2.17985 5.29019 2.21812 5.79308 2.38958 6.25693C1.94027 6.46666 1.55755 6.79656 1.28506 7.20989C1.01257 7.62322 0.860246 8.10544 0.845703 8.60068C0.861012 9.09591 1.01257 9.57737 1.28506 9.99147C1.55755 10.4048 1.94027 10.7355 2.38958 10.9444C2.21812 11.4083 2.17985 11.9112 2.27935 12.3957C2.37886 12.881 2.61079 13.328 2.95064 13.6877C3.31039 14.0268 3.7574 14.2595 4.24192 14.3598C4.72644 14.4608 5.22932 14.4241 5.69394 14.2557C5.90367 14.7042 6.23357 15.0854 6.64767 15.3571C7.061 15.6281 7.54322 15.7789 8.03769 15.7927C8.53292 15.7804 9.01438 15.6296 9.42848 15.3587C9.84258 15.0877 10.1725 14.705 10.3814 14.2564C10.8438 14.4394 11.3505 14.483 11.8381 14.382C12.3249 14.2809 12.7719 14.0398 13.124 13.6877C13.4761 13.3356 13.7179 12.8886 13.819 12.401C13.92 11.9135 13.8764 11.4067 13.6927 10.9444C14.1412 10.7347 14.5224 10.4048 14.7941 9.9907C15.0651 9.57737 15.2159 9.09515 15.2297 8.60068ZM7.01354 11.5476L4.38888 8.92369L5.37858 7.9271L6.96456 9.51307L10.3324 5.8436L11.3635 6.79732L7.01354 11.5476Z" fill="#1D9BF0"/>
</svg>
