<svg width="40" height="39" viewBox="0 0 40 39" fill="none" xmlns="http://www.w3.org/2000/svg">
<path d="M32.9912 15.1245C30.0451 15.8582 26.9413 14.8116 25.0411 12.4437L22.1219 8.80607C21.8576 8.47662 21.5227 8.21074 21.1419 8.02804C20.7611 7.84534 20.3441 7.75049 19.9218 7.75049C19.4994 7.75049 19.0824 7.84534 18.7016 8.02804C18.3208 8.21074 17.9859 8.47662 17.7216 8.80607L14.8595 12.3725C12.923 14.7856 9.76403 15.8587 6.7583 15.1245C6.28613 15.0115 5.79287 15.0215 5.32563 15.1534C4.8584 15.2854 4.4328 15.5349 4.0895 15.8782C3.74619 16.2215 3.49664 16.6471 3.36469 17.1144C3.23274 17.5816 3.2228 18.0748 3.33581 18.547L6.66428 30.2437C6.77803 30.6504 7.0254 31.0071 7.36653 31.2561C7.70766 31.5051 8.1227 31.632 8.54477 31.6164H31.1107C31.5328 31.632 31.9478 31.5051 32.2889 31.2561C32.6301 31.0071 32.8774 30.6504 32.9912 30.2437L36.3385 18.547C36.4465 18.0823 36.4357 17.5979 36.3072 17.1385C36.1786 16.6791 35.9363 16.2595 35.6028 15.9185C35.2692 15.5774 34.8551 15.3259 34.3986 15.1871C33.9422 15.0483 33.4581 15.0268 32.9912 15.1245Z" fill="url(#paint0_linear_4_4225)"/>
<path d="M2.43265 13.0936C3.73086 13.0936 4.78326 12.0412 4.78326 10.7429C4.78326 9.44474 3.73086 8.39233 2.43265 8.39233C1.13444 8.39233 0.0820312 9.44474 0.0820312 10.7429C0.0820312 12.0412 1.13444 13.0936 2.43265 13.0936Z" fill="url(#paint1_linear_4_4225)"/>
<path d="M37.2217 13.0936C38.5199 13.0936 39.5723 12.0412 39.5723 10.7429C39.5723 9.44474 38.5199 8.39233 37.2217 8.39233C35.9235 8.39233 34.8711 9.44474 34.8711 10.7429C34.8711 12.0412 35.9235 13.0936 37.2217 13.0936Z" fill="url(#paint2_linear_4_4225)"/>
<path d="M19.8272 5.10138C21.1254 5.10138 22.1778 4.04897 22.1778 2.75076C22.1778 1.45255 21.1254 0.400146 19.8272 0.400146C18.529 0.400146 17.4766 1.45255 17.4766 2.75076C17.4766 4.04897 18.529 5.10138 19.8272 5.10138Z" fill="url(#paint3_linear_4_4225)"/>
<path d="M31.1105 38.48H8.54456C8.04582 38.48 7.56751 38.2819 7.21485 37.9292C6.86219 37.5765 6.66406 37.0982 6.66406 36.5995C6.66406 36.1007 6.86219 35.6224 7.21485 35.2698C7.56751 34.9171 8.04582 34.719 8.54456 34.719H31.1105C31.6092 34.719 32.0875 34.9171 32.4402 35.2698C32.7928 35.6224 32.991 36.1007 32.991 36.5995C32.991 37.0982 32.7928 37.5765 32.4402 37.9292C32.0875 38.2819 31.6092 38.48 31.1105 38.48Z" fill="url(#paint4_linear_4_4225)"/>
<defs>
<linearGradient id="paint0_linear_4_4225" x1="3.25781" y1="19.6841" x2="36.4123" y2="19.6841" gradientUnits="userSpaceOnUse">
<stop stop-color="#ECF105"/>
<stop offset="0.4688" stop-color="#DA76EB"/>
<stop offset="1" stop-color="#33E3F6"/>
</linearGradient>
<linearGradient id="paint1_linear_4_4225" x1="0.0820312" y1="10.7429" x2="4.78326" y2="10.7429" gradientUnits="userSpaceOnUse">
<stop stop-color="#ECF105"/>
<stop offset="0.4688" stop-color="#DA76EB"/>
<stop offset="1" stop-color="#33E3F6"/>
</linearGradient>
<linearGradient id="paint2_linear_4_4225" x1="34.8711" y1="10.7429" x2="39.5723" y2="10.7429" gradientUnits="userSpaceOnUse">
<stop stop-color="#ECF105"/>
<stop offset="0.4688" stop-color="#DA76EB"/>
<stop offset="1" stop-color="#33E3F6"/>
</linearGradient>
<linearGradient id="paint3_linear_4_4225" x1="17.4766" y1="2.75076" x2="22.1778" y2="2.75076" gradientUnits="userSpaceOnUse">
<stop stop-color="#ECF105"/>
<stop offset="0.4688" stop-color="#DA76EB"/>
<stop offset="1" stop-color="#33E3F6"/>
</linearGradient>
<linearGradient id="paint4_linear_4_4225" x1="6.66406" y1="36.5995" x2="32.991" y2="36.5995" gradientUnits="userSpaceOnUse">
<stop stop-color="#ECF105"/>
<stop offset="0.4688" stop-color="#DA76EB"/>
<stop offset="1" stop-color="#33E3F6"/>
</linearGradient>
</defs>
</svg>
