<svg width="31" height="19" viewBox="0 0 31 19" fill="none" xmlns="http://www.w3.org/2000/svg">
<path d="M16.7498 7.34603C16.7498 7.96722 16.217 8.46866 15.557 8.46866C14.897 8.46866 14.3642 7.96722 14.3642 7.34603C14.3642 6.72484 14.897 6.2234 15.557 6.2234C16.217 6.2234 16.7498 6.72484 16.7498 7.34603ZM16.3522 13.7076V9.9655H14.7618V13.7076H16.3522ZM15.557 17.6368C20.0578 17.6368 23.7078 14.2016 23.7078 9.9655C23.7078 5.72944 20.0578 2.29419 15.557 2.29419C11.0562 2.29419 7.40625 5.72944 7.40625 9.9655C7.40625 14.2016 11.0562 17.6368 15.557 17.6368ZM22.1174 9.9655C22.1174 13.3783 19.1831 16.14 15.557 16.14C11.9309 16.14 8.99664 13.3783 8.99664 9.9655C8.99664 6.55271 11.9309 3.79103 15.557 3.79103C19.1831 3.79103 22.1174 6.55271 22.1174 9.9655Z" fill="#536471"/>
</svg>
