<svg width="22" height="21" viewBox="0 0 22 21" fill="none" xmlns="http://www.w3.org/2000/svg">
<path d="M17.6957 3.35876L2.87081 7.53423C2.74461 7.56873 2.63212 7.6413 2.54865 7.74205C2.46518 7.84279 2.4148 7.96682 2.40437 8.09723C2.39394 8.22764 2.42396 8.3581 2.49035 8.47083C2.55674 8.58357 2.65626 8.6731 2.77537 8.72722L9.58338 11.9483C9.71674 12.0101 9.82384 12.1172 9.8856 12.2505L13.1067 19.0585C13.1608 19.1776 13.2503 19.2772 13.3631 19.3436C13.4758 19.4099 13.6063 19.44 13.7367 19.4295C13.8671 19.4191 13.9911 19.3687 14.0919 19.2853C14.1926 19.2018 14.2652 19.0893 14.2997 18.9631L18.4751 4.13818C18.5068 4.03 18.5087 3.9153 18.4808 3.8061C18.4529 3.6969 18.3961 3.59722 18.3164 3.51752C18.2367 3.43782 18.137 3.38103 18.0278 3.3531C17.9186 3.32516 17.8039 3.32712 17.6957 3.35876V3.35876Z" stroke="#797596" stroke-width="1.27252" stroke-linecap="round" stroke-linejoin="round"/>
<path d="M9.78906 12.0434L13.3839 8.44849" stroke="#797596" stroke-width="1.27252" stroke-linecap="round" stroke-linejoin="round"/>
</svg>
