<svg width="99" height="20" viewBox="0 0 99 20" fill="none" xmlns="http://www.w3.org/2000/svg">
<path d="M8.49467 12.3969C8.91045 12.3969 9.26225 12.056 9.26225 11.6513V3.34416L9.1983 2.06613L9.64605 2.55604L10.8188 3.82343C10.9574 3.97254 11.1493 4.04709 11.3305 4.04709C11.7356 4.04709 12.0341 3.77017 12.0341 3.38676C12.0341 3.17377 11.9488 3.02467 11.7996 2.88621L9.04905 0.255589C8.85715 0.0638861 8.69722 0 8.49467 0C8.30277 0 8.14286 0.0638861 7.94029 0.255589L5.18977 2.88621C5.05117 3.02467 4.96589 3.17377 4.96589 3.38676C4.96589 3.77017 5.25372 4.04709 5.65885 4.04709C5.84009 4.04709 6.04264 3.97254 6.18124 3.82343L7.35395 2.55604L7.80171 2.06613L7.73774 3.34416V11.6513C7.73774 12.056 8.08955 12.3969 8.49467 12.3969ZM3.71855 19H13.2814C15.1045 19 16 18.1054 16 16.3161V8.12611C16 6.33688 15.1045 5.44225 13.2814 5.44225H10.9893V6.98654H13.2601C14.0171 6.98654 14.4648 7.4019 14.4648 8.20066V16.2416C14.4648 17.051 14.0171 17.4557 13.2601 17.4557H3.73988C2.97228 17.4557 2.53519 17.051 2.53519 16.2416V8.20066C2.53519 7.4019 2.97228 6.98654 3.73988 6.98654H6.01065V5.44225H3.71855C1.90618 5.44225 1 6.33688 1 8.12611V16.3161C1 18.1054 1.90618 19 3.71855 19Z" fill="#767676"/>
<path d="M49.0166 17.6394C49.4887 17.6394 49.8749 17.2639 49.8749 16.7918V11.3738H55.1642C55.6255 11.3738 56.0225 10.9768 56.0225 10.5047C56.0225 10.0327 55.6255 9.6357 55.1642 9.6357H49.8749V4.20694C49.8749 3.73489 49.4887 3.35938 49.0166 3.35938C48.5446 3.35938 48.1476 3.73489 48.1476 4.20694V9.6357H42.869C42.397 9.6357 42 10.0327 42 10.5047C42 10.9768 42.397 11.3738 42.869 11.3738H48.1476V16.7918C48.1476 17.2639 48.5446 17.6394 49.0166 17.6394Z" fill="#767676"/>
<path d="M83.6787 15.2917H84.9803V16.5933C84.9803 18.3426 85.8549 19.2069 87.6355 19.2069H95.8199C97.59 19.2069 98.4751 18.3426 98.4751 16.5933V8.32562C98.4751 6.57629 97.59 5.71205 95.8199 5.71205H94.5183V4.41047C94.5183 2.66112 93.6332 1.79688 91.863 1.79688H83.6787C81.8981 1.79688 81.0234 2.66112 81.0234 4.41047V12.6781C81.0234 14.4275 81.8981 15.2917 83.6787 15.2917ZM83.6995 13.7923C82.9498 13.7923 82.5229 13.3862 82.5229 12.5948V4.49376C82.5229 3.70241 82.9498 3.29631 83.6995 3.29631H91.8422C92.5919 3.29631 93.0188 3.70241 93.0188 4.49376V5.71205H87.6355C85.8549 5.71205 84.9803 6.57629 84.9803 8.32562V13.7923H83.6995ZM87.6563 17.7074C86.9066 17.7074 86.4797 17.3014 86.4797 16.51V8.40893C86.4797 7.61756 86.9066 7.21146 87.6563 7.21146H95.799C96.5488 7.21146 96.9757 7.61756 96.9757 8.40893V16.51C96.9757 17.3014 96.5488 17.7074 95.799 17.7074H87.6563Z" fill="#767676"/>
</svg>
