<svg width="25" height="15" viewBox="0 0 25 15" fill="none" xmlns="http://www.w3.org/2000/svg">
<path d="M1.63445 6.59352H22.2883L17.3977 1.61759C17.0947 1.30931 17.0947 0.807371 17.3977 0.499092C17.7007 0.190814 18.194 0.190814 18.497 0.499092L24.7122 6.82275C25.0152 7.13103 25.0152 7.63297 24.7122 7.94125L18.497 14.2649C18.3455 14.4191 18.1474 14.4981 17.9493 14.4981C17.7512 14.4981 17.5531 14.4191 17.4016 14.2649C17.0986 13.9566 17.0986 13.4547 17.4016 13.1464L22.2883 8.17444H1.63445C1.20715 8.17444 0.85755 7.81873 0.85755 7.38398C0.85755 6.94923 1.20715 6.59352 1.63445 6.59352Z" fill="#151A1F"/>
</svg>
