<svg width="14" height="14" viewBox="0 0 14 14" fill="none" xmlns="http://www.w3.org/2000/svg">
<path fill-rule="evenodd" clip-rule="evenodd" d="M13.5852 7.22911C13.5852 10.9152 10.5968 13.9035 6.91075 13.9035C3.22465 13.9035 0.236328 10.9152 0.236328 7.22911C0.236328 3.54301 3.22465 0.554688 6.91075 0.554688C10.5968 0.554688 13.5852 3.54301 13.5852 7.22911ZM8.64115 3.56806C8.64115 4.14037 8.17701 4.60387 7.60535 4.60387C7.03304 4.60387 6.56954 4.14037 6.56954 3.56806C6.56954 2.99576 7.03304 2.53226 7.60535 2.53226C8.17701 2.53226 8.64115 2.99576 8.64115 3.56806ZM5.53384 6.04913L7.7954 5.71889C7.91385 5.70151 8.01041 5.81224 7.97694 5.92746L6.64374 10.5386C6.5858 10.8476 7.34994 10.4188 7.87524 10.0925C8.01558 10.0049 8.17523 10.1453 8.09347 10.2888C7.68018 11.0143 6.81046 12.2246 5.76632 11.8551C4.71572 11.4836 4.97966 10.6371 5.29766 9.61937C5.34659 9.46101 5.39744 9.29943 5.44444 9.13398C5.56096 8.7252 5.70902 8.31512 5.83969 7.9527C6.10169 7.22655 6.29354 6.69416 6.02188 6.76239C5.69937 6.84286 5.30088 6.54609 5.41354 6.14696C5.42834 6.09289 5.47783 6.05686 5.53384 6.04913Z" fill="#C8FFFF"/>
</svg>
