<svg width="163" height="86" viewBox="0 0 163 86" fill="none" xmlns="http://www.w3.org/2000/svg">
<path fill-rule="evenodd" clip-rule="evenodd" d="M37.4666 83.9503C24.3036 82.1403 14.7209 71.8563 10.349 57.7996C8.55295 51.9818 8.293 45.5293 8.91924 38.783C10.0772 26.736 15.6425 16.2758 23.7601 8.64798C23.7955 8.61273 23.8074 8.60097 23.8192 8.63623C23.8428 8.67149 23.9137 8.70675 23.9492 8.73026C23.9964 8.75376 24.0082 8.73026 23.9728 8.78902C15.3589 16.6284 9.82907 29.0984 9.22646 41.6978C8.293 59.6918 17.0841 75.629 30.2589 81.1178C32.4685 82.0463 34.7844 82.7514 37.1949 83.1158C37.3603 83.3273 37.4548 83.6212 37.4666 83.9503Z" fill="url(#paint0_linear_726_21324)"/>
<path fill-rule="evenodd" clip-rule="evenodd" d="M4.65368 53.8975C5.72893 55.1669 7.44225 56.4127 9.28554 55.9308C9.38007 56.0718 9.86452 56.777 9.93542 56.8828C10.0181 57.0121 10.1717 57.1414 10.2899 57.0356C10.3608 56.9886 10.4199 56.8828 10.349 56.7183C10.0772 56.3892 9.81726 56.0483 9.51004 55.6957C8.96651 52.8397 8.17484 50.9357 6.5206 49.0082C4.60642 46.7986 2.64496 45.8114 1.42792 45.4C1.25068 45.353 1.08526 45.306 0.908018 45.2472C0.789859 46.352 1.29794 47.9622 1.69969 48.8789C2.47954 50.7594 3.33029 52.4049 4.65368 53.8975Z" fill="url(#paint1_linear_726_21324)"/>
<path fill-rule="evenodd" clip-rule="evenodd" d="M20.4871 13.6666C20.3335 13.7253 19.4355 13.9604 19.3291 13.7841C19.2937 13.7371 19.3409 13.5608 19.4236 13.549C19.7545 13.5138 20.1208 13.4903 20.4398 13.4198C21.0188 11.6098 22.6258 10.8223 24.1028 10.5167C25.8752 10.1641 27.8248 10.7048 29.9162 10.9986C30.0226 11.0221 30.1407 11.0339 30.2352 11.0339C30.1998 11.1044 30.1525 11.1514 30.1053 11.2219C29.2309 12.409 27.8602 13.502 26.525 14.0427C25.627 14.4188 24.5518 14.6303 23.5001 14.5951C22.3894 14.5481 21.456 14.3012 20.4871 13.6666Z" fill="url(#paint2_linear_726_21324)"/>
<path fill-rule="evenodd" clip-rule="evenodd" d="M23.9492 8.7185C24.0201 8.74201 24.0201 8.7185 24.15 8.64798C24.3982 8.41292 24.6108 8.27188 24.859 8.04857C26.2769 8.06033 27.6239 7.63721 28.9 6.79099C29.4672 6.41489 30.0344 5.95652 30.507 5.40412C31.6413 4.19355 32.5512 2.41883 32.9647 0.796896C32.9884 0.702871 33.0002 0.644104 33.012 0.550079C32.9057 0.597092 32.8111 0.644106 32.7048 0.691118C30.4125 1.60786 28.1911 2.03097 26.3478 3.8057C25.0953 4.99276 24.4454 6.42664 24.7054 7.81351C24.4218 8.03682 24.1264 8.24838 23.8546 8.50695C23.7365 8.61273 23.8783 8.7185 23.9492 8.7185Z" fill="url(#paint3_linear_726_21324)"/>
<path fill-rule="evenodd" clip-rule="evenodd" d="M15.6071 21.2473C15.4535 21.3296 14.5909 21.7762 14.4609 21.6234C14.4019 21.5647 14.4255 21.3766 14.5082 21.3414C14.8272 21.2238 15.2053 21.1416 15.5244 21.0005C15.6425 19.7194 16.3633 18.5206 17.793 17.6979C19.979 16.5461 22.4603 16.7341 24.7999 16.5343C24.9181 16.5226 25.0244 16.5226 25.1308 16.5108C25.0953 16.5813 25.0599 16.6401 25.0362 16.7106C24.2564 18.0505 22.9921 19.4961 21.7041 20.3188C20.8416 20.8947 19.7781 21.3296 18.7147 21.5412C17.5922 21.7645 16.6351 21.6352 15.6071 21.2473Z" fill="url(#paint4_linear_726_21324)"/>
<path fill-rule="evenodd" clip-rule="evenodd" d="M4.15741 41.0161C4.86637 42.6028 6.14249 44.3422 8.00941 44.4598C8.06849 44.6243 8.41116 45.3883 8.45842 45.5058C8.49387 45.6703 8.61203 45.8466 8.76564 45.7761C8.83653 45.7526 8.90743 45.6586 8.89561 45.494C8.71837 45.0709 8.49387 44.7418 8.28118 44.307C8.4466 41.3922 8.28118 39.2649 7.15866 36.8672C5.88254 34.1053 4.13378 32.5186 3.05852 31.7429C2.92855 31.6253 2.77494 31.5313 2.62133 31.4373C2.3732 32.5656 2.45591 34.3168 2.60952 35.3276C2.88128 37.3726 3.31848 39.1709 4.15741 41.0161Z" fill="url(#paint5_linear_726_21324)"/>
<path fill-rule="evenodd" clip-rule="evenodd" d="M6.24884 29.31C6.55605 31.0024 7.32409 32.7066 9.02559 33.4471C9.04922 33.6234 9.23827 34.4461 9.26191 34.5754C9.26191 34.7517 9.32099 34.9515 9.48641 34.928C9.53367 34.9162 9.65183 34.8692 9.66365 34.6929C9.59275 34.2463 9.46278 33.7409 9.38007 33.259C9.94723 31.2022 10.2544 29.3217 10.1599 27.3119C10.0063 24.4794 8.94287 22.023 7.26501 20.0485C7.13503 19.9075 7.0405 19.7547 6.92234 19.6254C6.44971 20.6009 6.14249 22.2699 6.05978 23.2689C5.88254 25.2904 5.89436 27.3237 6.24884 29.31Z" fill="url(#paint6_linear_726_21324)"/>
<path fill-rule="evenodd" clip-rule="evenodd" d="M10.538 18.6264C10.4908 20.3659 10.9161 22.3169 12.3813 23.4452C12.3695 23.6215 12.3341 24.4677 12.3341 24.5852C12.3104 24.7498 12.3222 24.9496 12.4877 24.9848C12.5467 24.9848 12.6531 24.9731 12.6885 24.8085C12.724 24.3737 12.7358 23.7037 12.7594 23.2219C14.0119 21.1063 14.6854 18.8027 14.7091 16.17C14.7563 13.1259 14.0001 11.1867 13.3975 9.96433C13.3148 9.79979 13.2321 9.63525 13.1494 9.4707C12.4877 10.2699 11.8614 11.7978 11.5778 12.7381C11.0107 14.6421 10.5971 16.6284 10.538 18.6264Z" fill="url(#paint7_linear_726_21324)"/>
<path fill-rule="evenodd" clip-rule="evenodd" d="M17.0368 8.87129C16.6587 10.505 16.765 12.9026 17.9939 13.8899C17.9466 14.1014 17.8403 14.8301 17.8285 14.9947C17.7812 15.171 17.7458 15.3355 17.8876 15.406C17.9466 15.4295 17.9939 15.4295 18.0648 15.2767C18.1475 14.8184 18.1711 14.4423 18.242 13.9722C19.9908 12.1152 20.9834 10.2817 21.5387 7.77825C22.0941 5.1573 22.0113 3.077 21.775 1.60786C21.7514 1.43156 21.7041 1.25527 21.6569 1.06722C20.1208 2.28954 19.0337 3.89972 18.1121 5.73321C17.6158 6.73222 17.2259 7.75475 17.0368 8.87129Z" fill="url(#paint8_linear_726_21324)"/>
<path fill-rule="evenodd" clip-rule="evenodd" d="M11.6842 31.2492C11.5424 31.3785 10.7625 32.119 10.5735 32.025C10.5262 31.9779 10.4908 31.7311 10.5735 31.6841C10.8689 31.449 11.247 31.2728 11.5424 31.0494C11.4479 29.6391 11.7669 28.2052 13.0548 26.8653C15.0399 24.9496 17.6749 24.3031 20.0735 23.3159C20.1799 23.2689 20.2862 23.2101 20.4162 23.1631C20.3925 23.2454 20.3807 23.3394 20.3453 23.4217C19.8726 25.0671 18.9274 26.9829 17.7812 28.2757C17.0368 29.1454 16.0325 29.9799 14.9808 30.5323C13.882 31.12 12.8421 31.308 11.6842 31.2492Z" fill="url(#paint9_linear_726_21324)"/>
<path fill-rule="evenodd" clip-rule="evenodd" d="M10.0299 42.732C9.9236 42.9201 9.29735 43.9309 9.09648 43.8839C9.01377 43.8839 8.93106 43.637 8.99014 43.543C9.25009 43.2022 9.58094 42.9319 9.80544 42.5793C9.4037 41.2864 9.59275 39.4177 10.5617 37.6312C12.0977 35.022 14.3428 33.7527 16.5169 31.9309C16.6114 31.8369 16.706 31.7546 16.8123 31.6489C16.8241 31.7311 16.8359 31.8251 16.8241 31.9309C16.7769 33.7174 16.3042 35.9622 15.4653 37.6547C14.9218 38.7948 14.1183 39.9348 13.1966 40.8868C12.2395 41.8388 11.2234 42.3912 10.0299 42.732Z" fill="url(#paint10_linear_726_21324)"/>
<path fill-rule="evenodd" clip-rule="evenodd" d="M11.117 53.9915C11.0343 54.2149 10.6089 55.4137 10.3962 55.4607C10.3253 55.4489 10.1836 55.2726 10.2426 55.1434C10.4199 54.7437 10.6207 54.2854 10.7862 53.874C10.0536 53.1806 9.80544 51.2531 10.3962 49.2315C11.377 46.2697 13.5629 44.0484 15.3235 41.592C15.4062 41.4745 15.4889 41.3569 15.5716 41.2394C15.5953 41.3217 15.6071 41.4157 15.6307 41.5097C15.9379 43.2374 15.9143 45.5293 15.4417 47.398C15.1226 48.6439 14.5673 50.019 13.8465 51.1943C13.1021 52.4401 12.2159 53.2981 11.117 53.9915Z" fill="url(#paint11_linear_726_21324)"/>
<path fill-rule="evenodd" clip-rule="evenodd" d="M8.48205 67.1668C9.81726 68.0365 12.2041 68.6947 13.8465 67.6252C13.9765 67.7192 14.6618 68.1306 14.7445 68.2011C14.8627 68.3186 15.0281 68.4009 15.1344 68.2363C15.1935 68.1658 15.229 68.0483 15.1108 67.919C14.7681 67.6839 14.39 67.5312 14.0237 67.2961C12.7712 64.7104 11.4242 62.9592 9.35643 61.6663C6.99324 60.1619 5.01997 60.1384 3.75567 60.1384C3.57843 60.1384 3.40119 60.1502 3.22395 60.1502C3.53116 62.7006 6.70966 66.0738 8.48205 67.1668Z" fill="url(#paint12_linear_726_21324)"/>
<path fill-rule="evenodd" clip-rule="evenodd" d="M15.0399 65.1688C15.0281 65.3333 14.9454 66.062 14.8272 66.5086C14.7918 66.6379 14.78 66.826 14.6027 66.7554C14.5318 66.7437 14.4609 66.5909 14.4609 66.5204C14.5436 66.0855 14.6145 65.5919 14.65 65.157C13.8347 64.6399 13.1966 62.9474 13.0666 60.8671C13.2084 57.729 14.6264 54.8848 15.7607 51.923C15.7961 51.7937 15.8434 51.6527 15.8907 51.5116C15.9379 51.5821 15.9616 51.6527 16.0088 51.7232C16.765 53.2746 17.344 55.4489 17.3913 57.4117C17.4386 58.6928 17.2495 60.1854 16.8714 61.5723C16.4696 62.9944 15.8788 64.111 15.0399 65.1688Z" fill="url(#paint13_linear_726_21324)"/>
<path fill-rule="evenodd" clip-rule="evenodd" d="M15.7134 77.8974C17.2495 78.203 19.3291 78.1325 20.6289 76.487C20.9597 76.534 21.4914 76.6163 21.8341 76.6398C21.9286 76.6516 21.9995 76.581 22.035 76.4635C22.0586 76.3812 22.035 76.2755 21.8814 76.1932C21.4914 76.1109 21.1015 76.1109 20.6879 76.0404C18.9628 74.0306 17.3322 72.9023 14.9808 72.4792C12.2632 71.9856 9.95905 72.679 8.73019 73.1844C8.56476 73.2432 8.38753 73.3137 8.23392 73.396C8.67111 74.3715 9.94723 75.3705 10.7507 75.8524C12.2868 76.8631 13.8583 77.5918 15.7134 77.8974Z" fill="url(#paint14_linear_726_21324)"/>
<path fill-rule="evenodd" clip-rule="evenodd" d="M21.2079 73.6545C21.2315 73.8308 21.2551 74.536 21.2551 75.0061C21.2433 75.1354 21.2787 75.3117 21.1015 75.3235C21.0188 75.3235 20.9243 75.2177 20.9243 75.1354C20.8888 74.7006 20.9125 74.2304 20.8416 73.7838C19.9317 73.5017 18.7265 72.1266 18.1712 70.2344C17.5331 67.2021 18.2302 64.0757 18.5611 60.8671C18.5847 60.7261 18.5729 60.5851 18.5847 60.4323C18.6438 60.491 18.7147 60.5498 18.7738 60.6086C19.8845 61.8191 20.9952 63.6879 21.5269 65.5214C21.8932 66.7202 22.0822 68.2011 22.0822 69.6232C22.0586 71.1158 21.7514 72.3734 21.2079 73.6545Z" fill="url(#paint15_linear_726_21324)"/>
<path fill-rule="evenodd" clip-rule="evenodd" d="M29.8099 79.8249C29.8926 79.9542 29.9989 80.5419 30.1171 80.9885C30.1525 81.0943 30.2234 81.2588 30.058 81.3176C29.9753 81.3528 29.869 81.2823 29.8453 81.2118C29.6917 80.8357 29.6917 80.4361 29.5027 80.06C28.6165 80.2715 27.0804 79.155 26.076 77.6976C24.6817 75.1824 24.5281 72.2324 23.9846 69.2354C23.9728 69.0943 23.9255 68.965 23.9019 68.824C23.9728 68.8357 24.0437 68.8828 24.1146 68.9063C25.4498 69.5762 26.974 70.7633 27.9548 72.2206C28.6283 73.1609 29.2545 74.4655 29.609 75.7701C29.9753 77.1452 29.9871 78.4498 29.8099 79.8249Z" fill="url(#paint16_linear_726_21324)"/>
<path fill-rule="evenodd" clip-rule="evenodd" d="M24.9771 85.4194C26.5487 85.2078 28.581 84.4909 29.479 82.4929C29.7981 82.3988 30.3534 82.3401 30.6843 82.2461C30.7788 82.2343 30.826 82.1285 30.8379 81.9993C30.8379 81.9287 30.7906 81.823 30.6252 81.7994C30.2353 81.8582 29.8453 81.9757 29.4081 82.0228C27.1276 80.6829 25.2844 80.0717 22.8857 80.4126C20.1326 80.8004 18.1239 82.1755 17.0486 83.057C16.895 83.1863 16.7414 83.3038 16.5996 83.4331C17.2613 84.2441 18.7501 84.7847 19.6363 85.0198C21.3733 85.5017 23.0748 85.6897 24.9771 85.4194Z" fill="url(#paint17_linear_726_21324)"/>
<path fill-rule="evenodd" clip-rule="evenodd" d="M126.32 83.9503C139.483 82.1403 149.066 71.8563 153.438 57.7996C155.234 51.9818 155.494 45.5293 154.868 38.783C153.71 26.736 148.144 16.2758 140.027 8.64798C139.991 8.61273 139.979 8.60097 139.968 8.63623C139.944 8.67149 139.873 8.70675 139.838 8.73026C139.79 8.75376 139.779 8.73026 139.814 8.78902C148.428 16.6284 153.958 29.0984 154.56 41.6978C155.494 59.6918 146.703 75.629 133.528 81.1178C131.318 82.0463 129.002 82.7514 126.592 83.1158C126.427 83.3273 126.332 83.6212 126.32 83.9503Z" fill="url(#paint18_linear_726_21324)"/>
<path fill-rule="evenodd" clip-rule="evenodd" d="M159.133 53.8975C158.058 55.1669 156.345 56.4127 154.501 55.9308C154.407 56.0718 153.922 56.777 153.851 56.8828C153.769 57.0121 153.615 57.1414 153.497 57.0356C153.426 56.9886 153.367 56.8828 153.438 56.7183C153.71 56.3892 153.97 56.0483 154.277 55.6957C154.82 52.8397 155.612 50.9357 157.266 49.0082C159.18 46.7986 161.142 45.8114 162.359 45.4C162.536 45.353 162.702 45.306 162.879 45.2472C162.997 46.352 162.489 47.9622 162.087 48.8789C161.307 50.7594 160.457 52.4049 159.133 53.8975Z" fill="url(#paint19_linear_726_21324)"/>
<path fill-rule="evenodd" clip-rule="evenodd" d="M143.3 13.6666C143.453 13.7253 144.351 13.9604 144.458 13.7841C144.493 13.7371 144.446 13.5608 144.363 13.549C144.032 13.5138 143.666 13.4903 143.347 13.4198C142.768 11.6098 141.161 10.8223 139.684 10.5167C137.912 10.1641 135.962 10.7048 133.871 10.9986C133.764 11.0221 133.646 11.0339 133.552 11.0339C133.587 11.1044 133.634 11.1514 133.682 11.2219C134.556 12.409 135.927 13.502 137.262 14.0427C138.16 14.4188 139.235 14.6303 140.287 14.5951C141.397 14.5481 142.331 14.3012 143.3 13.6666Z" fill="url(#paint20_linear_726_21324)"/>
<path fill-rule="evenodd" clip-rule="evenodd" d="M139.838 8.7185C139.767 8.74201 139.767 8.7185 139.637 8.64798C139.389 8.41292 139.176 8.27188 138.928 8.04857C137.51 8.06033 136.163 7.63721 134.887 6.79099C134.32 6.41489 133.752 5.95652 133.28 5.40412C132.145 4.19355 131.236 2.41883 130.822 0.796896C130.798 0.702871 130.787 0.644104 130.775 0.550079C130.881 0.597092 130.976 0.644106 131.082 0.691118C133.374 1.60786 135.596 2.03097 137.439 3.8057C138.691 4.99276 139.341 6.42664 139.081 7.81351C139.365 8.03682 139.66 8.24838 139.932 8.50695C140.05 8.61273 139.909 8.7185 139.838 8.7185Z" fill="url(#paint21_linear_726_21324)"/>
<path fill-rule="evenodd" clip-rule="evenodd" d="M148.18 21.2473C148.333 21.3296 149.196 21.7762 149.326 21.6234C149.385 21.5647 149.361 21.3766 149.279 21.3414C148.96 21.2238 148.581 21.1416 148.262 21.0005C148.144 19.7194 147.423 18.5206 145.994 17.6979C143.808 16.5461 141.326 16.7341 138.987 16.5343C138.869 16.5226 138.762 16.5226 138.656 16.5108C138.691 16.5813 138.727 16.6401 138.751 16.7106C139.53 18.0505 140.795 19.4961 142.083 20.3188C142.945 20.8947 144.009 21.3296 145.072 21.5412C146.195 21.7645 147.152 21.6352 148.18 21.2473Z" fill="url(#paint22_linear_726_21324)"/>
<path fill-rule="evenodd" clip-rule="evenodd" d="M159.629 41.0161C158.92 42.6028 157.644 44.3422 155.777 44.4598C155.718 44.6243 155.376 45.3883 155.328 45.5058C155.293 45.6703 155.175 45.8466 155.021 45.7761C154.95 45.7526 154.879 45.6586 154.891 45.494C155.068 45.0709 155.293 44.7418 155.506 44.307C155.34 41.3922 155.506 39.2649 156.628 36.8672C157.904 34.1053 159.653 32.5186 160.728 31.7429C160.858 31.6253 161.012 31.5313 161.165 31.4373C161.414 32.5656 161.331 34.3168 161.177 35.3276C160.906 37.3726 160.468 39.1709 159.629 41.0161Z" fill="url(#paint23_linear_726_21324)"/>
<path fill-rule="evenodd" clip-rule="evenodd" d="M157.538 29.31C157.231 31.0024 156.463 32.7066 154.761 33.4471C154.738 33.6234 154.549 34.4461 154.525 34.5754C154.525 34.7517 154.466 34.9515 154.3 34.928C154.253 34.9162 154.135 34.8692 154.123 34.6929C154.194 34.2463 154.324 33.7409 154.407 33.259C153.84 31.2022 153.532 29.3217 153.627 27.3119C153.78 24.4794 154.844 22.023 156.522 20.0485C156.652 19.9075 156.746 19.7547 156.864 19.6254C157.337 20.6009 157.644 22.2699 157.727 23.2689C157.904 25.2904 157.892 27.3237 157.538 29.31Z" fill="url(#paint24_linear_726_21324)"/>
<path fill-rule="evenodd" clip-rule="evenodd" d="M153.249 18.6264C153.296 20.3659 152.871 22.3169 151.405 23.4452C151.417 23.6215 151.453 24.4677 151.453 24.5852C151.476 24.7498 151.465 24.9496 151.299 24.9848C151.24 24.9848 151.134 24.9731 151.098 24.8085C151.063 24.3737 151.051 23.7037 151.027 23.2219C149.775 21.1063 149.101 18.8027 149.078 16.17C149.03 13.1259 149.787 11.1867 150.389 9.96433C150.472 9.79979 150.555 9.63525 150.637 9.4707C151.299 10.2699 151.925 11.7978 152.209 12.7381C152.776 14.6421 153.19 16.6284 153.249 18.6264Z" fill="url(#paint25_linear_726_21324)"/>
<path fill-rule="evenodd" clip-rule="evenodd" d="M146.75 8.87129C147.128 10.505 147.022 12.9026 145.793 13.8899C145.84 14.1014 145.946 14.8301 145.958 14.9947C146.006 15.171 146.041 15.3355 145.899 15.406C145.84 15.4295 145.793 15.4295 145.722 15.2767C145.639 14.8184 145.616 14.4423 145.545 13.9722C143.796 12.1152 142.803 10.2817 142.248 7.77825C141.693 5.1573 141.775 3.077 142.012 1.60786C142.035 1.43156 142.083 1.25527 142.13 1.06722C143.666 2.28954 144.753 3.89972 145.675 5.73321C146.171 6.73222 146.561 7.75475 146.75 8.87129Z" fill="url(#paint26_linear_726_21324)"/>
<path fill-rule="evenodd" clip-rule="evenodd" d="M152.103 31.2492C152.244 31.3785 153.024 32.119 153.213 32.025C153.261 31.9779 153.296 31.7311 153.213 31.6841C152.918 31.449 152.54 31.2728 152.244 31.0494C152.339 29.6391 152.02 28.2052 150.732 26.8653C148.747 24.9496 146.112 24.3031 143.713 23.3159C143.607 23.2689 143.501 23.2101 143.371 23.1631C143.394 23.2454 143.406 23.3394 143.442 23.4217C143.914 25.0671 144.859 26.9829 146.006 28.2757C146.75 29.1454 147.754 29.9799 148.806 30.5323C149.905 31.12 150.945 31.308 152.103 31.2492Z" fill="url(#paint27_linear_726_21324)"/>
<path fill-rule="evenodd" clip-rule="evenodd" d="M153.757 42.732C153.863 42.9201 154.489 43.9309 154.69 43.8839C154.773 43.8839 154.856 43.637 154.797 43.543C154.537 43.2022 154.206 42.9319 153.981 42.5793C154.383 41.2864 154.194 39.4177 153.225 37.6312C151.689 35.022 149.444 33.7527 147.27 31.9309C147.175 31.8369 147.081 31.7546 146.974 31.6489C146.963 31.7311 146.951 31.8251 146.963 31.9309C147.01 33.7174 147.483 35.9622 148.322 37.6547C148.865 38.7948 149.669 39.9348 150.59 40.8868C151.547 41.8388 152.563 42.3912 153.757 42.732Z" fill="url(#paint28_linear_726_21324)"/>
<path fill-rule="evenodd" clip-rule="evenodd" d="M152.67 53.9915C152.752 54.2149 153.178 55.4137 153.391 55.4607C153.461 55.4489 153.603 55.2726 153.544 55.1434C153.367 54.7437 153.166 54.2854 153.001 53.874C153.733 53.1806 153.981 51.2531 153.391 49.2315C152.41 46.2697 150.224 44.0484 148.463 41.592C148.381 41.4745 148.298 41.3569 148.215 41.2394C148.192 41.3217 148.18 41.4157 148.156 41.5097C147.849 43.2374 147.872 45.5293 148.345 47.398C148.664 48.6439 149.22 50.019 149.94 51.1943C150.685 52.4401 151.571 53.2981 152.67 53.9915Z" fill="url(#paint29_linear_726_21324)"/>
<path fill-rule="evenodd" clip-rule="evenodd" d="M155.305 67.1668C153.97 68.0365 151.583 68.6947 149.94 67.6252C149.81 67.7192 149.125 68.1306 149.042 68.2011C148.924 68.3186 148.759 68.4009 148.652 68.2363C148.593 68.1658 148.558 68.0483 148.676 67.919C149.019 67.6839 149.397 67.5312 149.763 67.2961C151.016 64.7104 152.363 62.9592 154.43 61.6663C156.794 60.1619 158.767 60.1384 160.031 60.1384C160.208 60.1384 160.386 60.1502 160.563 60.1502C160.256 62.7006 157.077 66.0738 155.305 67.1668Z" fill="url(#paint30_linear_726_21324)"/>
<path fill-rule="evenodd" clip-rule="evenodd" d="M148.747 65.1688C148.759 65.3333 148.841 66.062 148.96 66.5086C148.995 66.6379 149.007 66.826 149.184 66.7554C149.255 66.7437 149.326 66.5909 149.326 66.5204C149.243 66.0855 149.172 65.5919 149.137 65.157C149.952 64.6399 150.59 62.9474 150.72 60.8671C150.578 57.729 149.16 54.8848 148.026 51.923C147.991 51.7937 147.943 51.6527 147.896 51.5116C147.849 51.5821 147.825 51.6527 147.778 51.7232C147.022 53.2746 146.443 55.4489 146.396 57.4117C146.348 58.6928 146.537 60.1854 146.915 61.5723C147.317 62.9944 147.908 64.111 148.747 65.1688Z" fill="url(#paint31_linear_726_21324)"/>
<path fill-rule="evenodd" clip-rule="evenodd" d="M148.073 77.8974C146.537 78.203 144.458 78.1325 143.158 76.487C142.827 76.534 142.295 76.6163 141.953 76.6398C141.858 76.6516 141.787 76.581 141.752 76.4635C141.728 76.3812 141.752 76.2755 141.905 76.1932C142.295 76.1109 142.685 76.1109 143.099 76.0404C144.824 74.0306 146.455 72.9023 148.806 72.4792C151.524 71.9856 153.828 72.679 155.057 73.1844C155.222 73.2432 155.399 73.3137 155.553 73.396C155.116 74.3715 153.84 75.3705 153.036 75.8524C151.5 76.8631 149.928 77.5918 148.073 77.8974Z" fill="url(#paint32_linear_726_21324)"/>
<path fill-rule="evenodd" clip-rule="evenodd" d="M142.579 73.6545C142.555 73.8308 142.532 74.536 142.532 75.0061C142.544 75.1354 142.508 75.3117 142.685 75.3235C142.768 75.3235 142.863 75.2177 142.863 75.1354C142.898 74.7006 142.874 74.2304 142.945 73.7838C143.855 73.5017 145.06 72.1266 145.616 70.2344C146.254 67.2021 145.557 64.0757 145.226 60.8671C145.202 60.7261 145.214 60.5851 145.202 60.4323C145.143 60.491 145.072 60.5498 145.013 60.6086C143.902 61.8191 142.792 63.6879 142.26 65.5214C141.894 66.7202 141.705 68.2011 141.705 69.6232C141.728 71.1158 142.035 72.3734 142.579 73.6545Z" fill="url(#paint33_linear_726_21324)"/>
<path fill-rule="evenodd" clip-rule="evenodd" d="M133.977 79.8249C133.894 79.9542 133.788 80.5419 133.67 80.9885C133.634 81.0943 133.563 81.2588 133.729 81.3176C133.812 81.3528 133.918 81.2823 133.941 81.2118C134.095 80.8357 134.095 80.4361 134.284 80.06C135.17 80.2715 136.706 79.155 137.711 77.6976C139.105 75.1824 139.259 72.2324 139.802 69.2354C139.814 69.0943 139.861 68.965 139.885 68.824C139.814 68.8357 139.743 68.8828 139.672 68.9063C138.337 69.5762 136.813 70.7633 135.832 72.2206C135.159 73.1609 134.532 74.4655 134.178 75.7701C133.811 77.1452 133.8 78.4498 133.977 79.8249Z" fill="url(#paint34_linear_726_21324)"/>
<path fill-rule="evenodd" clip-rule="evenodd" d="M138.81 85.4194C137.238 85.2078 135.206 84.4909 134.308 82.4929C133.989 82.3988 133.433 82.3401 133.103 82.2461C133.008 82.2343 132.961 82.1285 132.949 81.9993C132.949 81.9287 132.996 81.823 133.162 81.7994C133.552 81.8582 133.941 81.9757 134.379 82.0228C136.659 80.6829 138.502 80.0717 140.901 80.4126C143.654 80.8004 145.663 82.1755 146.738 83.057C146.892 83.1863 147.045 83.3038 147.187 83.4331C146.525 84.2441 145.037 84.7847 144.15 85.0198C142.414 85.5017 140.712 85.6897 138.81 85.4194Z" fill="url(#paint35_linear_726_21324)"/>
<defs>
<linearGradient id="paint0_linear_726_21324" x1="81.8934" y1="0.550079" x2="81.8934" y2="85.5436" gradientUnits="userSpaceOnUse">
<stop stop-color="#C6C5C5"/>
<stop offset="1" stop-color="#6B6B6B"/>
</linearGradient>
<linearGradient id="paint1_linear_726_21324" x1="81.8934" y1="0.550079" x2="81.8934" y2="85.5436" gradientUnits="userSpaceOnUse">
<stop stop-color="#C6C5C5"/>
<stop offset="1" stop-color="#6B6B6B"/>
</linearGradient>
<linearGradient id="paint2_linear_726_21324" x1="81.8934" y1="0.550079" x2="81.8934" y2="85.5436" gradientUnits="userSpaceOnUse">
<stop stop-color="#C6C5C5"/>
<stop offset="1" stop-color="#6B6B6B"/>
</linearGradient>
<linearGradient id="paint3_linear_726_21324" x1="81.8934" y1="0.550079" x2="81.8934" y2="85.5436" gradientUnits="userSpaceOnUse">
<stop stop-color="#C6C5C5"/>
<stop offset="1" stop-color="#6B6B6B"/>
</linearGradient>
<linearGradient id="paint4_linear_726_21324" x1="81.8934" y1="0.550079" x2="81.8934" y2="85.5436" gradientUnits="userSpaceOnUse">
<stop stop-color="#C6C5C5"/>
<stop offset="1" stop-color="#6B6B6B"/>
</linearGradient>
<linearGradient id="paint5_linear_726_21324" x1="81.8934" y1="0.550079" x2="81.8934" y2="85.5436" gradientUnits="userSpaceOnUse">
<stop stop-color="#C6C5C5"/>
<stop offset="1" stop-color="#6B6B6B"/>
</linearGradient>
<linearGradient id="paint6_linear_726_21324" x1="81.8934" y1="0.550079" x2="81.8934" y2="85.5436" gradientUnits="userSpaceOnUse">
<stop stop-color="#C6C5C5"/>
<stop offset="1" stop-color="#6B6B6B"/>
</linearGradient>
<linearGradient id="paint7_linear_726_21324" x1="81.8934" y1="0.550079" x2="81.8934" y2="85.5436" gradientUnits="userSpaceOnUse">
<stop stop-color="#C6C5C5"/>
<stop offset="1" stop-color="#6B6B6B"/>
</linearGradient>
<linearGradient id="paint8_linear_726_21324" x1="81.8934" y1="0.550079" x2="81.8934" y2="85.5436" gradientUnits="userSpaceOnUse">
<stop stop-color="#C6C5C5"/>
<stop offset="1" stop-color="#6B6B6B"/>
</linearGradient>
<linearGradient id="paint9_linear_726_21324" x1="81.8934" y1="0.550079" x2="81.8934" y2="85.5436" gradientUnits="userSpaceOnUse">
<stop stop-color="#C6C5C5"/>
<stop offset="1" stop-color="#6B6B6B"/>
</linearGradient>
<linearGradient id="paint10_linear_726_21324" x1="81.8934" y1="0.550079" x2="81.8934" y2="85.5436" gradientUnits="userSpaceOnUse">
<stop stop-color="#C6C5C5"/>
<stop offset="1" stop-color="#6B6B6B"/>
</linearGradient>
<linearGradient id="paint11_linear_726_21324" x1="81.8934" y1="0.550079" x2="81.8934" y2="85.5436" gradientUnits="userSpaceOnUse">
<stop stop-color="#C6C5C5"/>
<stop offset="1" stop-color="#6B6B6B"/>
</linearGradient>
<linearGradient id="paint12_linear_726_21324" x1="81.8934" y1="0.550079" x2="81.8934" y2="85.5436" gradientUnits="userSpaceOnUse">
<stop stop-color="#C6C5C5"/>
<stop offset="1" stop-color="#6B6B6B"/>
</linearGradient>
<linearGradient id="paint13_linear_726_21324" x1="81.8934" y1="0.550079" x2="81.8934" y2="85.5436" gradientUnits="userSpaceOnUse">
<stop stop-color="#C6C5C5"/>
<stop offset="1" stop-color="#6B6B6B"/>
</linearGradient>
<linearGradient id="paint14_linear_726_21324" x1="81.8934" y1="0.550079" x2="81.8934" y2="85.5436" gradientUnits="userSpaceOnUse">
<stop stop-color="#C6C5C5"/>
<stop offset="1" stop-color="#6B6B6B"/>
</linearGradient>
<linearGradient id="paint15_linear_726_21324" x1="81.8934" y1="0.550079" x2="81.8934" y2="85.5436" gradientUnits="userSpaceOnUse">
<stop stop-color="#C6C5C5"/>
<stop offset="1" stop-color="#6B6B6B"/>
</linearGradient>
<linearGradient id="paint16_linear_726_21324" x1="81.8934" y1="0.550079" x2="81.8934" y2="85.5436" gradientUnits="userSpaceOnUse">
<stop stop-color="#C6C5C5"/>
<stop offset="1" stop-color="#6B6B6B"/>
</linearGradient>
<linearGradient id="paint17_linear_726_21324" x1="81.8934" y1="0.550079" x2="81.8934" y2="85.5436" gradientUnits="userSpaceOnUse">
<stop stop-color="#C6C5C5"/>
<stop offset="1" stop-color="#6B6B6B"/>
</linearGradient>
<linearGradient id="paint18_linear_726_21324" x1="81.8934" y1="0.550079" x2="81.8934" y2="85.5436" gradientUnits="userSpaceOnUse">
<stop stop-color="#C6C5C5"/>
<stop offset="1" stop-color="#6B6B6B"/>
</linearGradient>
<linearGradient id="paint19_linear_726_21324" x1="81.8934" y1="0.550079" x2="81.8934" y2="85.5436" gradientUnits="userSpaceOnUse">
<stop stop-color="#C6C5C5"/>
<stop offset="1" stop-color="#6B6B6B"/>
</linearGradient>
<linearGradient id="paint20_linear_726_21324" x1="81.8934" y1="0.550079" x2="81.8934" y2="85.5436" gradientUnits="userSpaceOnUse">
<stop stop-color="#C6C5C5"/>
<stop offset="1" stop-color="#6B6B6B"/>
</linearGradient>
<linearGradient id="paint21_linear_726_21324" x1="81.8934" y1="0.550079" x2="81.8934" y2="85.5436" gradientUnits="userSpaceOnUse">
<stop stop-color="#C6C5C5"/>
<stop offset="1" stop-color="#6B6B6B"/>
</linearGradient>
<linearGradient id="paint22_linear_726_21324" x1="81.8934" y1="0.550079" x2="81.8934" y2="85.5436" gradientUnits="userSpaceOnUse">
<stop stop-color="#C6C5C5"/>
<stop offset="1" stop-color="#6B6B6B"/>
</linearGradient>
<linearGradient id="paint23_linear_726_21324" x1="81.8934" y1="0.550079" x2="81.8934" y2="85.5436" gradientUnits="userSpaceOnUse">
<stop stop-color="#C6C5C5"/>
<stop offset="1" stop-color="#6B6B6B"/>
</linearGradient>
<linearGradient id="paint24_linear_726_21324" x1="81.8934" y1="0.550079" x2="81.8934" y2="85.5436" gradientUnits="userSpaceOnUse">
<stop stop-color="#C6C5C5"/>
<stop offset="1" stop-color="#6B6B6B"/>
</linearGradient>
<linearGradient id="paint25_linear_726_21324" x1="81.8934" y1="0.550079" x2="81.8934" y2="85.5436" gradientUnits="userSpaceOnUse">
<stop stop-color="#C6C5C5"/>
<stop offset="1" stop-color="#6B6B6B"/>
</linearGradient>
<linearGradient id="paint26_linear_726_21324" x1="81.8934" y1="0.550079" x2="81.8934" y2="85.5436" gradientUnits="userSpaceOnUse">
<stop stop-color="#C6C5C5"/>
<stop offset="1" stop-color="#6B6B6B"/>
</linearGradient>
<linearGradient id="paint27_linear_726_21324" x1="81.8934" y1="0.550079" x2="81.8934" y2="85.5436" gradientUnits="userSpaceOnUse">
<stop stop-color="#C6C5C5"/>
<stop offset="1" stop-color="#6B6B6B"/>
</linearGradient>
<linearGradient id="paint28_linear_726_21324" x1="81.8934" y1="0.550079" x2="81.8934" y2="85.5436" gradientUnits="userSpaceOnUse">
<stop stop-color="#C6C5C5"/>
<stop offset="1" stop-color="#6B6B6B"/>
</linearGradient>
<linearGradient id="paint29_linear_726_21324" x1="81.8934" y1="0.550079" x2="81.8934" y2="85.5436" gradientUnits="userSpaceOnUse">
<stop stop-color="#C6C5C5"/>
<stop offset="1" stop-color="#6B6B6B"/>
</linearGradient>
<linearGradient id="paint30_linear_726_21324" x1="81.8934" y1="0.550079" x2="81.8934" y2="85.5436" gradientUnits="userSpaceOnUse">
<stop stop-color="#C6C5C5"/>
<stop offset="1" stop-color="#6B6B6B"/>
</linearGradient>
<linearGradient id="paint31_linear_726_21324" x1="81.8934" y1="0.550079" x2="81.8934" y2="85.5436" gradientUnits="userSpaceOnUse">
<stop stop-color="#C6C5C5"/>
<stop offset="1" stop-color="#6B6B6B"/>
</linearGradient>
<linearGradient id="paint32_linear_726_21324" x1="81.8934" y1="0.550079" x2="81.8934" y2="85.5436" gradientUnits="userSpaceOnUse">
<stop stop-color="#C6C5C5"/>
<stop offset="1" stop-color="#6B6B6B"/>
</linearGradient>
<linearGradient id="paint33_linear_726_21324" x1="81.8934" y1="0.550079" x2="81.8934" y2="85.5436" gradientUnits="userSpaceOnUse">
<stop stop-color="#C6C5C5"/>
<stop offset="1" stop-color="#6B6B6B"/>
</linearGradient>
<linearGradient id="paint34_linear_726_21324" x1="81.8934" y1="0.550079" x2="81.8934" y2="85.5436" gradientUnits="userSpaceOnUse">
<stop stop-color="#C6C5C5"/>
<stop offset="1" stop-color="#6B6B6B"/>
</linearGradient>
<linearGradient id="paint35_linear_726_21324" x1="81.8934" y1="0.550079" x2="81.8934" y2="85.5436" gradientUnits="userSpaceOnUse">
<stop stop-color="#C6C5C5"/>
<stop offset="1" stop-color="#6B6B6B"/>
</linearGradient>
</defs>
</svg>
