<svg width="30" height="15" viewBox="0 0 30 15" fill="none" xmlns="http://www.w3.org/2000/svg">
<path d="M28.6471 7.67647H26.9412V5.11765C26.9412 3.71029 25.7897 2.55882 24.3824 2.55882H18.4118V0.852941C18.4118 0.383824 18.0279 0 17.5588 0H12.4412C11.9721 0 11.5882 0.383824 11.5882 0.852941V2.55882H5.61765C4.21029 2.55882 3.05882 3.71029 3.05882 5.11765V7.67647H1.35294C0.883824 7.67647 0.5 8.06029 0.5 8.52941V13.6471C0.5 14.1162 0.883824 14.5 1.35294 14.5H6.47059C6.93971 14.5 7.32353 14.1162 7.32353 13.6471V8.52941C7.32353 8.06029 6.93971 7.67647 6.47059 7.67647H4.76471V5.11765C4.76471 4.64853 5.14853 4.26471 5.61765 4.26471H11.5882V5.97059C11.5882 6.43971 11.9721 6.82353 12.4412 6.82353H17.5588C18.0279 6.82353 18.4118 6.43971 18.4118 5.97059V4.26471H24.3824C24.8515 4.26471 25.2353 4.64853 25.2353 5.11765V7.67647H23.5294C23.0603 7.67647 22.6765 8.06029 22.6765 8.52941V13.6471C22.6765 14.1162 23.0603 14.5 23.5294 14.5H28.6471C29.1162 14.5 29.5 14.1162 29.5 13.6471V8.52941C29.5 8.06029 29.1162 7.67647 28.6471 7.67647ZM5.61765 12.7941H2.20588V9.38235H5.61765V12.7941ZM16.7059 5.11765H13.2941V1.70588H16.7059V5.11765ZM27.7941 12.7941H24.3824V9.38235H27.7941V12.7941Z" fill="#E7E7E7"/>
</svg>
