<svg width="116" height="69" viewBox="0 0 116 69" fill="none" xmlns="http://www.w3.org/2000/svg">
<path d="M4.06936 30.453H103.047L79.6103 6.60724C78.1583 5.1299 78.1583 2.7245 79.6103 1.24716C81.0623 -0.230174 83.4265 -0.230174 84.8785 1.24716L114.663 31.5515C116.115 33.0288 116.115 35.4342 114.663 36.9116L84.8785 67.2159C84.1525 67.9546 83.2031 68.3334 82.2537 68.3334C81.3043 68.3334 80.3549 67.9546 79.6289 67.2159C78.1769 65.7386 78.1769 63.3332 79.6289 61.8558L103.047 38.0291H4.06936C2.02168 38.0291 0.346298 36.3244 0.346298 34.241C0.346298 32.1576 2.02168 30.453 4.06936 30.453Z" fill="#F4DEA5"/>
</svg>
