<svg width="350" height="615" viewBox="0 0 350 615" fill="none" xmlns="http://www.w3.org/2000/svg">
<path d="M4.18582 0.838623H345.285C347.523 0.838623 349.336 2.65239 349.336 4.88973V610.118C349.336 612.356 347.523 614.169 345.285 614.169H4.18583C1.94849 614.169 0.134766 612.356 0.134766 610.118V4.88969C0.134766 2.65235 1.94848 0.838623 4.18582 0.838623Z" fill="url(#paint0_linear_4_4117)"/>
<path d="M4.18582 1.64884H345.285C347.075 1.64884 348.526 3.09984 348.526 4.88973V610.118C348.526 611.908 347.075 613.359 345.285 613.359H4.18583C2.39597 613.359 0.944978 611.908 0.944978 610.118V4.88969C0.944978 3.09981 2.39595 1.64884 4.18582 1.64884Z" stroke="#E3C17F" stroke-opacity="0.47" stroke-width="1.62042"/>
<defs>
<linearGradient id="paint0_linear_4_4117" x1="227.804" y1="614.169" x2="147.593" y2="225.673" gradientUnits="userSpaceOnUse">
<stop stop-color="#0F1014"/>
<stop offset="1" stop-color="#1C2125"/>
</linearGradient>
</defs>
</svg>
