<svg width="14" height="14" viewBox="0 0 14 14" fill="none" xmlns="http://www.w3.org/2000/svg">
<path fill-rule="evenodd" clip-rule="evenodd" d="M14 7C14 10.8659 10.8659 14 7 14C3.1341 14 0 10.8659 0 7C0 3.1341 3.1341 0 7 0C10.8659 0 14 3.1341 14 7ZM8.81481 3.16037C8.81481 3.76059 8.32803 4.2467 7.72848 4.2467C7.12826 4.2467 6.64215 3.76059 6.64215 3.16037C6.64215 2.56015 7.12826 2.07404 7.72848 2.07404C8.32803 2.07404 8.81481 2.56015 8.81481 3.16037ZM5.55593 5.76247L7.9278 5.41612C8.05203 5.39789 8.15331 5.51401 8.1182 5.63486L6.71997 10.4709C6.6592 10.795 7.46062 10.3453 8.01154 10.003C8.15873 9.91121 8.32616 10.0584 8.24042 10.209C7.80697 10.9698 6.89483 12.2391 5.79975 11.8516C4.6979 11.462 4.97472 10.5742 5.30823 9.50686C5.35954 9.34078 5.41288 9.17131 5.46216 8.9978C5.58437 8.56907 5.73966 8.139 5.8767 7.75889C6.15148 6.99732 6.35268 6.43896 6.06778 6.51052C5.72953 6.59491 5.3116 6.28367 5.42976 5.86507C5.44529 5.80835 5.49719 5.77057 5.55593 5.76247Z" fill="#C8FFFF"/>
</svg>
