<svg width="30" height="29" viewBox="0 0 30 29" fill="none" xmlns="http://www.w3.org/2000/svg">
<path d="M28.6471 7.67647H26.9412V5.11765C26.9412 3.71029 25.7897 2.55882 24.3824 2.55882H18.4118V0.852941C18.4118 0.383824 18.0279 0 17.5588 0H12.4412C11.9721 0 11.5882 0.383824 11.5882 0.852941V2.55882H5.61765C4.21029 2.55882 3.05882 3.71029 3.05882 5.11765V7.67647H1.35294C0.883824 7.67647 0.5 8.06029 0.5 8.52941V13.6471C0.5 14.1162 0.883824 14.5 1.35294 14.5H6.47059C6.93971 14.5 7.32353 14.1162 7.32353 13.6471V8.52941C7.32353 8.06029 6.93971 7.67647 6.47059 7.67647H4.76471V5.11765C4.76471 4.64853 5.14853 4.26471 5.61765 4.26471H11.5882V5.97059C11.5882 6.43971 11.9721 6.82353 12.4412 6.82353H17.5588C18.0279 6.82353 18.4118 6.43971 18.4118 5.97059V4.26471H24.3824C24.8515 4.26471 25.2353 4.64853 25.2353 5.11765V7.67647H23.5294C23.0603 7.67647 22.6765 8.06029 22.6765 8.52941V13.6471C22.6765 14.1162 23.0603 14.5 23.5294 14.5H28.6471C29.1162 14.5 29.5 14.1162 29.5 13.6471V8.52941C29.5 8.06029 29.1162 7.67647 28.6471 7.67647ZM5.61765 12.7941H2.20588V9.38235H5.61765V12.7941ZM16.7059 5.11765H13.2941V1.70588H16.7059V5.11765ZM27.7941 12.7941H24.3824V9.38235H27.7941V12.7941ZM15.6312 10.5168C15.6312 10.5168 15.5971 10.4912 15.58 10.4741C15.5459 10.44 15.5118 10.4144 15.4776 10.3888C15.4435 10.3632 15.4094 10.3462 15.3668 10.3291C15.3412 10.3206 15.3241 10.3035 15.3071 10.295C15.29 10.295 15.2729 10.295 15.2559 10.2865C15.2132 10.2694 15.1706 10.2694 15.1279 10.2609C15.0853 10.2609 15.0426 10.2524 15.0085 10.2524C14.9659 10.2524 14.9232 10.2524 14.8806 10.2609C14.8379 10.2609 14.7953 10.2779 14.7612 10.2865C14.7441 10.2865 14.7271 10.2865 14.7015 10.295C14.6759 10.3035 14.6588 10.3206 14.6418 10.3291C14.6076 10.3462 14.565 10.3632 14.5309 10.3888C14.4968 10.4144 14.4626 10.44 14.4285 10.4741C14.4115 10.4912 14.3944 10.4997 14.3774 10.5168L6.70088 19.0462C6.50471 19.2679 6.43647 19.575 6.52176 19.865L9.08059 28.3944C9.19147 28.7526 9.52412 29 9.89941 29H20.1347C20.51 29 20.8426 28.7526 20.9535 28.3944L23.5124 19.865C23.5976 19.5835 23.5294 19.2679 23.3332 19.0462L15.6568 10.5168H15.6312ZM15 20.4706C15.4691 20.4706 15.8529 20.8544 15.8529 21.3235C15.8529 21.7926 15.4691 22.1765 15 22.1765C14.5309 22.1765 14.1471 21.7926 14.1471 21.3235C14.1471 20.8544 14.5309 20.4706 15 20.4706ZM19.4865 27.2941H10.5221L8.28735 19.8309L14.1556 13.3059V18.9182C13.1662 19.2679 12.4497 20.2062 12.4497 21.3235C12.4497 22.7309 13.6012 23.8824 15.0085 23.8824C16.4159 23.8824 17.5674 22.7309 17.5674 21.3235C17.5674 20.2147 16.8509 19.2765 15.8615 18.9182V13.3059L21.7297 19.8309L19.495 27.2941H19.4865Z" fill="#00D8FB"/>
</svg>
