<svg width="105" height="33" viewBox="0 0 105 33" fill="none" xmlns="http://www.w3.org/2000/svg">
<g clip-path="url(#clip0_49_3374)">
<path d="M32.1198 0.368172L27.4085 0.368164L27.4085 29.8137L32.1197 29.8137L32.1198 0.368172Z" fill="white"/>
<path d="M48.6126 20.4214C48.6126 24.9277 44.8235 25.2869 43.6963 25.2869C40.8802 25.2869 40.3678 22.651 40.3678 21.0609L40.3678 9.79151L35.6566 9.7915L35.6565 21.0373C35.6565 23.8288 36.5328 26.1326 38.0687 27.6685C39.4256 29.0265 41.4585 29.7686 43.661 29.7686C45.2228 29.7686 47.4347 29.2821 48.6126 28.2068L48.6126 29.8145L53.3239 29.8145L53.3239 9.79153L48.6126 9.79153L48.6126 20.4214Z" fill="white"/>
<path d="M62.7431 2.72462L58.0318 2.72462L58.0318 9.79155L54.4983 9.79154L54.4983 14.5028L58.0318 14.5028L58.0318 29.8145L62.7431 29.8145L62.7431 14.5028L66.2766 14.5029L66.2766 9.79156L62.7431 9.79156L62.7431 2.72462Z" fill="white"/>
<path d="M81.1141 23.827C80.0882 24.7492 78.7337 25.2604 77.2473 25.2604C73.9706 25.2604 71.5643 22.8541 71.5643 19.5503C71.5643 16.2465 73.8941 13.9415 77.2473 13.9415C78.7078 13.9415 80.0882 14.428 81.14 15.3502L81.855 15.965L85.0316 12.7896L84.2365 12.0723C82.3673 10.3845 79.8857 9.43752 77.2462 9.43752C71.3571 9.43751 67.0804 13.6871 67.0804 19.5255C67.0804 25.3393 71.4595 29.7408 77.2461 29.7408C79.9351 29.7408 82.4427 28.7939 84.2883 27.0789L85.0563 26.3617L81.8302 23.1886L81.1141 23.827Z" fill="white"/>
<path d="M101.848 11.5368C100.492 10.1799 98.9016 9.4379 96.699 9.4379C95.1373 9.4379 93.3682 9.92433 92.1903 10.9985L92.1904 0.368661L87.4791 0.368652L87.479 29.8142L92.1903 29.8142L92.1903 18.7839C92.1903 14.2776 95.3917 13.9195 96.5188 13.9195C99.335 13.9195 99.2573 16.5567 99.2573 18.1444L99.2572 29.8142L103.969 29.8142L103.969 18.1691C103.969 15.3777 103.386 13.0738 101.848 11.5368Z" fill="white"/>
<path d="M77.0909 16.1948C78.9731 16.1948 80.4984 17.7178 80.4984 19.6011C80.4984 21.4821 78.9731 23.0074 77.0909 23.0074C75.2099 23.0074 73.6858 21.4821 73.6858 19.6011C73.687 17.7189 75.2111 16.1948 77.0909 16.1948Z" fill="#FF3D2E"/>
<path d="M20.813 22.418C19.0215 24.2612 16.5882 25.26 14.0276 25.26C8.7792 25.26 4.96307 21.1376 4.96308 15.4794C4.96309 9.79521 8.77924 5.67284 14.0276 5.67285C16.5635 5.67285 18.9698 6.67047 20.7883 8.48903L21.5044 9.20633L24.6539 6.05683L23.9625 5.33954C21.3513 2.65057 17.8179 1.19241 14.0276 1.19241C6.29522 1.19239 0.482655 7.33708 0.482641 15.5041C0.482627 23.6464 6.32108 29.7664 14.0276 29.7664C17.8437 29.7664 21.3772 28.2823 23.9884 25.5934L24.6798 24.8761L21.5562 21.6759L20.813 22.418Z" fill="white"/>
</g>
<defs>
<clipPath id="clip0_49_3374">
<rect width="103.648" height="31.8012" fill="white" transform="translate(0.482727 0.368164)"/>
</clipPath>
</defs>
</svg>
