<svg width="102" height="33" viewBox="0 0 102 33" fill="none" xmlns="http://www.w3.org/2000/svg">
<g clip-path="url(#clip0_49_3354)">
<mask id="mask0_49_3354" style="mask-type:luminance" maskUnits="userSpaceOnUse" x="0" y="0" width="102" height="33">
<path d="M101.881 0.767267L0.588135 0.76709L0.588079 32.5683L101.881 32.5685L101.881 0.767267Z" fill="white"/>
</mask>
<g mask="url(#mask0_49_3354)">
<path d="M13.2588 12.1144L13.2588 15.5113L21.4404 15.5113C21.2232 17.3904 20.5715 18.836 19.5579 19.7755C18.3994 20.932 16.5168 22.2329 13.2588 22.2329C8.26288 22.2329 4.3531 18.1854 4.3531 13.1984C4.35311 8.21147 8.19051 4.16405 13.2588 4.16406C15.9377 4.16406 17.965 5.2482 19.413 6.62143L21.8024 4.23634C19.7751 2.28491 17.0238 0.767119 13.2588 0.767112C6.38043 0.7671 0.588125 6.3323 0.588113 13.1984C0.588101 20.0646 6.38039 25.6299 13.2587 25.6299C16.9513 25.6299 19.7751 24.4012 21.9472 22.1606C24.1917 19.9202 24.9158 16.74 24.9158 14.2103C24.9158 13.4153 24.8434 12.6926 24.7709 12.1144L13.2588 12.1144Z" fill="#4285F4"/>
<path d="M35.0547 9.29201C30.6381 9.292 26.9456 12.6889 26.9455 17.3146C26.9455 21.9401 30.5657 25.3371 35.0547 25.3371C39.5437 25.3371 43.1639 22.0125 43.1639 17.3868C43.1639 12.689 39.5438 9.29201 35.0547 9.29201ZM35.0547 22.2293C32.593 22.2293 30.4933 20.2056 30.4933 17.3868C30.4933 14.4958 32.593 12.5444 35.0547 12.5444C37.5165 12.5444 39.6162 14.4959 39.6162 17.3868C39.6162 20.2056 37.5165 22.2293 35.0547 22.2293Z" fill="#EA4335"/>
<path d="M74.6597 11.1038L74.5149 11.1038C73.7185 10.1642 72.198 9.29689 70.2431 9.29689C66.1884 9.29688 62.7131 12.7661 62.7131 17.3195C62.7131 21.8005 66.1884 25.342 70.243 25.342C72.198 25.342 73.7184 24.4748 74.5149 23.5351L74.6596 23.5351L74.6596 24.6916C74.6596 27.7271 72.9944 29.3895 70.3878 29.3895C68.2158 29.3895 66.9125 27.8717 66.3333 26.4984L63.2922 27.7994C64.1611 29.8953 66.5504 32.5696 70.4602 32.5696C74.5872 32.5696 78.135 30.1122 78.135 24.1856L78.1351 9.73055L74.8045 9.73055L74.8045 11.1038L74.6597 11.1038ZM70.6051 22.2342C68.1433 22.2342 66.3333 20.1382 66.3333 17.3917C66.3333 14.573 68.2158 12.5493 70.6051 12.5493C72.9945 12.5493 74.8768 14.6453 74.8768 17.464C74.9493 20.2105 73.0668 22.2342 70.6051 22.2342Z" fill="#4285F4"/>
<path d="M53.0782 9.29201C48.6616 9.292 44.969 12.6889 44.969 17.3146C44.969 21.9401 48.5891 25.3371 53.0782 25.3371C57.5672 25.3371 61.1875 22.0125 61.1875 17.3868C61.1875 12.689 57.5672 9.29201 53.0782 9.29201ZM53.0782 22.2293C50.6165 22.2293 48.5168 20.2056 48.5168 17.3868C48.5168 14.4958 50.6165 12.5444 53.0782 12.5444C55.5399 12.5444 57.6396 14.4959 57.6396 17.3868C57.6396 20.2056 55.5399 22.2293 53.0782 22.2293Z" fill="#FBBC05"/>
<path d="M80.8108 1.12598L84.2862 1.12598L84.2861 25.4105L80.8107 25.4105L80.8108 1.12598Z" fill="#34A853"/>
<path d="M95.0057 22.2293C93.1956 22.2293 91.9648 21.4343 91.0959 19.7719L101.884 15.3632L101.522 14.4235C100.87 12.6166 98.7707 9.29201 94.6436 9.29201C90.5167 9.292 87.0413 12.5444 87.0412 17.3146C87.0412 21.7956 90.4442 25.3371 95.0057 25.3371C98.6983 25.3371 100.798 23.0967 101.739 21.7956L98.9879 19.9887C98.0467 21.362 96.8157 22.2293 95.0057 22.2293ZM94.7885 12.3276C96.2365 12.3276 97.4675 13.0503 97.8294 14.0622L90.5891 17.0978C90.5167 13.7731 92.9784 12.3276 94.7885 12.3276Z" fill="#EA4335"/>
</g>
</g>
<defs>
<clipPath id="clip0_49_3354">
<rect width="101.293" height="31.8012" fill="white" transform="translate(0.584229 0.767578)"/>
</clipPath>
</defs>
</svg>
