<svg width="35" height="34" viewBox="0 0 35 34" fill="none" xmlns="http://www.w3.org/2000/svg">
<path fill-rule="evenodd" clip-rule="evenodd" d="M17.5293 0.135986C26.7008 0.135986 34.1386 7.57386 34.1386 16.7453C34.1386 25.9168 26.7008 33.3547 17.5293 33.3547C8.35779 33.3547 0.919922 25.9168 0.919922 16.7453C0.919922 7.57386 8.35779 0.135986 17.5293 0.135986ZM14.0801 22.1402L10.0138 18.0704C9.32099 17.3773 9.32085 16.2469 10.0138 15.5538C10.7068 14.8609 11.8422 14.8653 12.5302 15.5538L15.397 18.4229L22.5286 11.2913C23.2216 10.5982 24.3521 10.5982 25.045 11.2913C25.7381 11.9842 25.7371 13.1157 25.045 13.8078L16.6532 22.1996C15.9612 22.8917 14.8296 22.8927 14.1367 22.1996C14.1173 22.1801 14.0985 22.1604 14.0801 22.1402Z" fill="#00BA00"/>
</svg>
