<svg width="213" height="40" viewBox="0 0 213 40" fill="none" xmlns="http://www.w3.org/2000/svg">
<path d="M0.904296 30.4966V1.75771H9.64327C11.6765 1.75771 13.4311 1.88967 14.9072 2.1536C16.3832 2.41753 17.5709 2.80853 18.4702 3.32661C19.4477 3.90335 20.3275 4.62182 21.1095 5.48203C21.8915 6.34224 22.5171 7.23667 22.9863 8.16531C23.5044 9.28945 23.8954 10.5065 24.1593 11.8163C24.433 13.1262 24.5699 14.524 24.5699 16.0099C24.5699 18.8544 24.086 21.3324 23.1183 23.4438C22.1603 25.5553 20.6989 27.2806 18.7341 28.6198C16.8769 29.871 14.0176 30.4966 10.1565 30.4966H0.904296ZM6.35882 27.0655H9.84854C12.1653 27.0655 13.9785 26.6892 15.2884 25.9365C15.8065 25.6432 16.2855 25.1985 16.7254 24.6022C17.175 24.0059 17.5905 23.2777 17.9717 22.4175C18.2845 21.655 18.524 20.7606 18.6902 19.7342C18.8661 18.7078 18.9541 17.5739 18.9541 16.3324C18.9541 13.8104 18.6462 11.699 18.0303 9.99814C17.3558 8.09199 16.4956 6.80656 15.4497 6.14185C14.1692 5.32074 12.2728 4.91019 9.76057 4.91019H6.35882V27.0655ZM39.9217 30.4966C39.824 30.1936 39.736 29.8954 39.6578 29.6022C39.5796 29.3089 39.5161 29.0499 39.4672 28.8251C38.5483 29.5582 37.6197 30.1007 36.6813 30.4526C35.5963 30.8632 34.4819 31.0684 33.3382 31.0684C31.3538 31.0684 29.7654 30.5601 28.5728 29.5435C27.2043 28.3705 26.52 26.958 26.52 25.306C26.52 24.348 26.7546 23.4829 27.2238 22.7107C27.7028 21.9385 28.4213 21.2395 29.3793 20.6139C30.1711 20.1056 31.3245 19.612 32.8397 19.133C34.3548 18.654 36.1388 18.2093 38.1915 17.7987L39.3206 17.5788V15.2767C39.3206 13.9473 39.0371 13.1115 38.4701 12.7694C37.649 12.2709 36.7888 12.0216 35.8895 12.0216C34.8045 12.0216 33.8807 12.3246 33.1183 12.9307C32.5513 13.3706 32.2678 14.0548 32.2678 14.9835V15.4233H26.7986V15.0128C26.7986 14.1819 27.2434 13.2191 28.1329 12.1242C28.4751 11.7137 28.9296 11.3178 29.4966 10.9366C30.0733 10.5553 30.7576 10.2083 31.5493 9.89551C32.8397 9.39697 34.3304 9.14771 36.0215 9.14771C36.8328 9.14771 37.6099 9.21125 38.3528 9.33832C39.0957 9.4654 39.7751 9.64135 40.391 9.86618C41.1241 10.1497 41.7595 10.4625 42.2971 10.8046C42.8347 11.1369 43.2209 11.4644 43.4555 11.787C43.7878 12.2562 44.042 12.872 44.2179 13.6345C44.3939 14.397 44.4818 15.2865 44.4818 16.3031V24.265C44.4818 24.7048 44.4867 25.1545 44.4965 25.6139C44.5063 26.0636 44.5209 26.5279 44.5405 27.0069C44.56 27.525 44.6285 28.0773 44.7458 28.6638C44.8631 29.2405 45.0195 29.8514 45.215 30.4966H39.9217ZM39.3206 20.438C38.5972 20.6237 37.9081 20.8192 37.2531 21.0245C36.608 21.22 36.0117 21.4204 35.4643 21.6257C34.9267 21.8212 34.4526 22.0216 34.042 22.2268C33.6412 22.4223 33.3186 22.613 33.0743 22.7987C32.3411 23.3754 31.9746 24.2356 31.9746 25.3793C31.9746 25.7801 32.0283 26.1516 32.1359 26.4937C32.2434 26.8358 32.4047 27.134 32.6197 27.3881C32.8348 27.6423 33.0938 27.8427 33.3968 27.9893C33.7096 28.1359 34.0664 28.2092 34.4672 28.2092C34.8094 28.2092 35.171 28.1408 35.5523 28.0039C35.9335 27.8671 36.3538 27.6618 36.8133 27.3881C37.4486 27.0069 38.0645 26.2835 38.6608 25.218C39.1006 24.4262 39.3206 23.3705 39.3206 22.0509V20.438ZM47.9716 9.73422H53.1328V30.4966H47.9716V9.73422ZM47.9716 5.48203V1.75771H53.1328V5.48203H47.9716ZM61.9305 30.4966H56.7692V0.614015H61.9305V30.4966ZM72.8835 29.4702C71.4075 26.1955 69.9314 22.9062 68.4554 19.6022C66.9793 16.2982 65.5033 13.0089 64.0272 9.73422H69.4231L75.5081 23.1946L77.5316 18.3705C78.1279 16.9434 78.7388 15.5015 79.3644 14.045C79.99 12.5886 80.5961 11.1516 81.1826 9.73422H86.2706L77.5462 30.4233C77.0086 31.6745 76.4808 32.7742 75.9627 33.7224C75.4544 34.6804 74.9656 35.4282 74.4964 35.9658C73.8121 36.738 72.8786 37.3783 71.6958 37.8866C70.8161 38.2678 69.5355 38.4584 67.8542 38.4584H64.4085V35.3206H67.209C67.952 35.3206 68.6167 35.1984 69.2032 34.9541C69.7995 34.7195 70.3273 34.3333 70.7867 33.7957C71.0898 33.434 71.6763 32.2366 72.5463 30.2033L72.8835 29.4702ZM102.334 0.614015H107.495V30.4966H102.334V29.1183C102.148 29.304 101.943 29.4849 101.718 29.6608C101.415 29.8857 101.043 30.0909 100.603 30.2767C100.173 30.4624 99.6943 30.6237 99.1664 30.7605C98.7558 30.8583 98.3257 30.9316 97.8761 30.9805C97.4264 31.0391 96.967 31.0684 96.4978 31.0684C95.5985 31.0684 94.748 30.9511 93.9465 30.7165C93.1547 30.4917 92.4264 30.174 91.7617 29.7635C90.9993 29.2552 90.3297 28.6735 89.7529 28.0186C89.186 27.3637 88.7412 26.6599 88.4186 25.9072C88.0472 25.0079 87.7588 24.0743 87.5535 23.1066C87.358 22.1389 87.2603 21.1565 87.2603 20.1594C87.2603 18.6736 87.4704 17.2708 87.8908 15.9512C88.3111 14.6218 88.9123 13.4097 89.6943 12.3149C90.4665 11.308 91.4392 10.5309 92.6122 9.98348C93.795 9.43607 95.1537 9.16237 96.6884 9.16237C97.705 9.16237 98.6483 9.29922 99.5183 9.57293C100.388 9.83686 101.136 10.2083 101.762 10.6873C101.859 10.7655 101.957 10.8486 102.055 10.9366C102.153 11.0148 102.246 11.0978 102.334 11.1858V0.614015ZM102.334 20.1007C102.334 17.6961 101.879 15.8241 100.97 14.4849C100.002 13.0284 98.8438 12.3002 97.4948 12.3002C96.2534 12.3002 95.0951 12.9405 94.0198 14.221C93.0618 15.3647 92.5828 17.3051 92.5828 20.0421C92.5828 21.6061 92.7001 22.916 92.9347 23.9717C93.1694 25.0176 93.5066 25.8045 93.9465 26.3324C94.4646 26.8994 95.012 27.3343 95.5887 27.6374C96.1654 27.9306 96.7715 28.0773 97.4069 28.0773C98.1987 28.0773 99.0344 27.7596 99.9142 27.1242C100.247 26.8896 100.564 26.5181 100.867 26.0098C101.17 25.5015 101.444 24.9248 101.688 24.2796C101.864 23.6931 102.016 23.0333 102.143 22.3002C102.27 21.5572 102.334 20.8241 102.334 20.1007ZM124.21 24.9394H129.386V25.2767C129.386 26.0587 128.966 27.0118 128.125 28.1359C127.47 28.9668 126.395 29.695 124.899 30.3207C123.697 30.8192 122.221 31.0684 120.471 31.0684C116.942 31.0684 114.313 30.0421 112.583 27.9893C110.755 25.7899 109.841 23.2092 109.841 20.2474C109.841 17.2073 110.809 14.5631 112.744 12.3149C114.582 10.2132 117.109 9.16237 120.325 9.16237C121.185 9.16237 122.011 9.26012 122.803 9.45562C123.594 9.64135 124.332 9.91505 125.017 10.2767C125.711 10.6286 126.336 11.0685 126.894 11.5964C127.461 12.1242 127.935 12.7254 128.316 13.3999C128.697 14.1721 128.99 15.0666 129.196 16.0832C129.411 17.0998 129.518 18.2093 129.518 19.4116V20.6873H114.973C114.992 21.7625 115.134 22.74 115.398 23.6198C115.662 24.4996 116.043 25.2474 116.542 25.8632C117.118 26.5181 117.764 27.0264 118.477 27.3881C119.191 27.7498 119.953 27.9306 120.765 27.9306C121.322 27.9306 121.83 27.8573 122.289 27.7107C122.749 27.5641 123.145 27.3637 123.477 27.1095C123.702 26.8945 123.878 26.6305 124.005 26.3177C124.142 26.0049 124.21 25.6579 124.21 25.2767V24.9394ZM124.489 17.828V17.5788C124.44 16.8554 124.323 16.176 124.137 15.5406C123.951 14.8955 123.673 14.3334 123.301 13.8544C122.94 13.3755 122.48 12.9991 121.923 12.7254C121.376 12.4419 120.721 12.3002 119.958 12.3002C119.323 12.3002 118.741 12.4615 118.213 12.7841C117.685 13.1066 117.216 13.527 116.806 14.045C116.405 14.5631 116.068 15.1545 115.794 15.8192C115.53 16.4742 115.339 17.1438 115.222 17.828H124.489ZM131.204 24.7928H136.366V25.0128C136.366 25.9903 136.6 26.6892 137.069 27.1095V27.0949C137.744 27.652 138.687 27.9306 139.899 27.9306C140.994 27.9306 141.952 27.5983 142.773 26.9336C143.428 26.4253 143.756 25.6579 143.756 24.6315C143.756 23.3314 143.106 22.4859 141.806 22.0949L140.061 21.567L138.902 21.2004C138.502 21.0831 138.101 20.961 137.7 20.8339C137.309 20.7068 136.913 20.5846 136.512 20.4673C133.423 19.3529 131.879 17.6619 131.879 15.394C131.879 14.6413 132.065 13.9033 132.436 13.18C132.817 12.4468 133.374 11.7332 134.108 11.0392C134.782 10.4527 135.667 9.99326 136.762 9.6609C137.856 9.32855 139.117 9.16237 140.545 9.16237C143.467 9.16237 145.481 9.7 146.586 10.7753C147.837 11.9972 148.462 13.1897 148.462 14.353V14.5729H143.272V14.353C143.272 13.7078 143.008 13.2044 142.48 12.8427C141.962 12.481 141.258 12.3002 140.369 12.3002C139.86 12.3002 139.381 12.3735 138.932 12.5201C138.492 12.657 138.101 12.8574 137.759 13.1213H137.773C137.265 13.5221 137.011 14.1819 137.011 15.1008C137.011 15.4331 137.055 15.7264 137.143 15.9805C137.231 16.2249 137.373 16.4448 137.568 16.6403C137.764 16.8359 138.013 17.0118 138.316 17.1682C138.629 17.3148 139.005 17.4517 139.445 17.5788H139.43L141.072 18.0333L142.304 18.3852C143.135 18.6198 143.834 18.83 144.401 19.0157C144.968 19.1917 145.339 19.3187 145.515 19.3969C145.828 19.5533 146.092 19.6951 146.307 19.8222C146.532 19.9492 146.727 20.0665 146.893 20.1741C147.607 20.7215 148.13 21.3129 148.462 21.9482C148.795 22.5836 148.961 23.2874 148.961 24.0597C148.961 25.8876 148.179 27.5494 146.615 29.045C145.188 30.394 142.959 31.0684 139.929 31.0684C138.961 31.0684 138.086 31 137.304 30.8632C136.532 30.7361 135.833 30.5504 135.207 30.306C134.591 30.0518 134.049 29.7488 133.58 29.3969C133.111 29.0352 132.705 28.6296 132.363 28.1799C131.591 27.1437 131.204 26.088 131.204 25.0128V24.7928ZM151.6 9.73422H156.761V30.4966H151.6V9.73422ZM151.6 5.48203V1.75771H156.761V5.48203H151.6ZM174.474 28.3998C173.76 29.0841 172.92 29.6071 171.952 29.9687C170.984 30.3207 169.894 30.4966 168.682 30.4966C165.828 30.4966 163.594 29.524 161.981 27.5787C160.261 25.4868 159.401 22.9404 159.401 19.9395C159.401 17.9844 159.777 16.0978 160.53 14.2797C161.195 12.7254 162.299 11.4449 163.844 10.438C165.163 9.58759 166.83 9.16237 168.844 9.16237C169.606 9.16237 170.305 9.22591 170.94 9.35299C171.585 9.48006 172.167 9.67556 172.685 9.93949C172.988 10.0959 173.291 10.2816 173.594 10.4967C173.907 10.7117 174.2 10.9366 174.474 11.1712V9.73422H179.635V26.611C179.635 28.6247 179.508 30.3353 179.254 31.7429C179.01 33.1506 178.653 34.2356 178.184 34.9981C177.783 35.5846 177.26 36.1417 176.615 36.6696C175.979 37.2072 175.271 37.6667 174.489 38.0479C173.814 38.3705 173.037 38.6149 172.157 38.781C171.287 38.957 170.349 39.045 169.342 39.045C168.423 39.045 167.553 38.9765 166.732 38.8397C165.911 38.7126 165.163 38.522 164.489 38.2678C163.726 37.9746 163.042 37.6422 162.436 37.2708C161.83 36.8993 161.37 36.5279 161.058 36.1564C160.676 35.6676 160.373 35.1789 160.149 34.6901C159.934 34.2112 159.826 33.7664 159.826 33.3558V32.9013H165.002V33.3412C165.002 33.8104 165.09 34.216 165.266 34.5582C165.442 34.9101 165.691 35.1838 166.014 35.3793C166.493 35.6334 167.006 35.8289 167.553 35.9658C168.11 36.1124 168.692 36.1857 169.298 36.1857C170.295 36.1857 171.16 35.9756 171.893 35.5552C172.636 35.1447 173.267 34.48 173.785 33.5611C174.244 32.7693 174.474 31.0733 174.474 28.4731V28.3998ZM174.474 19.4996C174.474 17.1926 173.98 15.4527 172.993 14.2797C171.889 12.96 170.769 12.3002 169.635 12.3002C169.029 12.3002 168.433 12.4713 167.846 12.8134C167.26 13.1555 166.703 13.6492 166.175 14.2943C165.706 14.9101 165.344 15.6922 165.09 16.6403C164.846 17.5788 164.723 18.6882 164.723 19.9688C164.723 21.523 164.924 22.8818 165.325 24.045C165.725 25.2083 166.297 26.0685 167.04 26.6256C167.47 26.8896 167.905 27.1046 168.345 27.2708C168.785 27.4272 169.191 27.5054 169.562 27.5054C170.188 27.5054 170.789 27.3148 171.366 26.9336C171.952 26.5523 172.504 26.0049 173.022 25.2913H173.008C173.477 24.5973 173.839 23.7664 174.093 22.7987C174.347 21.8309 174.474 20.7312 174.474 19.4996ZM188.433 30.4966H183.272V9.73422H188.433V11.3764C188.531 11.2885 188.638 11.1956 188.756 11.0978C188.873 10.9903 188.985 10.8975 189.093 10.8193C189.65 10.3794 190.442 9.96882 191.468 9.58759C192.221 9.30411 193.149 9.16237 194.254 9.16237C194.987 9.16237 195.686 9.23568 196.351 9.38231C197.016 9.52894 197.631 9.74399 198.198 10.0275C198.765 10.3012 199.274 10.6335 199.723 11.0245C200.173 11.4155 200.544 11.8554 200.838 12.3442C201.15 12.9111 201.39 13.6149 201.556 14.4556C201.722 15.2963 201.805 16.2493 201.805 17.3148V30.4966H196.629V18.7811C196.629 16.875 196.522 15.5944 196.307 14.9395C196.004 14.0206 195.652 13.4488 195.251 13.2239C194.909 13.0187 194.586 12.8623 194.283 12.7547C193.98 12.6472 193.687 12.5934 193.404 12.5934C193.061 12.5934 192.685 12.6716 192.275 12.828C191.864 12.9747 191.449 13.18 191.028 13.4439C190.725 13.6492 190.412 13.9571 190.09 14.3676C189.767 14.7782 189.454 15.2767 189.151 15.8632C188.907 16.3227 188.726 16.9238 188.609 17.6667C188.492 18.3999 188.433 19.2747 188.433 20.2914V30.4966ZM212.362 30.4966H205.764V25.3647H212.362V30.4966Z" fill="url(#paint0_linear_49_2810)"/>
<defs>
<linearGradient id="paint0_linear_49_2810" x1="-0.913879" y1="14.7188" x2="214.861" y2="14.7188" gradientUnits="userSpaceOnUse">
<stop stop-color="#ECF105"/>
<stop offset="0.4688" stop-color="#DA76EB"/>
<stop offset="1" stop-color="#33E3F6"/>
</linearGradient>
</defs>
</svg>
