<svg width="186" height="36" viewBox="0 0 186 36" fill="none" xmlns="http://www.w3.org/2000/svg">
<path d="M6.86055 28.5139V4.5382H14.1511C15.8474 4.5382 17.3112 4.6483 18.5426 4.86848C19.774 5.08867 20.7648 5.41487 21.5151 5.84708C22.3306 6.32823 23.0646 6.92762 23.717 7.64526C24.3694 8.3629 24.8913 9.10909 25.2827 9.88381C25.7149 10.8216 26.0411 11.8369 26.2613 12.9297C26.4897 14.0225 26.6038 15.1886 26.6038 16.4282C26.6038 18.8013 26.2002 20.8686 25.3928 22.6301C24.5936 24.3916 23.3744 25.8309 21.7353 26.9482C20.1858 27.992 17.8005 28.5139 14.5793 28.5139H6.86055ZM11.411 25.6515H14.3224C16.2551 25.6515 17.7679 25.3376 18.8606 24.7096C19.2929 24.465 19.6925 24.0939 20.0594 23.5965C20.4346 23.099 20.7811 22.4915 21.0992 21.7738C21.3602 21.1377 21.56 20.3915 21.6986 19.5353C21.8454 18.679 21.9188 17.733 21.9188 16.6973C21.9188 14.5933 21.6619 12.8318 21.1481 11.4129C20.5854 9.82265 19.8678 8.75027 18.9952 8.19572C17.9269 7.5107 16.3448 7.16819 14.249 7.16819H11.411V25.6515ZM39.4113 28.5139C39.3297 28.2611 39.2563 28.0124 39.1911 27.7677C39.1258 27.5231 39.0728 27.307 39.0321 27.1194C38.2655 27.731 37.4908 28.1836 36.7079 28.4772C35.8027 28.8197 34.873 28.991 33.9189 28.991C32.2634 28.991 30.9382 28.5669 29.9433 27.7188C28.8016 26.7402 28.2307 25.5618 28.2307 24.1836C28.2307 23.3844 28.4265 22.6627 28.8179 22.0185C29.2175 21.3742 29.8169 20.7911 30.6161 20.2692C31.2766 19.8452 32.2389 19.4333 33.503 19.0337C34.767 18.6341 36.2553 18.2631 37.9678 17.9206L38.9097 17.7371V15.8166C38.9097 14.7075 38.6732 14.0102 38.2002 13.7248C37.5152 13.3089 36.7976 13.101 36.0473 13.101C35.1421 13.101 34.3715 13.3538 33.7354 13.8594C33.2624 14.2264 33.0259 14.7972 33.0259 15.5719V15.9389H28.4632V15.5964C28.4632 14.9032 28.8342 14.1 29.5763 13.1866C29.8617 12.8441 30.241 12.5138 30.7139 12.1958C31.1951 11.8777 31.7659 11.5882 32.4265 11.3272C33.503 10.9113 34.7466 10.7034 36.1574 10.7034C36.8343 10.7034 37.4826 10.7564 38.1024 10.8624C38.7222 10.9684 39.2889 11.1152 39.8027 11.3028C40.4143 11.5393 40.9444 11.8002 41.3929 12.0857C41.8415 12.3629 42.1636 12.6361 42.3593 12.9052C42.6366 13.2967 42.8486 13.8104 42.9954 14.4465C43.1422 15.0826 43.2156 15.8247 43.2156 16.6729V23.3151C43.2156 23.6821 43.2197 24.0572 43.2278 24.4405C43.236 24.8156 43.2482 25.203 43.2645 25.6026C43.2808 26.0348 43.3379 26.4956 43.4358 26.9849C43.5336 27.466 43.6641 27.9757 43.8272 28.5139H39.4113ZM38.9097 20.1224C38.3063 20.2774 37.7313 20.4405 37.1849 20.6117C36.6467 20.7748 36.1493 20.942 35.6926 21.1133C35.2441 21.2764 34.8485 21.4435 34.506 21.6148C34.1717 21.7779 33.9026 21.9369 33.6987 22.0919C33.0871 22.573 32.7812 23.2906 32.7812 24.2448C32.7812 24.5791 32.8261 24.889 32.9158 25.1745C33.0055 25.4599 33.1401 25.7086 33.3195 25.9206C33.4989 26.1327 33.715 26.2998 33.9678 26.4222C34.2288 26.5445 34.5264 26.6057 34.8608 26.6057C35.1462 26.6057 35.4479 26.5486 35.766 26.4344C36.084 26.3202 36.4347 26.149 36.818 25.9206C37.348 25.6026 37.8618 24.9991 38.3593 24.1102C38.7262 23.4497 38.9097 22.5689 38.9097 21.468V20.1224ZM46.1269 11.1927H50.4328V28.5139H46.1269V11.1927ZM46.1269 7.64526V4.5382H50.4328V7.64526H46.1269ZM57.7723 28.5139H53.4664V3.58407H57.7723V28.5139ZM66.9099 27.6577C65.6785 24.9257 64.4471 22.1816 63.2157 19.4252C61.9843 16.6688 60.7529 13.9246 59.5215 11.1927H64.0231L69.0996 22.4221L70.7877 18.3976C71.2851 17.207 71.7948 16.0041 72.3167 14.789C72.8386 13.574 73.3442 12.3752 73.8335 11.1927H78.0782L70.7999 28.4528C70.3514 29.4966 69.911 30.414 69.4788 31.2051C69.0547 32.0043 68.647 32.6281 68.2555 33.0767C67.6847 33.7209 66.9059 34.2551 65.9191 34.6791C65.1852 34.9972 64.1169 35.1562 62.7142 35.1562H59.8396V32.5384H62.176C62.7957 32.5384 63.3503 32.4365 63.8396 32.2326C64.337 32.0369 64.7774 31.7148 65.1607 31.2662C65.4135 30.9645 65.9028 29.9655 66.6286 28.2693L66.9099 27.6577ZM91.4789 3.58407H95.7848V28.5139H91.4789V27.3641C91.324 27.519 91.1527 27.6699 90.9652 27.8167C90.7124 28.0042 90.4025 28.1755 90.0355 28.3304C89.6767 28.4854 89.2771 28.6199 88.8367 28.7341C88.4942 28.8157 88.1354 28.8768 87.7603 28.9176C87.3851 28.9665 87.0018 28.991 86.6104 28.991C85.8601 28.991 85.1507 28.8931 84.4819 28.6974C83.8214 28.5098 83.2138 28.2448 82.6593 27.9023C82.0232 27.4782 81.4646 26.993 80.9835 26.4466C80.5105 25.9002 80.1394 25.3131 79.8703 24.6852C79.5604 23.9349 79.3198 23.1561 79.1486 22.3487C78.9855 21.5414 78.9039 20.7218 78.9039 19.89C78.9039 18.6504 79.0793 17.4802 79.4299 16.3793C79.7806 15.2702 80.2821 14.259 80.9345 13.3456C81.5788 12.5056 82.3902 11.8573 83.3688 11.4006C84.3555 10.944 85.4891 10.7156 86.7694 10.7156C87.6175 10.7156 88.4045 10.8298 89.1303 11.0581C89.8561 11.2783 90.48 11.5882 91.0019 11.9878C91.0834 12.053 91.165 12.1224 91.2465 12.1958C91.3281 12.261 91.4056 12.3303 91.4789 12.4037V3.58407ZM91.4789 19.8411C91.4789 17.8349 91.0997 16.2733 90.3413 15.156C89.534 13.9409 88.5676 13.3334 87.4422 13.3334C86.4065 13.3334 85.4402 13.8675 84.5431 14.9358C83.7439 15.89 83.3443 17.5087 83.3443 19.7921C83.3443 21.0969 83.4422 22.1897 83.6379 23.0705C83.8336 23.943 84.115 24.5995 84.4819 25.0399C84.9142 25.5129 85.3708 25.8758 85.852 26.1286C86.3331 26.3732 86.8387 26.4956 87.3688 26.4956C88.0294 26.4956 88.7266 26.2305 89.4606 25.7004C89.7379 25.5047 90.0029 25.1948 90.2557 24.7708C90.5085 24.3467 90.7368 23.8656 90.9407 23.3273C91.0875 22.838 91.2139 22.2876 91.3199 21.676C91.4259 21.0562 91.4789 20.4445 91.4789 19.8411ZM109.73 23.8778H114.048V24.1592C114.048 24.8116 113.697 25.6067 112.996 26.5445C112.45 27.2377 111.553 27.8452 110.305 28.3671C109.302 28.783 108.07 28.991 106.611 28.991C103.667 28.991 101.473 28.1347 100.029 26.4222C98.5045 24.5873 97.742 22.4344 97.742 19.9634C97.742 17.4272 98.5493 15.2213 100.164 13.3456C101.697 11.5923 103.805 10.7156 106.488 10.7156C107.206 10.7156 107.895 10.7972 108.556 10.9603C109.216 11.1152 109.832 11.3436 110.403 11.6453C110.982 11.9389 111.504 12.3058 111.968 12.7462C112.441 13.1866 112.837 13.6881 113.155 14.2508C113.473 14.8951 113.718 15.6412 113.889 16.4894C114.068 17.3375 114.158 18.2631 114.158 19.2661V20.3304H102.023C102.04 21.2274 102.158 22.0429 102.378 22.7769C102.598 23.5108 102.916 24.1347 103.332 24.6485C103.813 25.1948 104.352 25.6189 104.947 25.9206C105.542 26.2224 106.178 26.3732 106.855 26.3732C107.32 26.3732 107.744 26.3121 108.127 26.1897C108.511 26.0674 108.841 25.9002 109.118 25.6882C109.306 25.5088 109.453 25.2886 109.559 25.0277C109.673 24.7667 109.73 24.4772 109.73 24.1592V23.8778ZM109.962 17.945V17.7371C109.922 17.1336 109.824 16.5668 109.669 16.0368C109.514 15.4985 109.281 15.0296 108.971 14.63C108.67 14.2304 108.286 13.9165 107.822 13.6881C107.365 13.4516 106.819 13.3334 106.182 13.3334C105.652 13.3334 105.167 13.4679 104.727 13.7371C104.286 14.0062 103.895 14.3568 103.552 14.789C103.218 15.2213 102.937 15.7146 102.708 16.2692C102.488 16.8156 102.329 17.3742 102.231 17.945H109.962ZM115.565 23.7555H119.871V23.939C119.871 24.7545 120.066 25.3376 120.458 25.6882V25.676C121.02 26.1408 121.807 26.3732 122.819 26.3732C123.732 26.3732 124.531 26.096 125.216 25.5414C125.763 25.1174 126.036 24.4772 126.036 23.6209C126.036 22.5363 125.493 21.8309 124.409 21.5047L122.953 21.0643L121.987 20.7585C121.652 20.6607 121.318 20.5587 120.984 20.4527C120.658 20.3467 120.327 20.2447 119.993 20.1469C117.416 19.2172 116.127 17.8064 116.127 15.9144C116.127 15.2865 116.282 14.6708 116.592 14.0673C116.91 13.4557 117.375 12.8604 117.987 12.2814C118.549 11.7921 119.288 11.4088 120.201 11.1315C121.114 10.8543 122.166 10.7156 123.357 10.7156C125.795 10.7156 127.475 11.1641 128.397 12.0612C129.441 13.0806 129.962 14.0755 129.962 15.0459V15.2294H125.632V15.0459C125.632 14.5077 125.412 14.0877 124.972 13.786C124.539 13.4842 123.952 13.3334 123.21 13.3334C122.786 13.3334 122.386 13.3945 122.011 13.5169C121.644 13.631 121.318 13.7982 121.033 14.0184H121.045C120.621 14.3528 120.409 14.9032 120.409 15.6698C120.409 15.9471 120.446 16.1917 120.519 16.4037C120.592 16.6076 120.711 16.7911 120.874 16.9542C121.037 17.1173 121.245 17.2641 121.498 17.3946C121.758 17.5169 122.072 17.6311 122.439 17.7371H122.427L123.797 18.1163L124.825 18.4099C125.518 18.6056 126.101 18.7809 126.574 18.9359C127.047 19.0827 127.357 19.1887 127.504 19.2539C127.765 19.3844 127.985 19.5026 128.164 19.6087C128.352 19.7147 128.515 19.8125 128.654 19.9022C129.249 20.3589 129.685 20.8523 129.962 21.3824C130.24 21.9124 130.378 22.4996 130.378 23.1439C130.378 24.6688 129.726 26.0552 128.421 27.3029C127.231 28.4283 125.371 28.991 122.843 28.991C122.036 28.991 121.306 28.9339 120.653 28.8197C120.009 28.7137 119.426 28.5588 118.904 28.3549C118.39 28.1429 117.938 27.8901 117.546 27.5965C117.155 27.2948 116.817 26.9563 116.531 26.5812C115.887 25.7168 115.565 24.836 115.565 23.939V23.7555ZM132.58 11.1927H136.886V28.5139H132.58V11.1927ZM132.58 7.64526V4.5382H136.886V7.64526H132.58ZM151.663 26.7647C151.068 27.3355 150.366 27.7718 149.559 28.0736C148.752 28.3671 147.842 28.5139 146.831 28.5139C144.45 28.5139 142.586 27.7025 141.241 26.0797C139.806 24.3345 139.088 22.2101 139.088 19.7065C139.088 18.0755 139.402 16.5016 140.03 14.9848C140.584 13.6881 141.506 12.6198 142.794 11.7799C143.895 11.0704 145.286 10.7156 146.966 10.7156C147.602 10.7156 148.185 10.7686 148.715 10.8746C149.253 10.9807 149.738 11.1438 150.171 11.3639C150.423 11.4944 150.676 11.6494 150.929 11.8288C151.19 12.0082 151.435 12.1958 151.663 12.3915V11.1927H155.969V25.2723C155.969 26.9522 155.863 28.3794 155.651 29.5537C155.447 30.728 155.149 31.6332 154.758 32.2693C154.423 32.7586 153.987 33.2234 153.449 33.6638C152.919 34.1123 152.328 34.4956 151.675 34.8137C151.112 35.0828 150.464 35.2867 149.73 35.4253C149.004 35.5721 148.221 35.6455 147.382 35.6455C146.615 35.6455 145.889 35.5884 145.204 35.4742C144.519 35.3682 143.895 35.2092 143.333 34.9972C142.696 34.7525 142.126 34.4752 141.62 34.1653C141.114 33.8555 140.731 33.5456 140.47 33.2357C140.152 32.8279 139.899 32.4202 139.712 32.0124C139.532 31.6128 139.443 31.2418 139.443 30.8993V30.5201H143.761V30.887C143.761 31.2785 143.834 31.6169 143.981 31.9023C144.128 32.1959 144.336 32.4243 144.605 32.5874C145.004 32.7994 145.432 32.9625 145.889 33.0767C146.354 33.199 146.839 33.2601 147.345 33.2601C148.177 33.2601 148.898 33.0848 149.51 32.7341C150.13 32.3916 150.656 31.8371 151.088 31.0705C151.471 30.41 151.663 28.9951 151.663 26.8258V26.7647ZM151.663 19.3395C151.663 17.415 151.251 15.9634 150.427 14.9848C149.506 13.8838 148.572 13.3334 147.626 13.3334C147.121 13.3334 146.623 13.4761 146.134 13.7615C145.645 14.0469 145.18 14.4588 144.739 14.997C144.348 15.5108 144.046 16.1632 143.834 16.9542C143.63 17.7371 143.528 18.6627 143.528 19.731C143.528 21.0276 143.695 22.1612 144.03 23.1316C144.364 24.1021 144.841 24.8197 145.461 25.2845C145.82 25.5047 146.183 25.6841 146.55 25.8228C146.917 25.9533 147.255 26.0185 147.565 26.0185C148.087 26.0185 148.588 25.8595 149.07 25.5414C149.559 25.2234 150.02 24.7667 150.452 24.1714H150.44C150.831 23.5924 151.133 22.8992 151.345 22.0919C151.557 21.2845 151.663 20.3671 151.663 19.3395ZM163.308 28.5139H159.002V11.1927H163.308V12.5627C163.39 12.4893 163.48 12.4119 163.577 12.3303C163.675 12.2406 163.769 12.1631 163.859 12.0979C164.324 11.7309 164.984 11.3884 165.84 11.0704C166.468 10.8339 167.243 10.7156 168.165 10.7156C168.776 10.7156 169.359 10.7768 169.914 10.8991C170.468 11.0214 170.982 11.2008 171.455 11.4373C171.928 11.6657 172.352 11.943 172.727 12.2692C173.102 12.5954 173.412 12.9623 173.657 13.3701C173.918 13.8431 174.118 14.4302 174.256 15.1316C174.395 15.8329 174.464 16.628 174.464 17.5169V28.5139H170.146V18.7401C170.146 17.1499 170.057 16.0816 169.877 15.5352C169.624 14.7687 169.331 14.2916 168.996 14.104C168.711 13.9328 168.442 13.8023 168.189 13.7126C167.936 13.6229 167.692 13.578 167.455 13.578C167.17 13.578 166.856 13.6433 166.513 13.7738C166.171 13.8961 165.824 14.0673 165.473 14.2875C165.221 14.4588 164.96 14.7157 164.691 15.0582C164.421 15.4007 164.16 15.8166 163.908 16.3059C163.704 16.6892 163.553 17.1907 163.455 17.8105C163.357 18.4221 163.308 19.152 163.308 20.0001V28.5139ZM183.272 28.5139H177.767V24.2325H183.272V28.5139Z" fill="#121213"/>
<rect x="2.83395" y="2.62207" width="8.91702" height="26.7511" fill="white"/>
<path d="M0.144379 17.9762L10.0307 4.29346V14.1798H15.3298L5.44346 28.258V17.9762H0.144379Z" fill="url(#paint0_linear_49_3313)"/>
<defs>
<linearGradient id="paint0_linear_49_3313" x1="5.89021" y1="4.29346" x2="13.7606" y2="28.517" gradientUnits="userSpaceOnUse">
<stop stop-color="#F605CF"/>
<stop offset="0.441026" stop-color="#5C28ED"/>
<stop offset="0.911006" stop-color="#5911F3"/>
</linearGradient>
</defs>
</svg>
